<?xml version="1.0" encoding="utf-8" standalone="no"?>
<!DOCTYPE svg PUBLIC "-//W3C//DTD SVG 1.1//EN"
  "http://www.w3.org/Graphics/SVG/1.1/DTD/svg11.dtd">
<!-- Created with matplotlib (https://matplotlib.org/) -->
<svg height="246.567969pt" version="1.1" viewBox="0 0 980.89 246.567969" width="980.89pt" xmlns="http://www.w3.org/2000/svg" xmlns:xlink="http://www.w3.org/1999/xlink">
 <defs>
  <style type="text/css">
*{stroke-linecap:butt;stroke-linejoin:round;}
  </style>
 </defs>
 <g id="figure_1">
  <g id="patch_1">
   <path d="M 0 246.567969 
L 980.89 246.567969 
L 980.89 0 
L 0 0 
z
" style="fill:none;"/>
  </g>
  <g id="axes_1">
   <g id="patch_2">
    <path d="M 80.89 195.93 
L 293.461429 195.93 
L 293.461429 29.61 
L 80.89 29.61 
z
" style="fill:none;"/>
   </g>
   <g id="matplotlib.axis_1">
    <g id="xtick_1">
     <g id="line2d_1">
      <defs>
       <path d="M 0 0 
L 0 3.5 
" id="me95492e71c" style="stroke:#000000;stroke-width:0.8;"/>
      </defs>
      <g>
       <use style="stroke:#000000;stroke-width:0.8;" x="90.551766" xlink:href="#me95492e71c" y="195.93"/>
      </g>
     </g>
     <g id="text_1">
      <!-- −20 -->
      <defs>
       <path d="M 52.828125 31.203125 
L 5.5625 31.203125 
L 5.5625 39.40625 
L 52.828125 39.40625 
z
" id="ArialMT-8722"/>
       <path d="M 50.34375 8.453125 
L 50.34375 0 
L 3.03125 0 
Q 2.9375 3.171875 4.046875 6.109375 
Q 5.859375 10.9375 9.828125 15.625 
Q 13.8125 20.3125 21.34375 26.46875 
Q 33.015625 36.03125 37.109375 41.625 
Q 41.21875 47.21875 41.21875 52.203125 
Q 41.21875 57.421875 37.46875 61 
Q 33.734375 64.59375 27.734375 64.59375 
Q 21.390625 64.59375 17.578125 60.78125 
Q 13.765625 56.984375 13.71875 50.25 
L 4.6875 51.171875 
Q 5.609375 61.28125 11.65625 66.578125 
Q 17.71875 71.875 27.9375 71.875 
Q 38.234375 71.875 44.234375 66.15625 
Q 50.25 60.453125 50.25 52 
Q 50.25 47.703125 48.484375 43.546875 
Q 46.734375 39.40625 42.65625 34.8125 
Q 38.578125 30.21875 29.109375 22.21875 
Q 21.1875 15.578125 18.9375 13.203125 
Q 16.703125 10.84375 15.234375 8.453125 
z
" id="ArialMT-50"/>
       <path d="M 4.15625 35.296875 
Q 4.15625 48 6.765625 55.734375 
Q 9.375 63.484375 14.515625 67.671875 
Q 19.671875 71.875 27.484375 71.875 
Q 33.25 71.875 37.59375 69.546875 
Q 41.9375 67.234375 44.765625 62.859375 
Q 47.609375 58.5 49.21875 52.21875 
Q 50.828125 45.953125 50.828125 35.296875 
Q 50.828125 22.703125 48.234375 14.96875 
Q 45.65625 7.234375 40.5 3 
Q 35.359375 -1.21875 27.484375 -1.21875 
Q 17.140625 -1.21875 11.234375 6.203125 
Q 4.15625 15.140625 4.15625 35.296875 
z
M 13.1875 35.296875 
Q 13.1875 17.671875 17.3125 11.828125 
Q 21.4375 6 27.484375 6 
Q 33.546875 6 37.671875 11.859375 
Q 41.796875 17.71875 41.796875 35.296875 
Q 41.796875 52.984375 37.671875 58.78125 
Q 33.546875 64.59375 27.390625 64.59375 
Q 21.34375 64.59375 17.71875 59.46875 
Q 13.1875 52.9375 13.1875 35.296875 
z
" id="ArialMT-48"/>
      </defs>
      <g transform="translate(77.829891 213.666719)scale(0.15 -0.15)">
       <use xlink:href="#ArialMT-8722"/>
       <use x="58.398438" xlink:href="#ArialMT-50"/>
       <use x="114.013672" xlink:href="#ArialMT-48"/>
      </g>
     </g>
    </g>
    <g id="xtick_2">
     <g id="line2d_2">
      <g>
       <use style="stroke:#000000;stroke-width:0.8;" x="187.176382" xlink:href="#me95492e71c" y="195.93"/>
      </g>
     </g>
     <g id="text_2">
      <!-- 0 -->
      <g transform="translate(183.005679 213.666719)scale(0.15 -0.15)">
       <use xlink:href="#ArialMT-48"/>
      </g>
     </g>
    </g>
    <g id="xtick_3">
     <g id="line2d_3">
      <g>
       <use style="stroke:#000000;stroke-width:0.8;" x="283.800998" xlink:href="#me95492e71c" y="195.93"/>
      </g>
     </g>
     <g id="text_3">
      <!-- 20 -->
      <g transform="translate(275.459592 213.666719)scale(0.15 -0.15)">
       <use xlink:href="#ArialMT-50"/>
       <use x="55.615234" xlink:href="#ArialMT-48"/>
      </g>
     </g>
    </g>
    <g id="text_4">
     <!-- Gate Voltage,  $V_{GS}$  [V] -->
     <defs>
      <path d="M 41.21875 28.078125 
L 41.21875 36.46875 
L 71.53125 36.53125 
L 71.53125 9.96875 
Q 64.546875 4.390625 57.125 1.578125 
Q 49.703125 -1.21875 41.890625 -1.21875 
Q 31.34375 -1.21875 22.71875 3.296875 
Q 14.109375 7.8125 9.71875 16.359375 
Q 5.328125 24.90625 5.328125 35.453125 
Q 5.328125 45.90625 9.6875 54.953125 
Q 14.0625 64.015625 22.265625 68.40625 
Q 30.46875 72.796875 41.15625 72.796875 
Q 48.921875 72.796875 55.1875 70.28125 
Q 61.46875 67.78125 65.03125 63.28125 
Q 68.609375 58.796875 70.453125 51.5625 
L 61.921875 49.21875 
Q 60.296875 54.6875 57.90625 57.8125 
Q 55.515625 60.9375 51.0625 62.8125 
Q 46.625 64.703125 41.21875 64.703125 
Q 34.71875 64.703125 29.984375 62.71875 
Q 25.25 60.75 22.34375 57.515625 
Q 19.4375 54.296875 17.828125 50.4375 
Q 15.09375 43.796875 15.09375 36.03125 
Q 15.09375 26.46875 18.390625 20.015625 
Q 21.6875 13.578125 27.984375 10.453125 
Q 34.28125 7.328125 41.359375 7.328125 
Q 47.515625 7.328125 53.375 9.6875 
Q 59.234375 12.0625 62.25 14.75 
L 62.25 28.078125 
z
" id="ArialMT-71"/>
      <path d="M 40.4375 6.390625 
Q 35.546875 2.25 31.03125 0.53125 
Q 26.515625 -1.171875 21.34375 -1.171875 
Q 12.796875 -1.171875 8.203125 3 
Q 3.609375 7.171875 3.609375 13.671875 
Q 3.609375 17.484375 5.34375 20.625 
Q 7.078125 23.78125 9.890625 25.6875 
Q 12.703125 27.59375 16.21875 28.5625 
Q 18.796875 29.25 24.03125 29.890625 
Q 34.671875 31.15625 39.703125 32.90625 
Q 39.75 34.71875 39.75 35.203125 
Q 39.75 40.578125 37.25 42.78125 
Q 33.890625 45.75 27.25 45.75 
Q 21.046875 45.75 18.09375 43.578125 
Q 15.140625 41.40625 13.71875 35.890625 
L 5.125 37.0625 
Q 6.296875 42.578125 8.984375 45.96875 
Q 11.671875 49.359375 16.75 51.1875 
Q 21.828125 53.03125 28.515625 53.03125 
Q 35.15625 53.03125 39.296875 51.46875 
Q 43.453125 49.90625 45.40625 47.53125 
Q 47.359375 45.171875 48.140625 41.546875 
Q 48.578125 39.3125 48.578125 33.453125 
L 48.578125 21.734375 
Q 48.578125 9.46875 49.140625 6.21875 
Q 49.703125 2.984375 51.375 0 
L 42.1875 0 
Q 40.828125 2.734375 40.4375 6.390625 
z
M 39.703125 26.03125 
Q 34.90625 24.078125 25.34375 22.703125 
Q 19.921875 21.921875 17.671875 20.9375 
Q 15.4375 19.96875 14.203125 18.09375 
Q 12.984375 16.21875 12.984375 13.921875 
Q 12.984375 10.40625 15.640625 8.0625 
Q 18.3125 5.71875 23.4375 5.71875 
Q 28.515625 5.71875 32.46875 7.9375 
Q 36.421875 10.15625 38.28125 14.015625 
Q 39.703125 17 39.703125 22.796875 
z
" id="ArialMT-97"/>
      <path d="M 25.78125 7.859375 
L 27.046875 0.09375 
Q 23.34375 -0.6875 20.40625 -0.6875 
Q 15.625 -0.6875 12.984375 0.828125 
Q 10.359375 2.34375 9.28125 4.8125 
Q 8.203125 7.28125 8.203125 15.1875 
L 8.203125 45.015625 
L 1.765625 45.015625 
L 1.765625 51.859375 
L 8.203125 51.859375 
L 8.203125 64.703125 
L 16.9375 69.96875 
L 16.9375 51.859375 
L 25.78125 51.859375 
L 25.78125 45.015625 
L 16.9375 45.015625 
L 16.9375 14.703125 
Q 16.9375 10.9375 17.40625 9.859375 
Q 17.875 8.796875 18.921875 8.15625 
Q 19.96875 7.515625 21.921875 7.515625 
Q 23.390625 7.515625 25.78125 7.859375 
z
" id="ArialMT-116"/>
      <path d="M 42.09375 16.703125 
L 51.171875 15.578125 
Q 49.03125 7.625 43.21875 3.21875 
Q 37.40625 -1.171875 28.375 -1.171875 
Q 17 -1.171875 10.328125 5.828125 
Q 3.65625 12.84375 3.65625 25.484375 
Q 3.65625 38.578125 10.390625 45.796875 
Q 17.140625 53.03125 27.875 53.03125 
Q 38.28125 53.03125 44.875 45.953125 
Q 51.46875 38.875 51.46875 26.03125 
Q 51.46875 25.25 51.421875 23.6875 
L 12.75 23.6875 
Q 13.234375 15.140625 17.578125 10.59375 
Q 21.921875 6.0625 28.421875 6.0625 
Q 33.25 6.0625 36.671875 8.59375 
Q 40.09375 11.140625 42.09375 16.703125 
z
M 13.234375 30.90625 
L 42.1875 30.90625 
Q 41.609375 37.453125 38.875 40.71875 
Q 34.671875 45.796875 27.984375 45.796875 
Q 21.921875 45.796875 17.796875 41.75 
Q 13.671875 37.703125 13.234375 30.90625 
z
" id="ArialMT-101"/>
      <path id="ArialMT-32"/>
      <path d="M 28.171875 0 
L 0.4375 71.578125 
L 10.6875 71.578125 
L 29.296875 19.578125 
Q 31.546875 13.328125 33.0625 7.859375 
Q 34.71875 13.71875 36.921875 19.578125 
L 56.25 71.578125 
L 65.921875 71.578125 
L 37.890625 0 
z
" id="ArialMT-86"/>
      <path d="M 3.328125 25.921875 
Q 3.328125 40.328125 11.328125 47.265625 
Q 18.015625 53.03125 27.640625 53.03125 
Q 38.328125 53.03125 45.109375 46.015625 
Q 51.90625 39.015625 51.90625 26.65625 
Q 51.90625 16.65625 48.90625 10.90625 
Q 45.90625 5.171875 40.15625 2 
Q 34.421875 -1.171875 27.640625 -1.171875 
Q 16.75 -1.171875 10.03125 5.8125 
Q 3.328125 12.796875 3.328125 25.921875 
z
M 12.359375 25.921875 
Q 12.359375 15.96875 16.703125 11.015625 
Q 21.046875 6.0625 27.640625 6.0625 
Q 34.1875 6.0625 38.53125 11.03125 
Q 42.875 16.015625 42.875 26.21875 
Q 42.875 35.84375 38.5 40.796875 
Q 34.125 45.75 27.640625 45.75 
Q 21.046875 45.75 16.703125 40.8125 
Q 12.359375 35.890625 12.359375 25.921875 
z
" id="ArialMT-111"/>
      <path d="M 6.390625 0 
L 6.390625 71.578125 
L 15.1875 71.578125 
L 15.1875 0 
z
" id="ArialMT-108"/>
      <path d="M 4.984375 -4.296875 
L 13.53125 -5.5625 
Q 14.0625 -9.515625 16.5 -11.328125 
Q 19.78125 -13.765625 25.4375 -13.765625 
Q 31.546875 -13.765625 34.859375 -11.328125 
Q 38.1875 -8.890625 39.359375 -4.5 
Q 40.046875 -1.8125 39.984375 6.78125 
Q 34.234375 0 25.640625 0 
Q 14.9375 0 9.078125 7.71875 
Q 3.21875 15.4375 3.21875 26.21875 
Q 3.21875 33.640625 5.90625 39.90625 
Q 8.59375 46.1875 13.6875 49.609375 
Q 18.796875 53.03125 25.6875 53.03125 
Q 34.859375 53.03125 40.828125 45.609375 
L 40.828125 51.859375 
L 48.921875 51.859375 
L 48.921875 7.03125 
Q 48.921875 -5.078125 46.453125 -10.125 
Q 44 -15.1875 38.640625 -18.109375 
Q 33.296875 -21.046875 25.484375 -21.046875 
Q 16.21875 -21.046875 10.5 -16.875 
Q 4.78125 -12.703125 4.984375 -4.296875 
z
M 12.25 26.859375 
Q 12.25 16.65625 16.296875 11.96875 
Q 20.359375 7.28125 26.46875 7.28125 
Q 32.515625 7.28125 36.609375 11.9375 
Q 40.71875 16.609375 40.71875 26.5625 
Q 40.71875 36.078125 36.5 40.90625 
Q 32.28125 45.75 26.3125 45.75 
Q 20.453125 45.75 16.34375 40.984375 
Q 12.25 36.234375 12.25 26.859375 
z
" id="ArialMT-103"/>
      <path d="M 8.890625 0 
L 8.890625 10.015625 
L 18.890625 10.015625 
L 18.890625 0 
Q 18.890625 -5.515625 16.9375 -8.90625 
Q 14.984375 -12.3125 10.75 -14.15625 
L 8.296875 -10.40625 
Q 11.078125 -9.1875 12.390625 -6.8125 
Q 13.71875 -4.4375 13.875 0 
z
" id="ArialMT-44"/>
      <path d="M 4.5 23 
L 13.421875 23.78125 
Q 14.0625 18.40625 16.375 14.96875 
Q 18.703125 11.53125 23.578125 9.40625 
Q 28.46875 7.28125 34.578125 7.28125 
Q 39.984375 7.28125 44.140625 8.890625 
Q 48.296875 10.5 50.3125 13.296875 
Q 52.34375 16.109375 52.34375 19.4375 
Q 52.34375 22.796875 50.390625 25.3125 
Q 48.4375 27.828125 43.953125 29.546875 
Q 41.0625 30.671875 31.203125 33.03125 
Q 21.34375 35.40625 17.390625 37.5 
Q 12.25 40.1875 9.734375 44.15625 
Q 7.234375 48.140625 7.234375 53.078125 
Q 7.234375 58.5 10.296875 63.203125 
Q 13.375 67.921875 19.28125 70.359375 
Q 25.203125 72.796875 32.421875 72.796875 
Q 40.375 72.796875 46.453125 70.234375 
Q 52.546875 67.671875 55.8125 62.6875 
Q 59.078125 57.71875 59.328125 51.421875 
L 50.25 50.734375 
Q 49.515625 57.515625 45.28125 60.984375 
Q 41.0625 64.453125 32.8125 64.453125 
Q 24.21875 64.453125 20.28125 61.296875 
Q 16.359375 58.15625 16.359375 53.71875 
Q 16.359375 49.859375 19.140625 47.359375 
Q 21.875 44.875 33.421875 42.265625 
Q 44.96875 39.65625 49.265625 37.703125 
Q 55.515625 34.8125 58.484375 30.390625 
Q 61.46875 25.984375 61.46875 20.21875 
Q 61.46875 14.5 58.203125 9.4375 
Q 54.9375 4.390625 48.796875 1.578125 
Q 42.671875 -1.21875 35.015625 -1.21875 
Q 25.296875 -1.21875 18.71875 1.609375 
Q 12.15625 4.4375 8.421875 10.125 
Q 4.6875 15.828125 4.5 23 
z
" id="ArialMT-83"/>
      <path d="M 6.78125 -19.875 
L 6.78125 71.578125 
L 26.171875 71.578125 
L 26.171875 64.3125 
L 15.578125 64.3125 
L 15.578125 -12.59375 
L 26.171875 -12.59375 
L 26.171875 -19.875 
z
" id="ArialMT-91"/>
      <path d="M 21.296875 -19.875 
L 1.90625 -19.875 
L 1.90625 -12.59375 
L 12.5 -12.59375 
L 12.5 64.3125 
L 1.90625 64.3125 
L 1.90625 71.578125 
L 21.296875 71.578125 
z
" id="ArialMT-93"/>
     </defs>
     <g transform="translate(95.375714 233.787969)scale(0.18 -0.18)">
      <use transform="translate(0 0.203125)" xlink:href="#ArialMT-71"/>
      <use transform="translate(77.783203 0.203125)" xlink:href="#ArialMT-97"/>
      <use transform="translate(133.398438 0.203125)" xlink:href="#ArialMT-116"/>
      <use transform="translate(161.181641 0.203125)" xlink:href="#ArialMT-101"/>
      <use transform="translate(216.796875 0.203125)" xlink:href="#ArialMT-32"/>
      <use transform="translate(244.580078 0.203125)" xlink:href="#ArialMT-86"/>
      <use transform="translate(311.279297 0.203125)" xlink:href="#ArialMT-111"/>
      <use transform="translate(366.894531 0.203125)" xlink:href="#ArialMT-108"/>
      <use transform="translate(389.111328 0.203125)" xlink:href="#ArialMT-116"/>
      <use transform="translate(416.894531 0.203125)" xlink:href="#ArialMT-97"/>
      <use transform="translate(472.509766 0.203125)" xlink:href="#ArialMT-103"/>
      <use transform="translate(528.125 0.203125)" xlink:href="#ArialMT-101"/>
      <use transform="translate(583.740234 0.203125)" xlink:href="#ArialMT-44"/>
      <use transform="translate(611.523438 0.203125)" xlink:href="#ArialMT-32"/>
      <use transform="translate(639.306641 0.203125)" xlink:href="#ArialMT-32"/>
      <use transform="translate(667.089844 0.203125)" xlink:href="#ArialMT-86"/>
      <use transform="translate(735.531406 -29.665625)scale(0.7)" xlink:href="#ArialMT-71"/>
      <use transform="translate(789.979648 -29.665625)scale(0.7)" xlink:href="#ArialMT-83"/>
      <use transform="translate(841.647227 0.203125)" xlink:href="#ArialMT-32"/>
      <use transform="translate(869.43043 0.203125)" xlink:href="#ArialMT-32"/>
      <use transform="translate(897.213633 0.203125)" xlink:href="#ArialMT-91"/>
      <use transform="translate(924.996836 0.203125)" xlink:href="#ArialMT-86"/>
      <use transform="translate(991.696055 0.203125)" xlink:href="#ArialMT-93"/>
     </g>
    </g>
   </g>
   <g id="matplotlib.axis_2">
    <g id="ytick_1">
     <g id="line2d_4">
      <defs>
       <path d="M 0 0 
L -3.5 0 
" id="m188f0fec34" style="stroke:#000000;stroke-width:0.8;"/>
      </defs>
      <g>
       <use style="stroke:#000000;stroke-width:0.8;" x="80.89" xlink:href="#m188f0fec34" y="56.655874"/>
      </g>
     </g>
     <g id="text_5">
      <!-- $\mathdefault{10^{2}}$ -->
      <defs>
       <path d="M 37.25 0 
L 28.46875 0 
L 28.46875 56 
Q 25.296875 52.984375 20.140625 49.953125 
Q 14.984375 46.921875 10.890625 45.40625 
L 10.890625 53.90625 
Q 18.265625 57.375 23.78125 62.296875 
Q 29.296875 67.234375 31.59375 71.875 
L 37.25 71.875 
z
" id="ArialMT-49"/>
      </defs>
      <g transform="translate(50.34 64.390249)scale(0.15 -0.15)">
       <use transform="translate(0 0.99375)" xlink:href="#ArialMT-49"/>
       <use transform="translate(55.615234 0.99375)" xlink:href="#ArialMT-48"/>
       <use transform="translate(112.972813 70.6875)scale(0.7)" xlink:href="#ArialMT-50"/>
      </g>
     </g>
    </g>
    <g id="ytick_2">
     <g id="line2d_5">
      <defs>
       <path d="M 0 0 
L -2 0 
" id="m750dd2e51e" style="stroke:#000000;stroke-width:0.6;"/>
      </defs>
      <g>
       <use style="stroke:#000000;stroke-width:0.6;" x="80.89" xlink:href="#m750dd2e51e" y="166.574305"/>
      </g>
     </g>
     <g id="text_6">
      <!-- $\mathdefault{4\times10^{1}}$ -->
      <defs>
       <path d="M 32.328125 0 
L 32.328125 17.140625 
L 1.265625 17.140625 
L 1.265625 25.203125 
L 33.9375 71.578125 
L 41.109375 71.578125 
L 41.109375 25.203125 
L 50.78125 25.203125 
L 50.78125 17.140625 
L 41.109375 17.140625 
L 41.109375 0 
z
M 32.328125 25.203125 
L 32.328125 57.46875 
L 9.90625 25.203125 
z
" id="ArialMT-52"/>
       <path d="M 7.859375 19.96875 
L 23.25 35.359375 
L 7.90625 50.6875 
L 13.875 56.640625 
L 29.203125 41.3125 
L 44.484375 56.59375 
L 50.34375 50.6875 
L 35.109375 35.40625 
L 50.4375 20.0625 
L 44.484375 14.109375 
L 29.15625 29.4375 
L 13.765625 14.0625 
z
" id="ArialMT-215"/>
      </defs>
      <g transform="translate(29.74 174.30868)scale(0.15 -0.15)">
       <use transform="translate(0 0.99375)" xlink:href="#ArialMT-52"/>
       <use transform="translate(72.275391 0.99375)" xlink:href="#ArialMT-215"/>
       <use transform="translate(147.333984 0.99375)" xlink:href="#ArialMT-49"/>
       <use transform="translate(202.949219 0.99375)" xlink:href="#ArialMT-48"/>
       <use transform="translate(260.306797 70.6875)scale(0.7)" xlink:href="#ArialMT-49"/>
      </g>
     </g>
    </g>
    <g id="ytick_3">
     <g id="line2d_6">
      <g>
       <use style="stroke:#000000;stroke-width:0.6;" x="80.89" xlink:href="#m750dd2e51e" y="139.805957"/>
      </g>
     </g>
    </g>
    <g id="ytick_4">
     <g id="line2d_7">
      <g>
       <use style="stroke:#000000;stroke-width:0.6;" x="80.89" xlink:href="#m750dd2e51e" y="117.934625"/>
      </g>
     </g>
     <g id="text_7">
      <!-- $\mathdefault{6\times10^{1}}$ -->
      <defs>
       <path d="M 49.75 54.046875 
L 41.015625 53.375 
Q 39.84375 58.546875 37.703125 60.890625 
Q 34.125 64.65625 28.90625 64.65625 
Q 24.703125 64.65625 21.53125 62.3125 
Q 17.390625 59.28125 14.984375 53.46875 
Q 12.59375 47.65625 12.5 36.921875 
Q 15.671875 41.75 20.265625 44.09375 
Q 24.859375 46.4375 29.890625 46.4375 
Q 38.671875 46.4375 44.84375 39.96875 
Q 51.03125 33.5 51.03125 23.25 
Q 51.03125 16.5 48.125 10.71875 
Q 45.21875 4.9375 40.140625 1.859375 
Q 35.0625 -1.21875 28.609375 -1.21875 
Q 17.625 -1.21875 10.6875 6.859375 
Q 3.765625 14.9375 3.765625 33.5 
Q 3.765625 54.25 11.421875 63.671875 
Q 18.109375 71.875 29.4375 71.875 
Q 37.890625 71.875 43.28125 67.140625 
Q 48.6875 62.40625 49.75 54.046875 
z
M 13.875 23.1875 
Q 13.875 18.65625 15.796875 14.5 
Q 17.71875 10.359375 21.1875 8.171875 
Q 24.65625 6 28.46875 6 
Q 34.03125 6 38.03125 10.484375 
Q 42.046875 14.984375 42.046875 22.703125 
Q 42.046875 30.125 38.078125 34.390625 
Q 34.125 38.671875 28.125 38.671875 
Q 22.171875 38.671875 18.015625 34.390625 
Q 13.875 30.125 13.875 23.1875 
z
" id="ArialMT-54"/>
      </defs>
      <g transform="translate(29.74 125.669)scale(0.15 -0.15)">
       <use transform="translate(0 0.99375)" xlink:href="#ArialMT-54"/>
       <use transform="translate(72.275391 0.99375)" xlink:href="#ArialMT-215"/>
       <use transform="translate(147.333984 0.99375)" xlink:href="#ArialMT-49"/>
       <use transform="translate(202.949219 0.99375)" xlink:href="#ArialMT-48"/>
       <use transform="translate(260.306797 70.6875)scale(0.7)" xlink:href="#ArialMT-49"/>
      </g>
     </g>
    </g>
    <g id="ytick_5">
     <g id="line2d_8">
      <g>
       <use style="stroke:#000000;stroke-width:0.6;" x="80.89" xlink:href="#m750dd2e51e" y="99.442676"/>
      </g>
     </g>
    </g>
    <g id="ytick_6">
     <g id="line2d_9">
      <g>
       <use style="stroke:#000000;stroke-width:0.6;" x="80.89" xlink:href="#m750dd2e51e" y="83.424222"/>
      </g>
     </g>
    </g>
    <g id="ytick_7">
     <g id="line2d_10">
      <g>
       <use style="stroke:#000000;stroke-width:0.6;" x="80.89" xlink:href="#m750dd2e51e" y="69.294944"/>
      </g>
     </g>
    </g>
    <g id="text_8">
     <!-- Drain Current,  $I_D$  [$\mu A$/$\mu m$] -->
     <defs>
      <path d="M 7.71875 0 
L 7.71875 71.578125 
L 32.375 71.578125 
Q 40.71875 71.578125 45.125 70.5625 
Q 51.265625 69.140625 55.609375 65.4375 
Q 61.28125 60.640625 64.078125 53.1875 
Q 66.890625 45.75 66.890625 36.1875 
Q 66.890625 28.03125 64.984375 21.734375 
Q 63.09375 15.4375 60.109375 11.296875 
Q 57.125 7.171875 53.578125 4.796875 
Q 50.046875 2.4375 45.046875 1.21875 
Q 40.046875 0 33.546875 0 
z
M 17.1875 8.453125 
L 32.46875 8.453125 
Q 39.546875 8.453125 43.578125 9.765625 
Q 47.609375 11.078125 50 13.484375 
Q 53.375 16.84375 55.25 22.53125 
Q 57.125 28.21875 57.125 36.328125 
Q 57.125 47.5625 53.4375 53.59375 
Q 49.75 59.625 44.484375 61.671875 
Q 40.671875 63.140625 32.234375 63.140625 
L 17.1875 63.140625 
z
" id="ArialMT-68"/>
      <path d="M 6.5 0 
L 6.5 51.859375 
L 14.40625 51.859375 
L 14.40625 44 
Q 17.4375 49.515625 20 51.265625 
Q 22.5625 53.03125 25.640625 53.03125 
Q 30.078125 53.03125 34.671875 50.203125 
L 31.640625 42.046875 
Q 28.421875 43.953125 25.203125 43.953125 
Q 22.3125 43.953125 20.015625 42.21875 
Q 17.71875 40.484375 16.75 37.40625 
Q 15.28125 32.71875 15.28125 27.15625 
L 15.28125 0 
z
" id="ArialMT-114"/>
      <path d="M 6.640625 61.46875 
L 6.640625 71.578125 
L 15.4375 71.578125 
L 15.4375 61.46875 
z
M 6.640625 0 
L 6.640625 51.859375 
L 15.4375 51.859375 
L 15.4375 0 
z
" id="ArialMT-105"/>
      <path d="M 6.59375 0 
L 6.59375 51.859375 
L 14.5 51.859375 
L 14.5 44.484375 
Q 20.21875 53.03125 31 53.03125 
Q 35.6875 53.03125 39.625 51.34375 
Q 43.5625 49.65625 45.515625 46.921875 
Q 47.46875 44.1875 48.25 40.4375 
Q 48.734375 37.984375 48.734375 31.890625 
L 48.734375 0 
L 39.9375 0 
L 39.9375 31.546875 
Q 39.9375 36.921875 38.90625 39.578125 
Q 37.890625 42.234375 35.28125 43.8125 
Q 32.671875 45.40625 29.15625 45.40625 
Q 23.53125 45.40625 19.453125 41.84375 
Q 15.375 38.28125 15.375 28.328125 
L 15.375 0 
z
" id="ArialMT-110"/>
      <path d="M 58.796875 25.09375 
L 68.265625 22.703125 
Q 65.28125 11.03125 57.546875 4.90625 
Q 49.8125 -1.21875 38.625 -1.21875 
Q 27.046875 -1.21875 19.796875 3.484375 
Q 12.546875 8.203125 8.765625 17.140625 
Q 4.984375 26.078125 4.984375 36.328125 
Q 4.984375 47.515625 9.25 55.828125 
Q 13.53125 64.15625 21.40625 68.46875 
Q 29.296875 72.796875 38.765625 72.796875 
Q 49.515625 72.796875 56.828125 67.328125 
Q 64.15625 61.859375 67.046875 51.953125 
L 57.71875 49.75 
Q 55.21875 57.5625 50.484375 61.125 
Q 45.75 64.703125 38.578125 64.703125 
Q 30.328125 64.703125 24.78125 60.734375 
Q 19.234375 56.78125 16.984375 50.109375 
Q 14.75 43.453125 14.75 36.375 
Q 14.75 27.25 17.40625 20.4375 
Q 20.0625 13.625 25.671875 10.25 
Q 31.296875 6.890625 37.84375 6.890625 
Q 45.796875 6.890625 51.3125 11.46875 
Q 56.84375 16.0625 58.796875 25.09375 
z
" id="ArialMT-67"/>
      <path d="M 40.578125 0 
L 40.578125 7.625 
Q 34.515625 -1.171875 24.125 -1.171875 
Q 19.53125 -1.171875 15.546875 0.578125 
Q 11.578125 2.34375 9.640625 5 
Q 7.71875 7.671875 6.9375 11.53125 
Q 6.390625 14.109375 6.390625 19.734375 
L 6.390625 51.859375 
L 15.1875 51.859375 
L 15.1875 23.09375 
Q 15.1875 16.21875 15.71875 13.8125 
Q 16.546875 10.359375 19.234375 8.375 
Q 21.921875 6.390625 25.875 6.390625 
Q 29.828125 6.390625 33.296875 8.421875 
Q 36.765625 10.453125 38.203125 13.9375 
Q 39.65625 17.4375 39.65625 24.078125 
L 39.65625 51.859375 
L 48.4375 51.859375 
L 48.4375 0 
z
" id="ArialMT-117"/>
      <path d="M 9.328125 0 
L 9.328125 71.578125 
L 18.796875 71.578125 
L 18.796875 0 
z
" id="ArialMT-73"/>
      <path d="M 49.703125 51.859375 
L 49.703125 0 
L 41.84375 0 
L 41.84375 6.15625 
Q 39.3125 2.25 36.8125 0.78125 
Q 33.40625 -1.21875 28.859375 -1.21875 
Q 24.8125 -1.21875 21.6875 0.390625 
Q 19.34375 1.609375 16.5 5.21875 
L 16.5 -19.875 
L 7.8125 -19.875 
L 7.8125 51.859375 
L 16.5 51.859375 
L 16.5 29.890625 
Q 16.5 17.921875 17.765625 14.375 
Q 19.046875 10.84375 21.890625 8.78125 
Q 24.75 6.734375 28.46875 6.734375 
Q 32.375 6.734375 35.453125 8.875 
Q 38.53125 11.03125 39.796875 14.421875 
Q 41.0625 17.828125 41.0625 29.734375 
L 41.0625 51.859375 
z
" id="ArialMT-956"/>
      <path d="M -0.140625 0 
L 27.34375 71.578125 
L 37.546875 71.578125 
L 66.84375 0 
L 56.0625 0 
L 47.703125 21.6875 
L 17.78125 21.6875 
L 9.90625 0 
z
M 20.515625 29.390625 
L 44.78125 29.390625 
L 37.3125 49.21875 
Q 33.890625 58.25 32.234375 64.0625 
Q 30.859375 57.171875 28.375 50.390625 
z
" id="ArialMT-65"/>
      <path d="M 0 -1.21875 
L 20.75 72.796875 
L 27.78125 72.796875 
L 7.078125 -1.21875 
z
" id="ArialMT-47"/>
      <path d="M 6.59375 0 
L 6.59375 51.859375 
L 14.453125 51.859375 
L 14.453125 44.578125 
Q 16.890625 48.390625 20.9375 50.703125 
Q 25 53.03125 30.171875 53.03125 
Q 35.9375 53.03125 39.625 50.640625 
Q 43.3125 48.25 44.828125 43.953125 
Q 50.984375 53.03125 60.84375 53.03125 
Q 68.5625 53.03125 72.703125 48.75 
Q 76.859375 44.484375 76.859375 35.59375 
L 76.859375 0 
L 68.109375 0 
L 68.109375 32.671875 
Q 68.109375 37.9375 67.25 40.25 
Q 66.40625 42.578125 64.15625 43.984375 
Q 61.921875 45.40625 58.890625 45.40625 
Q 53.421875 45.40625 49.796875 41.765625 
Q 46.1875 38.140625 46.1875 30.125 
L 46.1875 0 
L 37.40625 0 
L 37.40625 33.6875 
Q 37.40625 39.546875 35.25 42.46875 
Q 33.109375 45.40625 28.21875 45.40625 
Q 24.515625 45.40625 21.359375 43.453125 
Q 18.21875 41.5 16.796875 37.734375 
Q 15.375 33.984375 15.375 26.90625 
L 15.375 0 
z
" id="ArialMT-109"/>
     </defs>
     <g transform="translate(20.34 218.34)rotate(-90)scale(0.18 -0.18)">
      <use transform="translate(0 0.203125)" xlink:href="#ArialMT-68"/>
      <use transform="translate(72.216797 0.203125)" xlink:href="#ArialMT-114"/>
      <use transform="translate(105.517578 0.203125)" xlink:href="#ArialMT-97"/>
      <use transform="translate(161.132812 0.203125)" xlink:href="#ArialMT-105"/>
      <use transform="translate(183.349609 0.203125)" xlink:href="#ArialMT-110"/>
      <use transform="translate(238.964844 0.203125)" xlink:href="#ArialMT-32"/>
      <use transform="translate(266.748047 0.203125)" xlink:href="#ArialMT-67"/>
      <use transform="translate(338.964844 0.203125)" xlink:href="#ArialMT-117"/>
      <use transform="translate(394.580078 0.203125)" xlink:href="#ArialMT-114"/>
      <use transform="translate(427.880859 0.203125)" xlink:href="#ArialMT-114"/>
      <use transform="translate(461.181641 0.203125)" xlink:href="#ArialMT-101"/>
      <use transform="translate(516.796875 0.203125)" xlink:href="#ArialMT-110"/>
      <use transform="translate(572.412109 0.203125)" xlink:href="#ArialMT-116"/>
      <use transform="translate(600.195312 0.203125)" xlink:href="#ArialMT-44"/>
      <use transform="translate(627.978516 0.203125)" xlink:href="#ArialMT-32"/>
      <use transform="translate(655.761719 0.203125)" xlink:href="#ArialMT-32"/>
      <use transform="translate(683.544922 0.203125)" xlink:href="#ArialMT-73"/>
      <use transform="translate(713.070469 -29.665625)scale(0.7)" xlink:href="#ArialMT-68"/>
      <use transform="translate(768.600352 0.203125)" xlink:href="#ArialMT-32"/>
      <use transform="translate(796.383555 0.203125)" xlink:href="#ArialMT-32"/>
      <use transform="translate(824.166758 0.203125)" xlink:href="#ArialMT-91"/>
      <use transform="translate(851.949961 0.203125)" xlink:href="#ArialMT-956"/>
      <use transform="translate(909.567148 0.203125)" xlink:href="#ArialMT-65"/>
      <use transform="translate(976.266367 0.203125)" xlink:href="#ArialMT-47"/>
      <use transform="translate(1004.04957 0.203125)" xlink:href="#ArialMT-956"/>
      <use transform="translate(1061.666758 0.203125)" xlink:href="#ArialMT-109"/>
      <use transform="translate(1144.967539 0.203125)" xlink:href="#ArialMT-93"/>
     </g>
    </g>
   </g>
   <g id="line2d_11">
    <path clip-path="url(#pfaeb0b2fc8)" d="M 90.552338 187.188233 
L 95.384739 188.085274 
L 100.214099 188.146457 
L 105.046076 188.091971 
L 109.87657 188.237649 
L 114.706653 188.37 
L 119.538792 188.159948 
L 124.368958 187.287607 
L 129.200092 187.297397 
L 134.03107 186.98571 
L 138.862563 186.424691 
L 143.693541 185.725748 
L 148.525845 185.087161 
L 153.355016 182.978804 
L 158.187355 181.725691 
L 163.020311 178.856094 
L 167.850441 176.185065 
L 172.683071 172.430945 
L 177.513571 168.119153 
L 182.345108 162.684637 
L 187.17667 157.267629 
L 192.00794 151.003522 
L 196.838354 144.574759 
L 201.670794 137.091041 
L 206.502218 130.466118 
L 211.334306 123.629288 
L 216.165917 116.61892 
L 220.996981 109.390743 
L 225.828021 102.918446 
L 230.65892 96.602473 
L 235.491791 90.02795 
L 240.321764 83.966612 
L 245.152829 78.222146 
L 249.984097 72.359989 
L 254.814305 66.798859 
L 259.646508 61.509642 
L 264.475066 56.080504 
L 269.305555 50.832942 
L 274.137542 45.865883 
L 278.96681 41.38523 
L 283.799091 37.17 
L 283.799063 37.327154 
L 278.966828 42.880166 
L 274.13756 48.624091 
L 269.305555 54.396413 
L 264.475094 60.142764 
L 259.646517 66.20919 
L 254.814365 72.868456 
L 249.984101 79.643954 
L 245.152889 86.451128 
L 240.321824 93.673821 
L 235.491837 100.53428 
L 230.65892 108.25586 
L 225.828053 114.738246 
L 220.996965 122.441469 
L 216.165921 129.412782 
L 211.334333 136.43786 
L 206.502199 143.404951 
L 201.670798 150.490095 
L 196.838398 156.276973 
L 192.00795 162.662237 
L 187.174418 167.552974 
L 182.345137 172.464379 
L 177.513556 176.090456 
L 172.683106 178.256291 
L 167.850462 181.420599 
L 163.0203 182.54506 
L 158.187362 183.767868 
L 153.35506 184.552497 
L 148.525799 185.517703 
L 143.693573 186.282625 
L 138.862586 186.696285 
L 134.03106 186.828109 
L 129.200152 186.652192 
L 124.368963 186.808941 
L 119.538796 186.250084 
L 114.706704 186.328975 
L 109.876588 186.527892 
L 105.046085 186.218632 
L 100.214108 186.544605 
L 95.384739 186.620544 
L 90.552384 186.679474 
" style="fill:none;stroke:#023eff;stroke-linecap:square;stroke-width:2;"/>
   </g>
   <g id="patch_3">
    <path d="M 80.89 195.93 
L 80.89 29.61 
" style="fill:none;stroke:#000000;stroke-linecap:square;stroke-linejoin:miter;stroke-width:0.8;"/>
   </g>
   <g id="patch_4">
    <path d="M 293.461429 195.93 
L 293.461429 29.61 
" style="fill:none;stroke:#000000;stroke-linecap:square;stroke-linejoin:miter;stroke-width:0.8;"/>
   </g>
   <g id="patch_5">
    <path d="M 80.89 195.93 
L 293.461429 195.93 
" style="fill:none;stroke:#000000;stroke-linecap:square;stroke-linejoin:miter;stroke-width:0.8;"/>
   </g>
   <g id="patch_6">
    <path d="M 80.89 29.61 
L 293.461429 29.61 
" style="fill:none;stroke:#000000;stroke-linecap:square;stroke-linejoin:miter;stroke-width:0.8;"/>
   </g>
   <g id="text_9">
    <!-- $V_{DS}$ = 1.0 V -->
    <defs>
     <path d="M 52.828125 42.09375 
L 5.5625 42.09375 
L 5.5625 50.296875 
L 52.828125 50.296875 
z
M 52.828125 20.359375 
L 5.5625 20.359375 
L 5.5625 28.5625 
L 52.828125 28.5625 
z
" id="ArialMT-61"/>
     <path d="M 9.078125 0 
L 9.078125 10.015625 
L 19.09375 10.015625 
L 19.09375 0 
z
" id="ArialMT-46"/>
    </defs>
    <g transform="translate(91.518571 54.558)scale(0.18 -0.18)">
     <use transform="translate(0 0.125)" xlink:href="#ArialMT-86"/>
     <use transform="translate(68.441563 -29.74375)scale(0.7)" xlink:href="#ArialMT-68"/>
     <use transform="translate(118.99332 -29.74375)scale(0.7)" xlink:href="#ArialMT-83"/>
     <use transform="translate(170.660898 0.125)" xlink:href="#ArialMT-32"/>
     <use transform="translate(198.444102 0.125)" xlink:href="#ArialMT-61"/>
     <use transform="translate(256.842539 0.125)" xlink:href="#ArialMT-32"/>
     <use transform="translate(284.625742 0.125)" xlink:href="#ArialMT-49"/>
     <use transform="translate(340.240977 0.125)" xlink:href="#ArialMT-46"/>
     <use transform="translate(368.02418 0.125)" xlink:href="#ArialMT-48"/>
     <use transform="translate(423.639414 0.125)" xlink:href="#ArialMT-32"/>
     <use transform="translate(451.422617 0.125)" xlink:href="#ArialMT-86"/>
    </g>
   </g>
   <g id="legend_1">
    <g id="line2d_12">
     <path d="M 183.345324 180.205043 
L 213.333324 180.205043 
" style="fill:none;stroke:#023eff;stroke-linecap:square;stroke-width:2;"/>
    </g>
    <g id="line2d_13"/>
    <g id="text_10">
     <!-- 100 nm -->
     <g transform="translate(225.328524 185.452943)scale(0.14994 -0.14994)">
      <use xlink:href="#ArialMT-49"/>
      <use x="55.615234" xlink:href="#ArialMT-48"/>
      <use x="111.230469" xlink:href="#ArialMT-48"/>
      <use x="166.845703" xlink:href="#ArialMT-32"/>
      <use x="194.628906" xlink:href="#ArialMT-110"/>
      <use x="250.244141" xlink:href="#ArialMT-109"/>
     </g>
    </g>
   </g>
  </g>
  <g id="axes_2">
   <g id="patch_7">
    <path d="M 421.004286 195.93 
L 633.575714 195.93 
L 633.575714 29.61 
L 421.004286 29.61 
z
" style="fill:none;"/>
   </g>
   <g id="matplotlib.axis_3">
    <g id="xtick_4">
     <g id="line2d_14">
      <g>
       <use style="stroke:#000000;stroke-width:0.8;" x="430.666623" xlink:href="#me95492e71c" y="195.93"/>
      </g>
     </g>
     <g id="text_11">
      <!-- −5 -->
      <defs>
       <path d="M 4.15625 18.75 
L 13.375 19.53125 
Q 14.40625 12.796875 18.140625 9.390625 
Q 21.875 6 27.15625 6 
Q 33.5 6 37.890625 10.78125 
Q 42.28125 15.578125 42.28125 23.484375 
Q 42.28125 31 38.0625 35.34375 
Q 33.84375 39.703125 27 39.703125 
Q 22.75 39.703125 19.328125 37.765625 
Q 15.921875 35.84375 13.96875 32.765625 
L 5.71875 33.84375 
L 12.640625 70.609375 
L 48.25 70.609375 
L 48.25 62.203125 
L 19.671875 62.203125 
L 15.828125 42.96875 
Q 22.265625 47.46875 29.34375 47.46875 
Q 38.71875 47.46875 45.15625 40.96875 
Q 51.609375 34.46875 51.609375 24.265625 
Q 51.609375 14.546875 45.953125 7.46875 
Q 39.0625 -1.21875 27.15625 -1.21875 
Q 17.390625 -1.21875 11.203125 4.25 
Q 5.03125 9.71875 4.15625 18.75 
z
" id="ArialMT-53"/>
      </defs>
      <g transform="translate(422.115452 213.666719)scale(0.15 -0.15)">
       <use xlink:href="#ArialMT-8722"/>
       <use x="58.398438" xlink:href="#ArialMT-53"/>
      </g>
     </g>
    </g>
    <g id="xtick_5">
     <g id="line2d_15">
      <g>
       <use style="stroke:#000000;stroke-width:0.8;" x="527.29" xlink:href="#me95492e71c" y="195.93"/>
      </g>
     </g>
     <g id="text_12">
      <!-- 0 -->
      <g transform="translate(523.119297 213.666719)scale(0.15 -0.15)">
       <use xlink:href="#ArialMT-48"/>
      </g>
     </g>
    </g>
    <g id="xtick_6">
     <g id="line2d_16">
      <g>
       <use style="stroke:#000000;stroke-width:0.8;" x="623.913377" xlink:href="#me95492e71c" y="195.93"/>
      </g>
     </g>
     <g id="text_13">
      <!-- 5 -->
      <g transform="translate(619.742673 213.666719)scale(0.15 -0.15)">
       <use xlink:href="#ArialMT-53"/>
      </g>
     </g>
    </g>
    <g id="text_14">
     <!-- Drain Voltage,  $V_{DS}$  [V] -->
     <g transform="translate(433.87 233.607969)scale(0.18 -0.18)">
      <use transform="translate(0 0.421875)" xlink:href="#ArialMT-68"/>
      <use transform="translate(72.216797 0.421875)" xlink:href="#ArialMT-114"/>
      <use transform="translate(105.517578 0.421875)" xlink:href="#ArialMT-97"/>
      <use transform="translate(161.132812 0.421875)" xlink:href="#ArialMT-105"/>
      <use transform="translate(183.349609 0.421875)" xlink:href="#ArialMT-110"/>
      <use transform="translate(238.964844 0.421875)" xlink:href="#ArialMT-32"/>
      <use transform="translate(266.748047 0.421875)" xlink:href="#ArialMT-86"/>
      <use transform="translate(333.447266 0.421875)" xlink:href="#ArialMT-111"/>
      <use transform="translate(389.0625 0.421875)" xlink:href="#ArialMT-108"/>
      <use transform="translate(411.279297 0.421875)" xlink:href="#ArialMT-116"/>
      <use transform="translate(439.0625 0.421875)" xlink:href="#ArialMT-97"/>
      <use transform="translate(494.677734 0.421875)" xlink:href="#ArialMT-103"/>
      <use transform="translate(550.292969 0.421875)" xlink:href="#ArialMT-101"/>
      <use transform="translate(605.908203 0.421875)" xlink:href="#ArialMT-44"/>
      <use transform="translate(633.691406 0.421875)" xlink:href="#ArialMT-32"/>
      <use transform="translate(661.474609 0.421875)" xlink:href="#ArialMT-32"/>
      <use transform="translate(689.257812 0.421875)" xlink:href="#ArialMT-86"/>
      <use transform="translate(757.699375 -29.446875)scale(0.7)" xlink:href="#ArialMT-68"/>
      <use transform="translate(808.251133 -29.446875)scale(0.7)" xlink:href="#ArialMT-83"/>
      <use transform="translate(859.918711 0.421875)" xlink:href="#ArialMT-32"/>
      <use transform="translate(887.701914 0.421875)" xlink:href="#ArialMT-32"/>
      <use transform="translate(915.485117 0.421875)" xlink:href="#ArialMT-91"/>
      <use transform="translate(943.26832 0.421875)" xlink:href="#ArialMT-86"/>
      <use transform="translate(1009.967539 0.421875)" xlink:href="#ArialMT-93"/>
     </g>
    </g>
   </g>
   <g id="matplotlib.axis_4">
    <g id="ytick_8">
     <g id="line2d_17">
      <g>
       <use style="stroke:#000000;stroke-width:0.8;" x="421.004286" xlink:href="#m188f0fec34" y="185.504921"/>
      </g>
     </g>
     <g id="text_15">
      <!-- −800 -->
      <defs>
       <path d="M 17.671875 38.8125 
Q 12.203125 40.828125 9.5625 44.53125 
Q 6.9375 48.25 6.9375 53.421875 
Q 6.9375 61.234375 12.546875 66.546875 
Q 18.171875 71.875 27.484375 71.875 
Q 36.859375 71.875 42.578125 66.421875 
Q 48.296875 60.984375 48.296875 53.171875 
Q 48.296875 48.1875 45.671875 44.5 
Q 43.0625 40.828125 37.75 38.8125 
Q 44.34375 36.671875 47.78125 31.875 
Q 51.21875 27.09375 51.21875 20.453125 
Q 51.21875 11.28125 44.71875 5.03125 
Q 38.234375 -1.21875 27.640625 -1.21875 
Q 17.046875 -1.21875 10.546875 5.046875 
Q 4.046875 11.328125 4.046875 20.703125 
Q 4.046875 27.6875 7.59375 32.390625 
Q 11.140625 37.109375 17.671875 38.8125 
z
M 15.921875 53.71875 
Q 15.921875 48.640625 19.1875 45.40625 
Q 22.46875 42.1875 27.6875 42.1875 
Q 32.765625 42.1875 36.015625 45.375 
Q 39.265625 48.578125 39.265625 53.21875 
Q 39.265625 58.0625 35.90625 61.359375 
Q 32.5625 64.65625 27.59375 64.65625 
Q 22.5625 64.65625 19.234375 61.421875 
Q 15.921875 58.203125 15.921875 53.71875 
z
M 13.09375 20.65625 
Q 13.09375 16.890625 14.875 13.375 
Q 16.65625 9.859375 20.171875 7.921875 
Q 23.6875 6 27.734375 6 
Q 34.03125 6 38.125 10.046875 
Q 42.234375 14.109375 42.234375 20.359375 
Q 42.234375 26.703125 38.015625 30.859375 
Q 33.796875 35.015625 27.4375 35.015625 
Q 21.234375 35.015625 17.15625 30.90625 
Q 13.09375 26.8125 13.09375 20.65625 
z
" id="ArialMT-56"/>
      </defs>
      <g transform="translate(380.219129 190.87328)scale(0.15 -0.15)">
       <use xlink:href="#ArialMT-8722"/>
       <use x="58.398438" xlink:href="#ArialMT-56"/>
       <use x="114.013672" xlink:href="#ArialMT-48"/>
       <use x="169.628906" xlink:href="#ArialMT-48"/>
      </g>
     </g>
    </g>
    <g id="ytick_9">
     <g id="line2d_18">
      <g>
       <use style="stroke:#000000;stroke-width:0.8;" x="421.004286" xlink:href="#m188f0fec34" y="148.821301"/>
      </g>
     </g>
     <g id="text_16">
      <!-- −400 -->
      <g transform="translate(380.219129 154.18966)scale(0.15 -0.15)">
       <use xlink:href="#ArialMT-8722"/>
       <use x="58.398438" xlink:href="#ArialMT-52"/>
       <use x="114.013672" xlink:href="#ArialMT-48"/>
       <use x="169.628906" xlink:href="#ArialMT-48"/>
      </g>
     </g>
    </g>
    <g id="ytick_10">
     <g id="line2d_19">
      <g>
       <use style="stroke:#000000;stroke-width:0.8;" x="421.004286" xlink:href="#m188f0fec34" y="112.13768"/>
      </g>
     </g>
     <g id="text_17">
      <!-- 0 -->
      <g transform="translate(405.662879 117.50604)scale(0.15 -0.15)">
       <use xlink:href="#ArialMT-48"/>
      </g>
     </g>
    </g>
    <g id="ytick_11">
     <g id="line2d_20">
      <g>
       <use style="stroke:#000000;stroke-width:0.8;" x="421.004286" xlink:href="#m188f0fec34" y="75.45406"/>
      </g>
     </g>
     <g id="text_18">
      <!-- 400 -->
      <g transform="translate(388.980067 80.82242)scale(0.15 -0.15)">
       <use xlink:href="#ArialMT-52"/>
       <use x="55.615234" xlink:href="#ArialMT-48"/>
       <use x="111.230469" xlink:href="#ArialMT-48"/>
      </g>
     </g>
    </g>
    <g id="ytick_12">
     <g id="line2d_21">
      <g>
       <use style="stroke:#000000;stroke-width:0.8;" x="421.004286" xlink:href="#m188f0fec34" y="38.77044"/>
      </g>
     </g>
     <g id="text_19">
      <!-- 800 -->
      <g transform="translate(388.980067 44.138799)scale(0.15 -0.15)">
       <use xlink:href="#ArialMT-56"/>
       <use x="55.615234" xlink:href="#ArialMT-48"/>
       <use x="111.230469" xlink:href="#ArialMT-48"/>
      </g>
     </g>
    </g>
    <g id="text_20">
     <!-- Drain Current,  $I_D$  [$\mu A$/$\mu m$] -->
     <g transform="translate(370.819129 218.34)rotate(-90)scale(0.18 -0.18)">
      <use transform="translate(0 0.203125)" xlink:href="#ArialMT-68"/>
      <use transform="translate(72.216797 0.203125)" xlink:href="#ArialMT-114"/>
      <use transform="translate(105.517578 0.203125)" xlink:href="#ArialMT-97"/>
      <use transform="translate(161.132812 0.203125)" xlink:href="#ArialMT-105"/>
      <use transform="translate(183.349609 0.203125)" xlink:href="#ArialMT-110"/>
      <use transform="translate(238.964844 0.203125)" xlink:href="#ArialMT-32"/>
      <use transform="translate(266.748047 0.203125)" xlink:href="#ArialMT-67"/>
      <use transform="translate(338.964844 0.203125)" xlink:href="#ArialMT-117"/>
      <use transform="translate(394.580078 0.203125)" xlink:href="#ArialMT-114"/>
      <use transform="translate(427.880859 0.203125)" xlink:href="#ArialMT-114"/>
      <use transform="translate(461.181641 0.203125)" xlink:href="#ArialMT-101"/>
      <use transform="translate(516.796875 0.203125)" xlink:href="#ArialMT-110"/>
      <use transform="translate(572.412109 0.203125)" xlink:href="#ArialMT-116"/>
      <use transform="translate(600.195312 0.203125)" xlink:href="#ArialMT-44"/>
      <use transform="translate(627.978516 0.203125)" xlink:href="#ArialMT-32"/>
      <use transform="translate(655.761719 0.203125)" xlink:href="#ArialMT-32"/>
      <use transform="translate(683.544922 0.203125)" xlink:href="#ArialMT-73"/>
      <use transform="translate(713.070469 -29.665625)scale(0.7)" xlink:href="#ArialMT-68"/>
      <use transform="translate(768.600352 0.203125)" xlink:href="#ArialMT-32"/>
      <use transform="translate(796.383555 0.203125)" xlink:href="#ArialMT-32"/>
      <use transform="translate(824.166758 0.203125)" xlink:href="#ArialMT-91"/>
      <use transform="translate(851.949961 0.203125)" xlink:href="#ArialMT-956"/>
      <use transform="translate(909.567148 0.203125)" xlink:href="#ArialMT-65"/>
      <use transform="translate(976.266367 0.203125)" xlink:href="#ArialMT-47"/>
      <use transform="translate(1004.04957 0.203125)" xlink:href="#ArialMT-956"/>
      <use transform="translate(1061.666758 0.203125)" xlink:href="#ArialMT-109"/>
      <use transform="translate(1144.967539 0.203125)" xlink:href="#ArialMT-93"/>
     </g>
    </g>
   </g>
   <g id="line2d_22">
    <path clip-path="url(#pf402357582)" d="M 430.666623 188.37 
L 432.599091 185.005176 
L 436.464026 180.899317 
L 442.261429 175.157823 
L 455.788701 163.133463 
L 467.383506 153.467402 
L 473.180909 148.786031 
L 502.167922 125.80525 
L 507.965325 121.569844 
L 511.83026 118.949479 
L 515.695195 116.601114 
L 519.56013 114.654567 
L 523.425065 113.182345 
L 527.29 112.14806 
L 531.154935 111.110854 
L 535.01987 109.672221 
L 538.884805 107.818994 
L 542.74974 105.613283 
L 546.614675 103.156334 
L 552.412078 99.025539 
L 558.209481 94.657794 
L 573.669221 82.553621 
L 583.331558 74.775276 
L 598.791299 62.745324 
L 606.521169 56.417842 
L 610.386104 52.902578 
L 612.318571 50.497658 
L 616.183506 46.784651 
L 618.115974 43.817377 
L 621.980909 40.390277 
L 623.913377 37.671841 
L 623.913377 37.17 
L 606.521169 52.856333 
L 604.588701 54.446921 
L 600.723766 57.822667 
L 569.804286 83.173937 
L 556.277013 94.490376 
L 550.47961 99.18366 
L 544.682208 103.521453 
L 540.817273 106.116347 
L 536.952338 108.383732 
L 533.087403 110.207921 
L 531.154935 110.959554 
L 527.29 112.148826 
L 523.425065 113.334002 
L 521.492597 114.092453 
L 519.56013 114.977358 
L 515.695195 117.085573 
L 511.83026 119.582809 
L 507.965325 122.343289 
L 502.167922 126.891207 
L 488.640649 137.959257 
L 482.843247 142.809002 
L 475.113377 149.36732 
L 471.248442 152.472351 
L 467.383506 155.764785 
L 465.451039 157.212045 
L 451.923766 168.3199 
L 449.991299 170.478485 
L 448.058831 172.101139 
L 446.126364 174.101735 
L 444.193896 176.432919 
L 438.396494 182.0985 
L 434.531558 184.745778 
L 432.599091 185.939435 
L 430.666623 187.692314 
L 430.666623 187.692314 
" style="fill:none;stroke:#023eff;stroke-linecap:square;stroke-width:2;"/>
   </g>
   <g id="line2d_23">
    <path clip-path="url(#pf402357582)" d="M 421.004286 112.13768 
L 633.575714 112.13768 
" style="fill:none;stroke:#808080;stroke-dasharray:0.6,0.99;stroke-dashoffset:0;stroke-width:0.6;"/>
   </g>
   <g id="line2d_24">
    <path clip-path="url(#pf402357582)" d="M 527.29 195.93 
L 527.29 29.61 
" style="fill:none;stroke:#808080;stroke-dasharray:0.6,0.99;stroke-dashoffset:0;stroke-width:0.6;"/>
   </g>
   <g id="patch_8">
    <path d="M 421.004286 195.93 
L 421.004286 29.61 
" style="fill:none;stroke:#000000;stroke-linecap:square;stroke-linejoin:miter;stroke-width:0.8;"/>
   </g>
   <g id="patch_9">
    <path d="M 633.575714 195.93 
L 633.575714 29.61 
" style="fill:none;stroke:#000000;stroke-linecap:square;stroke-linejoin:miter;stroke-width:0.8;"/>
   </g>
   <g id="patch_10">
    <path d="M 421.004286 195.93 
L 633.575714 195.93 
" style="fill:none;stroke:#000000;stroke-linecap:square;stroke-linejoin:miter;stroke-width:0.8;"/>
   </g>
   <g id="patch_11">
    <path d="M 421.004286 29.61 
L 633.575714 29.61 
" style="fill:none;stroke:#000000;stroke-linecap:square;stroke-linejoin:miter;stroke-width:0.8;"/>
   </g>
   <g id="text_21">
    <!-- $V_{GS}$ = 20 V -->
    <g transform="translate(427.381429 54.558)scale(0.18 -0.18)">
     <use transform="translate(0 0.125)" xlink:href="#ArialMT-86"/>
     <use transform="translate(68.441563 -29.74375)scale(0.7)" xlink:href="#ArialMT-71"/>
     <use transform="translate(122.889805 -29.74375)scale(0.7)" xlink:href="#ArialMT-83"/>
     <use transform="translate(174.557383 0.125)" xlink:href="#ArialMT-32"/>
     <use transform="translate(202.340586 0.125)" xlink:href="#ArialMT-61"/>
     <use transform="translate(260.739023 0.125)" xlink:href="#ArialMT-32"/>
     <use transform="translate(288.522227 0.125)" xlink:href="#ArialMT-50"/>
     <use transform="translate(344.137461 0.125)" xlink:href="#ArialMT-48"/>
     <use transform="translate(399.752695 0.125)" xlink:href="#ArialMT-32"/>
     <use transform="translate(427.535898 0.125)" xlink:href="#ArialMT-86"/>
    </g>
   </g>
   <g id="text_22">
    <!-- $I_{D,max}$ = 831 $\mu A / \mu m$ -->
    <defs>
     <path d="M 0.734375 0 
L 19.671875 26.953125 
L 2.15625 51.859375 
L 13.140625 51.859375 
L 21.09375 39.703125 
Q 23.34375 36.234375 24.703125 33.890625 
Q 26.859375 37.109375 28.65625 39.59375 
L 37.40625 51.859375 
L 47.90625 51.859375 
L 29.984375 27.4375 
L 49.265625 0 
L 38.484375 0 
L 27.828125 16.109375 
L 25 20.453125 
L 11.375 0 
z
" id="ArialMT-120"/>
     <path d="M 4.203125 18.890625 
L 12.984375 20.0625 
Q 14.5 12.59375 18.140625 9.296875 
Q 21.78125 6 27 6 
Q 33.203125 6 37.46875 10.296875 
Q 41.75 14.59375 41.75 20.953125 
Q 41.75 27 37.796875 30.921875 
Q 33.84375 34.859375 27.734375 34.859375 
Q 25.25 34.859375 21.53125 33.890625 
L 22.515625 41.609375 
Q 23.390625 41.5 23.921875 41.5 
Q 29.546875 41.5 34.03125 44.421875 
Q 38.53125 47.359375 38.53125 53.46875 
Q 38.53125 58.296875 35.25 61.46875 
Q 31.984375 64.65625 26.8125 64.65625 
Q 21.6875 64.65625 18.265625 61.421875 
Q 14.84375 58.203125 13.875 51.765625 
L 5.078125 53.328125 
Q 6.6875 62.15625 12.390625 67.015625 
Q 18.109375 71.875 26.609375 71.875 
Q 32.46875 71.875 37.390625 69.359375 
Q 42.328125 66.84375 44.9375 62.5 
Q 47.5625 58.15625 47.5625 53.265625 
Q 47.5625 48.640625 45.0625 44.828125 
Q 42.578125 41.015625 37.703125 38.765625 
Q 44.046875 37.3125 47.5625 32.6875 
Q 51.078125 28.078125 51.078125 21.140625 
Q 51.078125 11.765625 44.234375 5.25 
Q 37.40625 -1.265625 26.953125 -1.265625 
Q 17.53125 -1.265625 11.296875 4.34375 
Q 5.078125 9.96875 4.203125 18.890625 
z
" id="ArialMT-51"/>
    </defs>
    <g transform="translate(427.381429 75.348)scale(0.18 -0.18)">
     <use transform="translate(0 0.203125)" xlink:href="#ArialMT-73"/>
     <use transform="translate(29.525547 -29.665625)scale(0.7)" xlink:href="#ArialMT-68"/>
     <use transform="translate(80.077305 -29.665625)scale(0.7)" xlink:href="#ArialMT-44"/>
     <use transform="translate(111.187656 -29.665625)scale(0.7)" xlink:href="#ArialMT-109"/>
     <use transform="translate(169.498203 -29.665625)scale(0.7)" xlink:href="#ArialMT-97"/>
     <use transform="translate(208.428867 -29.665625)scale(0.7)" xlink:href="#ArialMT-120"/>
     <use transform="translate(248.406992 0.203125)" xlink:href="#ArialMT-32"/>
     <use transform="translate(276.190195 0.203125)" xlink:href="#ArialMT-61"/>
     <use transform="translate(334.588633 0.203125)" xlink:href="#ArialMT-32"/>
     <use transform="translate(362.371836 0.203125)" xlink:href="#ArialMT-56"/>
     <use transform="translate(417.98707 0.203125)" xlink:href="#ArialMT-51"/>
     <use transform="translate(473.602305 0.203125)" xlink:href="#ArialMT-49"/>
     <use transform="translate(529.217539 0.203125)" xlink:href="#ArialMT-32"/>
     <use transform="translate(557.000742 0.203125)" xlink:href="#ArialMT-956"/>
     <use transform="translate(614.61793 0.203125)" xlink:href="#ArialMT-65"/>
     <use transform="translate(681.317148 0.203125)" xlink:href="#ArialMT-47"/>
     <use transform="translate(709.100352 0.203125)" xlink:href="#ArialMT-956"/>
     <use transform="translate(766.717539 0.203125)" xlink:href="#ArialMT-109"/>
    </g>
   </g>
   <g id="legend_2">
    <g id="line2d_25">
     <path d="M 523.45961 180.205043 
L 553.44761 180.205043 
" style="fill:none;stroke:#023eff;stroke-linecap:square;stroke-width:2;"/>
    </g>
    <g id="line2d_26"/>
    <g id="text_23">
     <!-- 100 nm -->
     <g transform="translate(565.44281 185.452943)scale(0.14994 -0.14994)">
      <use xlink:href="#ArialMT-49"/>
      <use x="55.615234" xlink:href="#ArialMT-48"/>
      <use x="111.230469" xlink:href="#ArialMT-48"/>
      <use x="166.845703" xlink:href="#ArialMT-32"/>
      <use x="194.628906" xlink:href="#ArialMT-110"/>
      <use x="250.244141" xlink:href="#ArialMT-109"/>
     </g>
    </g>
   </g>
  </g>
  <g id="axes_3">
   <g id="patch_12">
    <path d="M 761.118571 195.93 
L 973.69 195.93 
L 973.69 29.61 
L 761.118571 29.61 
z
" style="fill:none;"/>
   </g>
   <g id="matplotlib.axis_5">
    <g id="xtick_7">
     <g id="line2d_27">
      <g>
       <use style="stroke:#000000;stroke-width:0.8;" x="770.780909" xlink:href="#me95492e71c" y="195.93"/>
      </g>
     </g>
     <g id="text_24">
      <!-- −5 -->
      <g transform="translate(762.229737 213.666719)scale(0.15 -0.15)">
       <use xlink:href="#ArialMT-8722"/>
       <use x="58.398438" xlink:href="#ArialMT-53"/>
      </g>
     </g>
    </g>
    <g id="xtick_8">
     <g id="line2d_28">
      <g>
       <use style="stroke:#000000;stroke-width:0.8;" x="867.404286" xlink:href="#me95492e71c" y="195.93"/>
      </g>
     </g>
     <g id="text_25">
      <!-- 0 -->
      <g transform="translate(863.233583 213.666719)scale(0.15 -0.15)">
       <use xlink:href="#ArialMT-48"/>
      </g>
     </g>
    </g>
    <g id="xtick_9">
     <g id="line2d_29">
      <g>
       <use style="stroke:#000000;stroke-width:0.8;" x="964.027662" xlink:href="#me95492e71c" y="195.93"/>
      </g>
     </g>
     <g id="text_26">
      <!-- 5 -->
      <g transform="translate(959.856959 213.666719)scale(0.15 -0.15)">
       <use xlink:href="#ArialMT-53"/>
      </g>
     </g>
    </g>
    <g id="text_27">
     <!-- Drain Voltage,  $V_{DS}$  [V] -->
     <g transform="translate(773.984286 233.607969)scale(0.18 -0.18)">
      <use transform="translate(0 0.421875)" xlink:href="#ArialMT-68"/>
      <use transform="translate(72.216797 0.421875)" xlink:href="#ArialMT-114"/>
      <use transform="translate(105.517578 0.421875)" xlink:href="#ArialMT-97"/>
      <use transform="translate(161.132812 0.421875)" xlink:href="#ArialMT-105"/>
      <use transform="translate(183.349609 0.421875)" xlink:href="#ArialMT-110"/>
      <use transform="translate(238.964844 0.421875)" xlink:href="#ArialMT-32"/>
      <use transform="translate(266.748047 0.421875)" xlink:href="#ArialMT-86"/>
      <use transform="translate(333.447266 0.421875)" xlink:href="#ArialMT-111"/>
      <use transform="translate(389.0625 0.421875)" xlink:href="#ArialMT-108"/>
      <use transform="translate(411.279297 0.421875)" xlink:href="#ArialMT-116"/>
      <use transform="translate(439.0625 0.421875)" xlink:href="#ArialMT-97"/>
      <use transform="translate(494.677734 0.421875)" xlink:href="#ArialMT-103"/>
      <use transform="translate(550.292969 0.421875)" xlink:href="#ArialMT-101"/>
      <use transform="translate(605.908203 0.421875)" xlink:href="#ArialMT-44"/>
      <use transform="translate(633.691406 0.421875)" xlink:href="#ArialMT-32"/>
      <use transform="translate(661.474609 0.421875)" xlink:href="#ArialMT-32"/>
      <use transform="translate(689.257812 0.421875)" xlink:href="#ArialMT-86"/>
      <use transform="translate(757.699375 -29.446875)scale(0.7)" xlink:href="#ArialMT-68"/>
      <use transform="translate(808.251133 -29.446875)scale(0.7)" xlink:href="#ArialMT-83"/>
      <use transform="translate(859.918711 0.421875)" xlink:href="#ArialMT-32"/>
      <use transform="translate(887.701914 0.421875)" xlink:href="#ArialMT-32"/>
      <use transform="translate(915.485117 0.421875)" xlink:href="#ArialMT-91"/>
      <use transform="translate(943.26832 0.421875)" xlink:href="#ArialMT-86"/>
      <use transform="translate(1009.967539 0.421875)" xlink:href="#ArialMT-93"/>
     </g>
    </g>
   </g>
   <g id="matplotlib.axis_6">
    <g id="ytick_13">
     <g id="line2d_30">
      <g>
       <use style="stroke:#000000;stroke-width:0.8;" x="761.118571" xlink:href="#m188f0fec34" y="185.504921"/>
      </g>
     </g>
     <g id="text_28">
      <!-- −800 -->
      <g transform="translate(720.333415 190.87328)scale(0.15 -0.15)">
       <use xlink:href="#ArialMT-8722"/>
       <use x="58.398438" xlink:href="#ArialMT-56"/>
       <use x="114.013672" xlink:href="#ArialMT-48"/>
       <use x="169.628906" xlink:href="#ArialMT-48"/>
      </g>
     </g>
    </g>
    <g id="ytick_14">
     <g id="line2d_31">
      <g>
       <use style="stroke:#000000;stroke-width:0.8;" x="761.118571" xlink:href="#m188f0fec34" y="148.821301"/>
      </g>
     </g>
     <g id="text_29">
      <!-- −400 -->
      <g transform="translate(720.333415 154.18966)scale(0.15 -0.15)">
       <use xlink:href="#ArialMT-8722"/>
       <use x="58.398438" xlink:href="#ArialMT-52"/>
       <use x="114.013672" xlink:href="#ArialMT-48"/>
       <use x="169.628906" xlink:href="#ArialMT-48"/>
      </g>
     </g>
    </g>
    <g id="ytick_15">
     <g id="line2d_32">
      <g>
       <use style="stroke:#000000;stroke-width:0.8;" x="761.118571" xlink:href="#m188f0fec34" y="112.13768"/>
      </g>
     </g>
     <g id="text_30">
      <!-- 0 -->
      <g transform="translate(745.777165 117.50604)scale(0.15 -0.15)">
       <use xlink:href="#ArialMT-48"/>
      </g>
     </g>
    </g>
    <g id="ytick_16">
     <g id="line2d_33">
      <g>
       <use style="stroke:#000000;stroke-width:0.8;" x="761.118571" xlink:href="#m188f0fec34" y="75.45406"/>
      </g>
     </g>
     <g id="text_31">
      <!-- 400 -->
      <g transform="translate(729.094353 80.82242)scale(0.15 -0.15)">
       <use xlink:href="#ArialMT-52"/>
       <use x="55.615234" xlink:href="#ArialMT-48"/>
       <use x="111.230469" xlink:href="#ArialMT-48"/>
      </g>
     </g>
    </g>
    <g id="ytick_17">
     <g id="line2d_34">
      <g>
       <use style="stroke:#000000;stroke-width:0.8;" x="761.118571" xlink:href="#m188f0fec34" y="38.77044"/>
      </g>
     </g>
     <g id="text_32">
      <!-- 800 -->
      <g transform="translate(729.094353 44.138799)scale(0.15 -0.15)">
       <use xlink:href="#ArialMT-56"/>
       <use x="55.615234" xlink:href="#ArialMT-48"/>
       <use x="111.230469" xlink:href="#ArialMT-48"/>
      </g>
     </g>
    </g>
    <g id="text_33">
     <!-- Drain Current,  $I_D$  [$\mu A$/$\mu m$] -->
     <g transform="translate(710.933415 218.34)rotate(-90)scale(0.18 -0.18)">
      <use transform="translate(0 0.203125)" xlink:href="#ArialMT-68"/>
      <use transform="translate(72.216797 0.203125)" xlink:href="#ArialMT-114"/>
      <use transform="translate(105.517578 0.203125)" xlink:href="#ArialMT-97"/>
      <use transform="translate(161.132812 0.203125)" xlink:href="#ArialMT-105"/>
      <use transform="translate(183.349609 0.203125)" xlink:href="#ArialMT-110"/>
      <use transform="translate(238.964844 0.203125)" xlink:href="#ArialMT-32"/>
      <use transform="translate(266.748047 0.203125)" xlink:href="#ArialMT-67"/>
      <use transform="translate(338.964844 0.203125)" xlink:href="#ArialMT-117"/>
      <use transform="translate(394.580078 0.203125)" xlink:href="#ArialMT-114"/>
      <use transform="translate(427.880859 0.203125)" xlink:href="#ArialMT-114"/>
      <use transform="translate(461.181641 0.203125)" xlink:href="#ArialMT-101"/>
      <use transform="translate(516.796875 0.203125)" xlink:href="#ArialMT-110"/>
      <use transform="translate(572.412109 0.203125)" xlink:href="#ArialMT-116"/>
      <use transform="translate(600.195312 0.203125)" xlink:href="#ArialMT-44"/>
      <use transform="translate(627.978516 0.203125)" xlink:href="#ArialMT-32"/>
      <use transform="translate(655.761719 0.203125)" xlink:href="#ArialMT-32"/>
      <use transform="translate(683.544922 0.203125)" xlink:href="#ArialMT-73"/>
      <use transform="translate(713.070469 -29.665625)scale(0.7)" xlink:href="#ArialMT-68"/>
      <use transform="translate(768.600352 0.203125)" xlink:href="#ArialMT-32"/>
      <use transform="translate(796.383555 0.203125)" xlink:href="#ArialMT-32"/>
      <use transform="translate(824.166758 0.203125)" xlink:href="#ArialMT-91"/>
      <use transform="translate(851.949961 0.203125)" xlink:href="#ArialMT-956"/>
      <use transform="translate(909.567148 0.203125)" xlink:href="#ArialMT-65"/>
      <use transform="translate(976.266367 0.203125)" xlink:href="#ArialMT-47"/>
      <use transform="translate(1004.04957 0.203125)" xlink:href="#ArialMT-956"/>
      <use transform="translate(1061.666758 0.203125)" xlink:href="#ArialMT-109"/>
      <use transform="translate(1144.967539 0.203125)" xlink:href="#ArialMT-93"/>
     </g>
    </g>
   </g>
   <g id="line2d_35">
    <path clip-path="url(#pab95a13040)" d="M 770.780909 164.816951 
L 772.713377 164.129827 
L 774.645844 162.653951 
L 776.578312 161.994943 
L 780.443247 158.440801 
L 784.308182 155.034707 
L 799.767922 142.597163 
L 805.565325 138.432595 
L 813.295195 133.499637 
L 819.092597 130.036512 
L 822.957532 127.823923 
L 828.754935 124.766413 
L 836.484805 121.068057 
L 840.34974 119.386174 
L 844.214675 117.82523 
L 850.012078 115.809112 
L 853.877013 114.671431 
L 857.741948 113.715528 
L 861.606883 112.946026 
L 865.471818 112.362506 
L 871.269221 111.66224 
L 875.134156 111.01897 
L 878.999091 110.177982 
L 882.864026 109.191345 
L 888.661429 107.424404 
L 894.458831 105.31049 
L 900.256234 102.96013 
L 906.053636 100.368196 
L 911.851039 97.570392 
L 919.580909 93.557817 
L 925.378312 90.436251 
L 933.108182 85.608666 
L 938.905584 81.454214 
L 940.838052 79.899929 
L 942.770519 78.642115 
L 944.702987 77.15525 
L 948.567922 73.757607 
L 950.50039 71.916032 
L 956.297792 65.485956 
L 960.162727 59.948967 
L 962.095195 59.939422 
L 964.027662 59.13244 
L 964.027662 59.457092 
L 962.095195 61.649062 
L 960.162727 63.00233 
L 958.23026 63.264899 
L 956.297792 64.483619 
L 954.365325 66.154162 
L 950.50039 68.799272 
L 946.635455 72.014273 
L 944.702987 73.466087 
L 942.770519 74.487895 
L 936.973117 78.570458 
L 933.108182 81.307065 
L 929.243247 83.83886 
L 915.715974 92.057653 
L 909.918571 95.457221 
L 902.188701 99.751349 
L 898.323766 101.766869 
L 892.526364 104.580355 
L 888.661429 106.289097 
L 884.796494 107.819954 
L 880.931558 109.191343 
L 877.066623 110.321814 
L 873.201688 111.226028 
L 869.336753 111.884708 
L 863.539351 112.689549 
L 859.674416 113.471827 
L 855.809481 114.486167 
L 851.944545 115.726307 
L 848.07961 117.170804 
L 844.214675 118.808743 
L 838.417273 121.52675 
L 830.687403 125.53803 
L 824.89 128.871874 
L 813.295195 135.758036 
L 805.565325 140.955598 
L 803.632857 142.193837 
L 801.70039 143.736976 
L 797.835455 146.431121 
L 795.902987 148.033269 
L 793.970519 149.422025 
L 788.173117 154.171613 
L 786.240649 155.888024 
L 782.375714 160.318972 
L 780.443247 162.479265 
L 778.510779 163.911635 
L 776.578312 164.491611 
L 774.645844 166.603577 
L 772.713377 167.884594 
L 770.780909 168.625334 
L 770.780909 168.625334 
" style="fill:none;stroke:#023eff;stroke-linecap:square;stroke-width:2;"/>
   </g>
   <g id="line2d_36">
    <path clip-path="url(#pab95a13040)" d="M 770.780909 178.771619 
L 772.713377 176.620759 
L 774.645844 174.791907 
L 776.578312 173.119608 
L 780.443247 169.418698 
L 797.835455 154.521253 
L 803.632857 149.923114 
L 811.362727 144.072238 
L 824.89 134.213438 
L 830.687403 130.170358 
L 840.34974 123.806765 
L 846.147143 120.296388 
L 851.944545 117.219798 
L 855.809481 115.456474 
L 859.674416 114.006124 
L 863.539351 112.911236 
L 867.404286 112.145499 
L 871.269221 111.366558 
L 875.134156 110.255509 
L 878.999091 108.816742 
L 882.864026 107.088527 
L 886.728961 105.111199 
L 892.526364 101.801181 
L 900.256234 96.942248 
L 907.986104 91.700582 
L 915.715974 86.426631 
L 935.040649 72.913562 
L 950.50039 60.79986 
L 952.432857 59.1191 
L 954.365325 56.853346 
L 956.297792 55.005753 
L 958.23026 52.540906 
L 960.162727 49.541047 
L 962.095195 48.197243 
L 964.027662 47.284731 
L 964.027662 47.289984 
L 962.095195 49.593863 
L 960.162727 50.796553 
L 958.23026 52.197795 
L 956.297792 53.912757 
L 933.108182 71.886619 
L 925.378312 77.463628 
L 911.851039 87.160477 
L 904.121169 92.790089 
L 896.391299 98.23249 
L 890.593896 102.082215 
L 886.728961 104.459222 
L 882.864026 106.623019 
L 878.999091 108.498604 
L 875.134156 110.07291 
L 871.269221 111.285887 
L 867.404286 112.145626 
L 863.539351 112.985141 
L 859.674416 114.182861 
L 855.809481 115.732091 
L 851.944545 117.621957 
L 848.07961 119.758512 
L 842.282208 123.3708 
L 834.552338 128.552227 
L 826.822468 134.115991 
L 822.957532 136.90992 
L 813.295195 144.229137 
L 805.565325 150.180056 
L 799.767922 154.343172 
L 797.835455 156.0271 
L 790.105584 162.093144 
L 784.308182 167.074793 
L 782.375714 169.230581 
L 780.443247 171.004866 
L 778.510779 173.278755 
L 776.578312 175.980157 
L 774.645844 177.833148 
L 772.713377 180.080752 
L 770.780909 181.76345 
L 770.780909 181.76345 
" style="fill:none;stroke:#ff7c00;stroke-linecap:square;stroke-width:2;"/>
   </g>
   <g id="line2d_37">
    <path clip-path="url(#pab95a13040)" d="M 770.780909 188.37 
L 772.713377 185.005176 
L 776.578312 180.899317 
L 782.375714 175.157823 
L 795.902987 163.133463 
L 807.497792 153.467402 
L 813.295195 148.786031 
L 842.282208 125.80525 
L 848.07961 121.569844 
L 851.944545 118.949479 
L 855.809481 116.601114 
L 859.674416 114.654567 
L 863.539351 113.182345 
L 867.404286 112.14806 
L 871.269221 111.110854 
L 875.134156 109.672221 
L 878.999091 107.818994 
L 882.864026 105.613283 
L 886.728961 103.156334 
L 892.526364 99.025539 
L 898.323766 94.657794 
L 913.783506 82.553621 
L 923.445844 74.775276 
L 938.905584 62.745324 
L 946.635455 56.417842 
L 950.50039 52.902578 
L 952.432857 50.497658 
L 956.297792 46.784651 
L 958.23026 43.817377 
L 962.095195 40.390277 
L 964.027662 37.671841 
L 964.027662 37.17 
L 946.635455 52.856333 
L 944.702987 54.446921 
L 940.838052 57.822667 
L 909.918571 83.173937 
L 896.391299 94.490376 
L 890.593896 99.18366 
L 884.796494 103.521453 
L 880.931558 106.116347 
L 877.066623 108.383732 
L 873.201688 110.207921 
L 871.269221 110.959554 
L 867.404286 112.148826 
L 863.539351 113.334002 
L 861.606883 114.092453 
L 859.674416 114.977358 
L 855.809481 117.085573 
L 851.944545 119.582809 
L 848.07961 122.343289 
L 842.282208 126.891207 
L 828.754935 137.959257 
L 822.957532 142.809002 
L 815.227662 149.36732 
L 811.362727 152.472351 
L 807.497792 155.764785 
L 805.565325 157.212045 
L 792.038052 168.3199 
L 790.105584 170.478485 
L 788.173117 172.101139 
L 786.240649 174.101735 
L 784.308182 176.432919 
L 778.510779 182.0985 
L 774.645844 184.745778 
L 772.713377 185.939435 
L 770.780909 187.692314 
L 770.780909 187.692314 
" style="fill:none;stroke:#1ac938;stroke-linecap:square;stroke-width:2;"/>
   </g>
   <g id="line2d_38">
    <path clip-path="url(#pab95a13040)" d="M 761.118571 112.13768 
L 973.69 112.13768 
" style="fill:none;stroke:#808080;stroke-dasharray:0.6,0.99;stroke-dashoffset:0;stroke-width:0.6;"/>
   </g>
   <g id="line2d_39">
    <path clip-path="url(#pab95a13040)" d="M 867.404286 195.93 
L 867.404286 29.61 
" style="fill:none;stroke:#808080;stroke-dasharray:0.6,0.99;stroke-dashoffset:0;stroke-width:0.6;"/>
   </g>
   <g id="patch_13">
    <path d="M 761.118571 195.93 
L 761.118571 29.61 
" style="fill:none;stroke:#000000;stroke-linecap:square;stroke-linejoin:miter;stroke-width:0.8;"/>
   </g>
   <g id="patch_14">
    <path d="M 973.69 195.93 
L 973.69 29.61 
" style="fill:none;stroke:#000000;stroke-linecap:square;stroke-linejoin:miter;stroke-width:0.8;"/>
   </g>
   <g id="patch_15">
    <path d="M 761.118571 195.93 
L 973.69 195.93 
" style="fill:none;stroke:#000000;stroke-linecap:square;stroke-linejoin:miter;stroke-width:0.8;"/>
   </g>
   <g id="patch_16">
    <path d="M 761.118571 29.61 
L 973.69 29.61 
" style="fill:none;stroke:#000000;stroke-linecap:square;stroke-linejoin:miter;stroke-width:0.8;"/>
   </g>
   <g id="text_34">
    <!-- $L_{ch}$ = 100 nm -->
    <defs>
     <path d="M 7.328125 0 
L 7.328125 71.578125 
L 16.796875 71.578125 
L 16.796875 8.453125 
L 52.046875 8.453125 
L 52.046875 0 
z
" id="ArialMT-76"/>
     <path d="M 40.4375 19 
L 49.078125 17.875 
Q 47.65625 8.9375 41.8125 3.875 
Q 35.984375 -1.171875 27.484375 -1.171875 
Q 16.84375 -1.171875 10.375 5.78125 
Q 3.90625 12.75 3.90625 25.734375 
Q 3.90625 34.125 6.6875 40.421875 
Q 9.46875 46.734375 15.15625 49.875 
Q 20.84375 53.03125 27.546875 53.03125 
Q 35.984375 53.03125 41.359375 48.75 
Q 46.734375 44.484375 48.25 36.625 
L 39.703125 35.296875 
Q 38.484375 40.53125 35.375 43.15625 
Q 32.28125 45.796875 27.875 45.796875 
Q 21.234375 45.796875 17.078125 41.03125 
Q 12.9375 36.28125 12.9375 25.984375 
Q 12.9375 15.53125 16.9375 10.796875 
Q 20.953125 6.0625 27.390625 6.0625 
Q 32.5625 6.0625 36.03125 9.234375 
Q 39.5 12.40625 40.4375 19 
z
" id="ArialMT-99"/>
     <path d="M 6.59375 0 
L 6.59375 71.578125 
L 15.375 71.578125 
L 15.375 45.90625 
Q 21.53125 53.03125 30.90625 53.03125 
Q 36.671875 53.03125 40.921875 50.75 
Q 45.171875 48.484375 47 44.484375 
Q 48.828125 40.484375 48.828125 32.859375 
L 48.828125 0 
L 40.046875 0 
L 40.046875 32.859375 
Q 40.046875 39.453125 37.1875 42.453125 
Q 34.328125 45.453125 29.109375 45.453125 
Q 25.203125 45.453125 21.75 43.421875 
Q 18.3125 41.40625 16.84375 37.9375 
Q 15.375 34.46875 15.375 28.375 
L 15.375 0 
z
" id="ArialMT-104"/>
    </defs>
    <g transform="translate(771.747143 54.558)scale(0.18 -0.18)">
     <use transform="translate(0 0.125)" xlink:href="#ArialMT-76"/>
     <use transform="translate(57.357578 -29.74375)scale(0.7)" xlink:href="#ArialMT-99"/>
     <use transform="translate(92.357578 -29.74375)scale(0.7)" xlink:href="#ArialMT-104"/>
     <use transform="translate(136.266367 0.125)" xlink:href="#ArialMT-32"/>
     <use transform="translate(164.04957 0.125)" xlink:href="#ArialMT-61"/>
     <use transform="translate(222.448008 0.125)" xlink:href="#ArialMT-32"/>
     <use transform="translate(250.231211 0.125)" xlink:href="#ArialMT-49"/>
     <use transform="translate(305.846445 0.125)" xlink:href="#ArialMT-48"/>
     <use transform="translate(361.46168 0.125)" xlink:href="#ArialMT-48"/>
     <use transform="translate(417.076914 0.125)" xlink:href="#ArialMT-32"/>
     <use transform="translate(444.860117 0.125)" xlink:href="#ArialMT-110"/>
     <use transform="translate(500.475352 0.125)" xlink:href="#ArialMT-109"/>
    </g>
   </g>
   <g id="legend_3">
    <g id="line2d_40">
     <path d="M 870.234512 129.470079 
L 900.222512 129.470079 
" style="fill:none;stroke:#023eff;stroke-linecap:square;stroke-width:2;"/>
    </g>
    <g id="line2d_41"/>
    <g id="text_35">
     <!-- 0.0 V -->
     <g transform="translate(912.217712 134.717979)scale(0.14994 -0.14994)">
      <use xlink:href="#ArialMT-48"/>
      <use x="55.615234" xlink:href="#ArialMT-46"/>
      <use x="83.398438" xlink:href="#ArialMT-48"/>
      <use x="139.013672" xlink:href="#ArialMT-32"/>
      <use x="166.796875" xlink:href="#ArialMT-86"/>
     </g>
    </g>
    <g id="line2d_42">
     <path d="M 870.234512 150.679561 
L 900.222512 150.679561 
" style="fill:none;stroke:#ff7c00;stroke-linecap:square;stroke-width:2;"/>
    </g>
    <g id="line2d_43"/>
    <g id="text_36">
     <!-- 10.0 V -->
     <g transform="translate(912.217712 155.927461)scale(0.14994 -0.14994)">
      <use xlink:href="#ArialMT-49"/>
      <use x="55.615234" xlink:href="#ArialMT-48"/>
      <use x="111.230469" xlink:href="#ArialMT-46"/>
      <use x="139.013672" xlink:href="#ArialMT-48"/>
      <use x="194.628906" xlink:href="#ArialMT-32"/>
      <use x="222.412109" xlink:href="#ArialMT-86"/>
     </g>
    </g>
    <g id="line2d_44">
     <path d="M 870.234512 171.889043 
L 900.222512 171.889043 
" style="fill:none;stroke:#1ac938;stroke-linecap:square;stroke-width:2;"/>
    </g>
    <g id="line2d_45"/>
    <g id="text_37">
     <!-- 20.0 V -->
     <g transform="translate(912.217712 177.136943)scale(0.14994 -0.14994)">
      <use xlink:href="#ArialMT-50"/>
      <use x="55.615234" xlink:href="#ArialMT-48"/>
      <use x="111.230469" xlink:href="#ArialMT-46"/>
      <use x="139.013672" xlink:href="#ArialMT-48"/>
      <use x="194.628906" xlink:href="#ArialMT-32"/>
      <use x="222.412109" xlink:href="#ArialMT-86"/>
     </g>
    </g>
   </g>
  </g>
  <g id="text_38">
   <!-- 7-3 -->
   <defs>
    <path d="M 4.734375 62.203125 
L 4.734375 70.65625 
L 51.078125 70.65625 
L 51.078125 63.8125 
Q 44.234375 56.546875 37.515625 44.484375 
Q 30.8125 32.421875 27.15625 19.671875 
Q 24.515625 10.6875 23.78125 0 
L 14.75 0 
Q 14.890625 8.453125 18.0625 20.40625 
Q 21.234375 32.375 27.171875 43.484375 
Q 33.109375 54.59375 39.796875 62.203125 
z
" id="ArialMT-55"/>
    <path d="M 3.171875 21.484375 
L 3.171875 30.328125 
L 30.171875 30.328125 
L 30.171875 21.484375 
z
" id="ArialMT-45"/>
   </defs>
   <g transform="translate(502.773906 18.030937)scale(0.14 -0.14)">
    <use xlink:href="#ArialMT-55"/>
    <use x="55.615234" xlink:href="#ArialMT-45"/>
    <use x="88.916016" xlink:href="#ArialMT-51"/>
   </g>
  </g>
 </g>
 <defs>
  <clipPath id="pfaeb0b2fc8">
   <rect height="166.32" width="212.571429" x="80.89" y="29.61"/>
  </clipPath>
  <clipPath id="pf402357582">
   <rect height="166.32" width="212.571429" x="421.004286" y="29.61"/>
  </clipPath>
  <clipPath id="pab95a13040">
   <rect height="166.32" width="212.571429" x="761.118571" y="29.61"/>
  </clipPath>
 </defs>
</svg>
