<?xml version="1.0" encoding="utf-8" standalone="no"?>
<!DOCTYPE svg PUBLIC "-//W3C//DTD SVG 1.1//EN"
  "http://www.w3.org/Graphics/SVG/1.1/DTD/svg11.dtd">
<!-- Created with matplotlib (https://matplotlib.org/) -->
<svg height="246.567969pt" version="1.1" viewBox="0 0 960.29 246.567969" width="960.29pt" xmlns="http://www.w3.org/2000/svg" xmlns:xlink="http://www.w3.org/1999/xlink">
 <defs>
  <style type="text/css">
*{stroke-linecap:butt;stroke-linejoin:round;}
  </style>
 </defs>
 <g id="figure_1">
  <g id="patch_1">
   <path d="M 0 246.567969 
L 960.29 246.567969 
L 960.29 0 
L 0 0 
z
" style="fill:none;"/>
  </g>
  <g id="axes_1">
   <g id="patch_2">
    <path d="M 60.29 195.93 
L 272.861429 195.93 
L 272.861429 29.61 
L 60.29 29.61 
z
" style="fill:none;"/>
   </g>
   <g id="matplotlib.axis_1">
    <g id="xtick_1">
     <g id="line2d_1">
      <defs>
       <path d="M 0 0 
L 0 3.5 
" id="m67e979fa71" style="stroke:#000000;stroke-width:0.8;"/>
      </defs>
      <g>
       <use style="stroke:#000000;stroke-width:0.8;" x="69.95196" xlink:href="#m67e979fa71" y="195.93"/>
      </g>
     </g>
     <g id="text_1">
      <!-- −20 -->
      <defs>
       <path d="M 52.828125 31.203125 
L 5.5625 31.203125 
L 5.5625 39.40625 
L 52.828125 39.40625 
z
" id="ArialMT-8722"/>
       <path d="M 50.34375 8.453125 
L 50.34375 0 
L 3.03125 0 
Q 2.9375 3.171875 4.046875 6.109375 
Q 5.859375 10.9375 9.828125 15.625 
Q 13.8125 20.3125 21.34375 26.46875 
Q 33.015625 36.03125 37.109375 41.625 
Q 41.21875 47.21875 41.21875 52.203125 
Q 41.21875 57.421875 37.46875 61 
Q 33.734375 64.59375 27.734375 64.59375 
Q 21.390625 64.59375 17.578125 60.78125 
Q 13.765625 56.984375 13.71875 50.25 
L 4.6875 51.171875 
Q 5.609375 61.28125 11.65625 66.578125 
Q 17.71875 71.875 27.9375 71.875 
Q 38.234375 71.875 44.234375 66.15625 
Q 50.25 60.453125 50.25 52 
Q 50.25 47.703125 48.484375 43.546875 
Q 46.734375 39.40625 42.65625 34.8125 
Q 38.578125 30.21875 29.109375 22.21875 
Q 21.1875 15.578125 18.9375 13.203125 
Q 16.703125 10.84375 15.234375 8.453125 
z
" id="ArialMT-50"/>
       <path d="M 4.15625 35.296875 
Q 4.15625 48 6.765625 55.734375 
Q 9.375 63.484375 14.515625 67.671875 
Q 19.671875 71.875 27.484375 71.875 
Q 33.25 71.875 37.59375 69.546875 
Q 41.9375 67.234375 44.765625 62.859375 
Q 47.609375 58.5 49.21875 52.21875 
Q 50.828125 45.953125 50.828125 35.296875 
Q 50.828125 22.703125 48.234375 14.96875 
Q 45.65625 7.234375 40.5 3 
Q 35.359375 -1.21875 27.484375 -1.21875 
Q 17.140625 -1.21875 11.234375 6.203125 
Q 4.15625 15.140625 4.15625 35.296875 
z
M 13.1875 35.296875 
Q 13.1875 17.671875 17.3125 11.828125 
Q 21.4375 6 27.484375 6 
Q 33.546875 6 37.671875 11.859375 
Q 41.796875 17.71875 41.796875 35.296875 
Q 41.796875 52.984375 37.671875 58.78125 
Q 33.546875 64.59375 27.390625 64.59375 
Q 21.34375 64.59375 17.71875 59.46875 
Q 13.1875 52.9375 13.1875 35.296875 
z
" id="ArialMT-48"/>
      </defs>
      <g transform="translate(57.230085 213.666719)scale(0.15 -0.15)">
       <use xlink:href="#ArialMT-8722"/>
       <use x="58.398438" xlink:href="#ArialMT-50"/>
       <use x="114.013672" xlink:href="#ArialMT-48"/>
      </g>
     </g>
    </g>
    <g id="xtick_2">
     <g id="line2d_2">
      <g>
       <use style="stroke:#000000;stroke-width:0.8;" x="166.576382" xlink:href="#m67e979fa71" y="195.93"/>
      </g>
     </g>
     <g id="text_2">
      <!-- 0 -->
      <g transform="translate(162.405679 213.666719)scale(0.15 -0.15)">
       <use xlink:href="#ArialMT-48"/>
      </g>
     </g>
    </g>
    <g id="xtick_3">
     <g id="line2d_3">
      <g>
       <use style="stroke:#000000;stroke-width:0.8;" x="263.200805" xlink:href="#m67e979fa71" y="195.93"/>
      </g>
     </g>
     <g id="text_3">
      <!-- 20 -->
      <g transform="translate(254.859399 213.666719)scale(0.15 -0.15)">
       <use xlink:href="#ArialMT-50"/>
       <use x="55.615234" xlink:href="#ArialMT-48"/>
      </g>
     </g>
    </g>
    <g id="text_4">
     <!-- Gate Voltage,  $V_{GS}$  [V] -->
     <defs>
      <path d="M 41.21875 28.078125 
L 41.21875 36.46875 
L 71.53125 36.53125 
L 71.53125 9.96875 
Q 64.546875 4.390625 57.125 1.578125 
Q 49.703125 -1.21875 41.890625 -1.21875 
Q 31.34375 -1.21875 22.71875 3.296875 
Q 14.109375 7.8125 9.71875 16.359375 
Q 5.328125 24.90625 5.328125 35.453125 
Q 5.328125 45.90625 9.6875 54.953125 
Q 14.0625 64.015625 22.265625 68.40625 
Q 30.46875 72.796875 41.15625 72.796875 
Q 48.921875 72.796875 55.1875 70.28125 
Q 61.46875 67.78125 65.03125 63.28125 
Q 68.609375 58.796875 70.453125 51.5625 
L 61.921875 49.21875 
Q 60.296875 54.6875 57.90625 57.8125 
Q 55.515625 60.9375 51.0625 62.8125 
Q 46.625 64.703125 41.21875 64.703125 
Q 34.71875 64.703125 29.984375 62.71875 
Q 25.25 60.75 22.34375 57.515625 
Q 19.4375 54.296875 17.828125 50.4375 
Q 15.09375 43.796875 15.09375 36.03125 
Q 15.09375 26.46875 18.390625 20.015625 
Q 21.6875 13.578125 27.984375 10.453125 
Q 34.28125 7.328125 41.359375 7.328125 
Q 47.515625 7.328125 53.375 9.6875 
Q 59.234375 12.0625 62.25 14.75 
L 62.25 28.078125 
z
" id="ArialMT-71"/>
      <path d="M 40.4375 6.390625 
Q 35.546875 2.25 31.03125 0.53125 
Q 26.515625 -1.171875 21.34375 -1.171875 
Q 12.796875 -1.171875 8.203125 3 
Q 3.609375 7.171875 3.609375 13.671875 
Q 3.609375 17.484375 5.34375 20.625 
Q 7.078125 23.78125 9.890625 25.6875 
Q 12.703125 27.59375 16.21875 28.5625 
Q 18.796875 29.25 24.03125 29.890625 
Q 34.671875 31.15625 39.703125 32.90625 
Q 39.75 34.71875 39.75 35.203125 
Q 39.75 40.578125 37.25 42.78125 
Q 33.890625 45.75 27.25 45.75 
Q 21.046875 45.75 18.09375 43.578125 
Q 15.140625 41.40625 13.71875 35.890625 
L 5.125 37.0625 
Q 6.296875 42.578125 8.984375 45.96875 
Q 11.671875 49.359375 16.75 51.1875 
Q 21.828125 53.03125 28.515625 53.03125 
Q 35.15625 53.03125 39.296875 51.46875 
Q 43.453125 49.90625 45.40625 47.53125 
Q 47.359375 45.171875 48.140625 41.546875 
Q 48.578125 39.3125 48.578125 33.453125 
L 48.578125 21.734375 
Q 48.578125 9.46875 49.140625 6.21875 
Q 49.703125 2.984375 51.375 0 
L 42.1875 0 
Q 40.828125 2.734375 40.4375 6.390625 
z
M 39.703125 26.03125 
Q 34.90625 24.078125 25.34375 22.703125 
Q 19.921875 21.921875 17.671875 20.9375 
Q 15.4375 19.96875 14.203125 18.09375 
Q 12.984375 16.21875 12.984375 13.921875 
Q 12.984375 10.40625 15.640625 8.0625 
Q 18.3125 5.71875 23.4375 5.71875 
Q 28.515625 5.71875 32.46875 7.9375 
Q 36.421875 10.15625 38.28125 14.015625 
Q 39.703125 17 39.703125 22.796875 
z
" id="ArialMT-97"/>
      <path d="M 25.78125 7.859375 
L 27.046875 0.09375 
Q 23.34375 -0.6875 20.40625 -0.6875 
Q 15.625 -0.6875 12.984375 0.828125 
Q 10.359375 2.34375 9.28125 4.8125 
Q 8.203125 7.28125 8.203125 15.1875 
L 8.203125 45.015625 
L 1.765625 45.015625 
L 1.765625 51.859375 
L 8.203125 51.859375 
L 8.203125 64.703125 
L 16.9375 69.96875 
L 16.9375 51.859375 
L 25.78125 51.859375 
L 25.78125 45.015625 
L 16.9375 45.015625 
L 16.9375 14.703125 
Q 16.9375 10.9375 17.40625 9.859375 
Q 17.875 8.796875 18.921875 8.15625 
Q 19.96875 7.515625 21.921875 7.515625 
Q 23.390625 7.515625 25.78125 7.859375 
z
" id="ArialMT-116"/>
      <path d="M 42.09375 16.703125 
L 51.171875 15.578125 
Q 49.03125 7.625 43.21875 3.21875 
Q 37.40625 -1.171875 28.375 -1.171875 
Q 17 -1.171875 10.328125 5.828125 
Q 3.65625 12.84375 3.65625 25.484375 
Q 3.65625 38.578125 10.390625 45.796875 
Q 17.140625 53.03125 27.875 53.03125 
Q 38.28125 53.03125 44.875 45.953125 
Q 51.46875 38.875 51.46875 26.03125 
Q 51.46875 25.25 51.421875 23.6875 
L 12.75 23.6875 
Q 13.234375 15.140625 17.578125 10.59375 
Q 21.921875 6.0625 28.421875 6.0625 
Q 33.25 6.0625 36.671875 8.59375 
Q 40.09375 11.140625 42.09375 16.703125 
z
M 13.234375 30.90625 
L 42.1875 30.90625 
Q 41.609375 37.453125 38.875 40.71875 
Q 34.671875 45.796875 27.984375 45.796875 
Q 21.921875 45.796875 17.796875 41.75 
Q 13.671875 37.703125 13.234375 30.90625 
z
" id="ArialMT-101"/>
      <path id="ArialMT-32"/>
      <path d="M 28.171875 0 
L 0.4375 71.578125 
L 10.6875 71.578125 
L 29.296875 19.578125 
Q 31.546875 13.328125 33.0625 7.859375 
Q 34.71875 13.71875 36.921875 19.578125 
L 56.25 71.578125 
L 65.921875 71.578125 
L 37.890625 0 
z
" id="ArialMT-86"/>
      <path d="M 3.328125 25.921875 
Q 3.328125 40.328125 11.328125 47.265625 
Q 18.015625 53.03125 27.640625 53.03125 
Q 38.328125 53.03125 45.109375 46.015625 
Q 51.90625 39.015625 51.90625 26.65625 
Q 51.90625 16.65625 48.90625 10.90625 
Q 45.90625 5.171875 40.15625 2 
Q 34.421875 -1.171875 27.640625 -1.171875 
Q 16.75 -1.171875 10.03125 5.8125 
Q 3.328125 12.796875 3.328125 25.921875 
z
M 12.359375 25.921875 
Q 12.359375 15.96875 16.703125 11.015625 
Q 21.046875 6.0625 27.640625 6.0625 
Q 34.1875 6.0625 38.53125 11.03125 
Q 42.875 16.015625 42.875 26.21875 
Q 42.875 35.84375 38.5 40.796875 
Q 34.125 45.75 27.640625 45.75 
Q 21.046875 45.75 16.703125 40.8125 
Q 12.359375 35.890625 12.359375 25.921875 
z
" id="ArialMT-111"/>
      <path d="M 6.390625 0 
L 6.390625 71.578125 
L 15.1875 71.578125 
L 15.1875 0 
z
" id="ArialMT-108"/>
      <path d="M 4.984375 -4.296875 
L 13.53125 -5.5625 
Q 14.0625 -9.515625 16.5 -11.328125 
Q 19.78125 -13.765625 25.4375 -13.765625 
Q 31.546875 -13.765625 34.859375 -11.328125 
Q 38.1875 -8.890625 39.359375 -4.5 
Q 40.046875 -1.8125 39.984375 6.78125 
Q 34.234375 0 25.640625 0 
Q 14.9375 0 9.078125 7.71875 
Q 3.21875 15.4375 3.21875 26.21875 
Q 3.21875 33.640625 5.90625 39.90625 
Q 8.59375 46.1875 13.6875 49.609375 
Q 18.796875 53.03125 25.6875 53.03125 
Q 34.859375 53.03125 40.828125 45.609375 
L 40.828125 51.859375 
L 48.921875 51.859375 
L 48.921875 7.03125 
Q 48.921875 -5.078125 46.453125 -10.125 
Q 44 -15.1875 38.640625 -18.109375 
Q 33.296875 -21.046875 25.484375 -21.046875 
Q 16.21875 -21.046875 10.5 -16.875 
Q 4.78125 -12.703125 4.984375 -4.296875 
z
M 12.25 26.859375 
Q 12.25 16.65625 16.296875 11.96875 
Q 20.359375 7.28125 26.46875 7.28125 
Q 32.515625 7.28125 36.609375 11.9375 
Q 40.71875 16.609375 40.71875 26.5625 
Q 40.71875 36.078125 36.5 40.90625 
Q 32.28125 45.75 26.3125 45.75 
Q 20.453125 45.75 16.34375 40.984375 
Q 12.25 36.234375 12.25 26.859375 
z
" id="ArialMT-103"/>
      <path d="M 8.890625 0 
L 8.890625 10.015625 
L 18.890625 10.015625 
L 18.890625 0 
Q 18.890625 -5.515625 16.9375 -8.90625 
Q 14.984375 -12.3125 10.75 -14.15625 
L 8.296875 -10.40625 
Q 11.078125 -9.1875 12.390625 -6.8125 
Q 13.71875 -4.4375 13.875 0 
z
" id="ArialMT-44"/>
      <path d="M 4.5 23 
L 13.421875 23.78125 
Q 14.0625 18.40625 16.375 14.96875 
Q 18.703125 11.53125 23.578125 9.40625 
Q 28.46875 7.28125 34.578125 7.28125 
Q 39.984375 7.28125 44.140625 8.890625 
Q 48.296875 10.5 50.3125 13.296875 
Q 52.34375 16.109375 52.34375 19.4375 
Q 52.34375 22.796875 50.390625 25.3125 
Q 48.4375 27.828125 43.953125 29.546875 
Q 41.0625 30.671875 31.203125 33.03125 
Q 21.34375 35.40625 17.390625 37.5 
Q 12.25 40.1875 9.734375 44.15625 
Q 7.234375 48.140625 7.234375 53.078125 
Q 7.234375 58.5 10.296875 63.203125 
Q 13.375 67.921875 19.28125 70.359375 
Q 25.203125 72.796875 32.421875 72.796875 
Q 40.375 72.796875 46.453125 70.234375 
Q 52.546875 67.671875 55.8125 62.6875 
Q 59.078125 57.71875 59.328125 51.421875 
L 50.25 50.734375 
Q 49.515625 57.515625 45.28125 60.984375 
Q 41.0625 64.453125 32.8125 64.453125 
Q 24.21875 64.453125 20.28125 61.296875 
Q 16.359375 58.15625 16.359375 53.71875 
Q 16.359375 49.859375 19.140625 47.359375 
Q 21.875 44.875 33.421875 42.265625 
Q 44.96875 39.65625 49.265625 37.703125 
Q 55.515625 34.8125 58.484375 30.390625 
Q 61.46875 25.984375 61.46875 20.21875 
Q 61.46875 14.5 58.203125 9.4375 
Q 54.9375 4.390625 48.796875 1.578125 
Q 42.671875 -1.21875 35.015625 -1.21875 
Q 25.296875 -1.21875 18.71875 1.609375 
Q 12.15625 4.4375 8.421875 10.125 
Q 4.6875 15.828125 4.5 23 
z
" id="ArialMT-83"/>
      <path d="M 6.78125 -19.875 
L 6.78125 71.578125 
L 26.171875 71.578125 
L 26.171875 64.3125 
L 15.578125 64.3125 
L 15.578125 -12.59375 
L 26.171875 -12.59375 
L 26.171875 -19.875 
z
" id="ArialMT-91"/>
      <path d="M 21.296875 -19.875 
L 1.90625 -19.875 
L 1.90625 -12.59375 
L 12.5 -12.59375 
L 12.5 64.3125 
L 1.90625 64.3125 
L 1.90625 71.578125 
L 21.296875 71.578125 
z
" id="ArialMT-93"/>
     </defs>
     <g transform="translate(74.775714 233.787969)scale(0.18 -0.18)">
      <use transform="translate(0 0.203125)" xlink:href="#ArialMT-71"/>
      <use transform="translate(77.783203 0.203125)" xlink:href="#ArialMT-97"/>
      <use transform="translate(133.398438 0.203125)" xlink:href="#ArialMT-116"/>
      <use transform="translate(161.181641 0.203125)" xlink:href="#ArialMT-101"/>
      <use transform="translate(216.796875 0.203125)" xlink:href="#ArialMT-32"/>
      <use transform="translate(244.580078 0.203125)" xlink:href="#ArialMT-86"/>
      <use transform="translate(311.279297 0.203125)" xlink:href="#ArialMT-111"/>
      <use transform="translate(366.894531 0.203125)" xlink:href="#ArialMT-108"/>
      <use transform="translate(389.111328 0.203125)" xlink:href="#ArialMT-116"/>
      <use transform="translate(416.894531 0.203125)" xlink:href="#ArialMT-97"/>
      <use transform="translate(472.509766 0.203125)" xlink:href="#ArialMT-103"/>
      <use transform="translate(528.125 0.203125)" xlink:href="#ArialMT-101"/>
      <use transform="translate(583.740234 0.203125)" xlink:href="#ArialMT-44"/>
      <use transform="translate(611.523438 0.203125)" xlink:href="#ArialMT-32"/>
      <use transform="translate(639.306641 0.203125)" xlink:href="#ArialMT-32"/>
      <use transform="translate(667.089844 0.203125)" xlink:href="#ArialMT-86"/>
      <use transform="translate(735.531406 -29.665625)scale(0.7)" xlink:href="#ArialMT-71"/>
      <use transform="translate(789.979648 -29.665625)scale(0.7)" xlink:href="#ArialMT-83"/>
      <use transform="translate(841.647227 0.203125)" xlink:href="#ArialMT-32"/>
      <use transform="translate(869.43043 0.203125)" xlink:href="#ArialMT-32"/>
      <use transform="translate(897.213633 0.203125)" xlink:href="#ArialMT-91"/>
      <use transform="translate(924.996836 0.203125)" xlink:href="#ArialMT-86"/>
      <use transform="translate(991.696055 0.203125)" xlink:href="#ArialMT-93"/>
     </g>
    </g>
   </g>
   <g id="matplotlib.axis_2">
    <g id="ytick_1">
     <g id="line2d_4">
      <defs>
       <path d="M 0 0 
L -3.5 0 
" id="m52cbd94017" style="stroke:#000000;stroke-width:0.8;"/>
      </defs>
      <g>
       <use style="stroke:#000000;stroke-width:0.8;" x="60.29" xlink:href="#m52cbd94017" y="185.997883"/>
      </g>
     </g>
     <g id="text_5">
      <!-- $\mathdefault{10^{1}}$ -->
      <defs>
       <path d="M 37.25 0 
L 28.46875 0 
L 28.46875 56 
Q 25.296875 52.984375 20.140625 49.953125 
Q 14.984375 46.921875 10.890625 45.40625 
L 10.890625 53.90625 
Q 18.265625 57.375 23.78125 62.296875 
Q 29.296875 67.234375 31.59375 71.875 
L 37.25 71.875 
z
" id="ArialMT-49"/>
      </defs>
      <g transform="translate(29.74 193.732258)scale(0.15 -0.15)">
       <use transform="translate(0 0.99375)" xlink:href="#ArialMT-49"/>
       <use transform="translate(55.615234 0.99375)" xlink:href="#ArialMT-48"/>
       <use transform="translate(112.972813 70.6875)scale(0.7)" xlink:href="#ArialMT-49"/>
      </g>
     </g>
    </g>
    <g id="ytick_2">
     <g id="line2d_5">
      <g>
       <use style="stroke:#000000;stroke-width:0.8;" x="60.29" xlink:href="#m52cbd94017" y="45.06153"/>
      </g>
     </g>
     <g id="text_6">
      <!-- $\mathdefault{10^{2}}$ -->
      <g transform="translate(29.74 52.795905)scale(0.15 -0.15)">
       <use transform="translate(0 0.99375)" xlink:href="#ArialMT-49"/>
       <use transform="translate(55.615234 0.99375)" xlink:href="#ArialMT-48"/>
       <use transform="translate(112.972813 70.6875)scale(0.7)" xlink:href="#ArialMT-50"/>
      </g>
     </g>
    </g>
    <g id="ytick_3">
     <g id="line2d_6">
      <defs>
       <path d="M 0 0 
L -2 0 
" id="m7c76c12e6e" style="stroke:#000000;stroke-width:0.6;"/>
      </defs>
      <g>
       <use style="stroke:#000000;stroke-width:0.6;" x="60.29" xlink:href="#m7c76c12e6e" y="192.446777"/>
      </g>
     </g>
    </g>
    <g id="ytick_4">
     <g id="line2d_7">
      <g>
       <use style="stroke:#000000;stroke-width:0.6;" x="60.29" xlink:href="#m7c76c12e6e" y="143.571813"/>
      </g>
     </g>
    </g>
    <g id="ytick_5">
     <g id="line2d_8">
      <g>
       <use style="stroke:#000000;stroke-width:0.6;" x="60.29" xlink:href="#m7c76c12e6e" y="118.754153"/>
      </g>
     </g>
    </g>
    <g id="ytick_6">
     <g id="line2d_9">
      <g>
       <use style="stroke:#000000;stroke-width:0.6;" x="60.29" xlink:href="#m7c76c12e6e" y="101.145744"/>
      </g>
     </g>
    </g>
    <g id="ytick_7">
     <g id="line2d_10">
      <g>
       <use style="stroke:#000000;stroke-width:0.6;" x="60.29" xlink:href="#m7c76c12e6e" y="87.4876"/>
      </g>
     </g>
    </g>
    <g id="ytick_8">
     <g id="line2d_11">
      <g>
       <use style="stroke:#000000;stroke-width:0.6;" x="60.29" xlink:href="#m7c76c12e6e" y="76.328084"/>
      </g>
     </g>
    </g>
    <g id="ytick_9">
     <g id="line2d_12">
      <g>
       <use style="stroke:#000000;stroke-width:0.6;" x="60.29" xlink:href="#m7c76c12e6e" y="66.892847"/>
      </g>
     </g>
    </g>
    <g id="ytick_10">
     <g id="line2d_13">
      <g>
       <use style="stroke:#000000;stroke-width:0.6;" x="60.29" xlink:href="#m7c76c12e6e" y="58.719674"/>
      </g>
     </g>
    </g>
    <g id="ytick_11">
     <g id="line2d_14">
      <g>
       <use style="stroke:#000000;stroke-width:0.6;" x="60.29" xlink:href="#m7c76c12e6e" y="51.510424"/>
      </g>
     </g>
    </g>
    <g id="text_7">
     <!-- Drain Current,  $I_D$  [$\mu A$/$\mu m$] -->
     <defs>
      <path d="M 7.71875 0 
L 7.71875 71.578125 
L 32.375 71.578125 
Q 40.71875 71.578125 45.125 70.5625 
Q 51.265625 69.140625 55.609375 65.4375 
Q 61.28125 60.640625 64.078125 53.1875 
Q 66.890625 45.75 66.890625 36.1875 
Q 66.890625 28.03125 64.984375 21.734375 
Q 63.09375 15.4375 60.109375 11.296875 
Q 57.125 7.171875 53.578125 4.796875 
Q 50.046875 2.4375 45.046875 1.21875 
Q 40.046875 0 33.546875 0 
z
M 17.1875 8.453125 
L 32.46875 8.453125 
Q 39.546875 8.453125 43.578125 9.765625 
Q 47.609375 11.078125 50 13.484375 
Q 53.375 16.84375 55.25 22.53125 
Q 57.125 28.21875 57.125 36.328125 
Q 57.125 47.5625 53.4375 53.59375 
Q 49.75 59.625 44.484375 61.671875 
Q 40.671875 63.140625 32.234375 63.140625 
L 17.1875 63.140625 
z
" id="ArialMT-68"/>
      <path d="M 6.5 0 
L 6.5 51.859375 
L 14.40625 51.859375 
L 14.40625 44 
Q 17.4375 49.515625 20 51.265625 
Q 22.5625 53.03125 25.640625 53.03125 
Q 30.078125 53.03125 34.671875 50.203125 
L 31.640625 42.046875 
Q 28.421875 43.953125 25.203125 43.953125 
Q 22.3125 43.953125 20.015625 42.21875 
Q 17.71875 40.484375 16.75 37.40625 
Q 15.28125 32.71875 15.28125 27.15625 
L 15.28125 0 
z
" id="ArialMT-114"/>
      <path d="M 6.640625 61.46875 
L 6.640625 71.578125 
L 15.4375 71.578125 
L 15.4375 61.46875 
z
M 6.640625 0 
L 6.640625 51.859375 
L 15.4375 51.859375 
L 15.4375 0 
z
" id="ArialMT-105"/>
      <path d="M 6.59375 0 
L 6.59375 51.859375 
L 14.5 51.859375 
L 14.5 44.484375 
Q 20.21875 53.03125 31 53.03125 
Q 35.6875 53.03125 39.625 51.34375 
Q 43.5625 49.65625 45.515625 46.921875 
Q 47.46875 44.1875 48.25 40.4375 
Q 48.734375 37.984375 48.734375 31.890625 
L 48.734375 0 
L 39.9375 0 
L 39.9375 31.546875 
Q 39.9375 36.921875 38.90625 39.578125 
Q 37.890625 42.234375 35.28125 43.8125 
Q 32.671875 45.40625 29.15625 45.40625 
Q 23.53125 45.40625 19.453125 41.84375 
Q 15.375 38.28125 15.375 28.328125 
L 15.375 0 
z
" id="ArialMT-110"/>
      <path d="M 58.796875 25.09375 
L 68.265625 22.703125 
Q 65.28125 11.03125 57.546875 4.90625 
Q 49.8125 -1.21875 38.625 -1.21875 
Q 27.046875 -1.21875 19.796875 3.484375 
Q 12.546875 8.203125 8.765625 17.140625 
Q 4.984375 26.078125 4.984375 36.328125 
Q 4.984375 47.515625 9.25 55.828125 
Q 13.53125 64.15625 21.40625 68.46875 
Q 29.296875 72.796875 38.765625 72.796875 
Q 49.515625 72.796875 56.828125 67.328125 
Q 64.15625 61.859375 67.046875 51.953125 
L 57.71875 49.75 
Q 55.21875 57.5625 50.484375 61.125 
Q 45.75 64.703125 38.578125 64.703125 
Q 30.328125 64.703125 24.78125 60.734375 
Q 19.234375 56.78125 16.984375 50.109375 
Q 14.75 43.453125 14.75 36.375 
Q 14.75 27.25 17.40625 20.4375 
Q 20.0625 13.625 25.671875 10.25 
Q 31.296875 6.890625 37.84375 6.890625 
Q 45.796875 6.890625 51.3125 11.46875 
Q 56.84375 16.0625 58.796875 25.09375 
z
" id="ArialMT-67"/>
      <path d="M 40.578125 0 
L 40.578125 7.625 
Q 34.515625 -1.171875 24.125 -1.171875 
Q 19.53125 -1.171875 15.546875 0.578125 
Q 11.578125 2.34375 9.640625 5 
Q 7.71875 7.671875 6.9375 11.53125 
Q 6.390625 14.109375 6.390625 19.734375 
L 6.390625 51.859375 
L 15.1875 51.859375 
L 15.1875 23.09375 
Q 15.1875 16.21875 15.71875 13.8125 
Q 16.546875 10.359375 19.234375 8.375 
Q 21.921875 6.390625 25.875 6.390625 
Q 29.828125 6.390625 33.296875 8.421875 
Q 36.765625 10.453125 38.203125 13.9375 
Q 39.65625 17.4375 39.65625 24.078125 
L 39.65625 51.859375 
L 48.4375 51.859375 
L 48.4375 0 
z
" id="ArialMT-117"/>
      <path d="M 9.328125 0 
L 9.328125 71.578125 
L 18.796875 71.578125 
L 18.796875 0 
z
" id="ArialMT-73"/>
      <path d="M 49.703125 51.859375 
L 49.703125 0 
L 41.84375 0 
L 41.84375 6.15625 
Q 39.3125 2.25 36.8125 0.78125 
Q 33.40625 -1.21875 28.859375 -1.21875 
Q 24.8125 -1.21875 21.6875 0.390625 
Q 19.34375 1.609375 16.5 5.21875 
L 16.5 -19.875 
L 7.8125 -19.875 
L 7.8125 51.859375 
L 16.5 51.859375 
L 16.5 29.890625 
Q 16.5 17.921875 17.765625 14.375 
Q 19.046875 10.84375 21.890625 8.78125 
Q 24.75 6.734375 28.46875 6.734375 
Q 32.375 6.734375 35.453125 8.875 
Q 38.53125 11.03125 39.796875 14.421875 
Q 41.0625 17.828125 41.0625 29.734375 
L 41.0625 51.859375 
z
" id="ArialMT-956"/>
      <path d="M -0.140625 0 
L 27.34375 71.578125 
L 37.546875 71.578125 
L 66.84375 0 
L 56.0625 0 
L 47.703125 21.6875 
L 17.78125 21.6875 
L 9.90625 0 
z
M 20.515625 29.390625 
L 44.78125 29.390625 
L 37.3125 49.21875 
Q 33.890625 58.25 32.234375 64.0625 
Q 30.859375 57.171875 28.375 50.390625 
z
" id="ArialMT-65"/>
      <path d="M 0 -1.21875 
L 20.75 72.796875 
L 27.78125 72.796875 
L 7.078125 -1.21875 
z
" id="ArialMT-47"/>
      <path d="M 6.59375 0 
L 6.59375 51.859375 
L 14.453125 51.859375 
L 14.453125 44.578125 
Q 16.890625 48.390625 20.9375 50.703125 
Q 25 53.03125 30.171875 53.03125 
Q 35.9375 53.03125 39.625 50.640625 
Q 43.3125 48.25 44.828125 43.953125 
Q 50.984375 53.03125 60.84375 53.03125 
Q 68.5625 53.03125 72.703125 48.75 
Q 76.859375 44.484375 76.859375 35.59375 
L 76.859375 0 
L 68.109375 0 
L 68.109375 32.671875 
Q 68.109375 37.9375 67.25 40.25 
Q 66.40625 42.578125 64.15625 43.984375 
Q 61.921875 45.40625 58.890625 45.40625 
Q 53.421875 45.40625 49.796875 41.765625 
Q 46.1875 38.140625 46.1875 30.125 
L 46.1875 0 
L 37.40625 0 
L 37.40625 33.6875 
Q 37.40625 39.546875 35.25 42.46875 
Q 33.109375 45.40625 28.21875 45.40625 
Q 24.515625 45.40625 21.359375 43.453125 
Q 18.21875 41.5 16.796875 37.734375 
Q 15.375 33.984375 15.375 26.90625 
L 15.375 0 
z
" id="ArialMT-109"/>
     </defs>
     <g transform="translate(20.34 218.34)rotate(-90)scale(0.18 -0.18)">
      <use transform="translate(0 0.203125)" xlink:href="#ArialMT-68"/>
      <use transform="translate(72.216797 0.203125)" xlink:href="#ArialMT-114"/>
      <use transform="translate(105.517578 0.203125)" xlink:href="#ArialMT-97"/>
      <use transform="translate(161.132812 0.203125)" xlink:href="#ArialMT-105"/>
      <use transform="translate(183.349609 0.203125)" xlink:href="#ArialMT-110"/>
      <use transform="translate(238.964844 0.203125)" xlink:href="#ArialMT-32"/>
      <use transform="translate(266.748047 0.203125)" xlink:href="#ArialMT-67"/>
      <use transform="translate(338.964844 0.203125)" xlink:href="#ArialMT-117"/>
      <use transform="translate(394.580078 0.203125)" xlink:href="#ArialMT-114"/>
      <use transform="translate(427.880859 0.203125)" xlink:href="#ArialMT-114"/>
      <use transform="translate(461.181641 0.203125)" xlink:href="#ArialMT-101"/>
      <use transform="translate(516.796875 0.203125)" xlink:href="#ArialMT-110"/>
      <use transform="translate(572.412109 0.203125)" xlink:href="#ArialMT-116"/>
      <use transform="translate(600.195312 0.203125)" xlink:href="#ArialMT-44"/>
      <use transform="translate(627.978516 0.203125)" xlink:href="#ArialMT-32"/>
      <use transform="translate(655.761719 0.203125)" xlink:href="#ArialMT-32"/>
      <use transform="translate(683.544922 0.203125)" xlink:href="#ArialMT-73"/>
      <use transform="translate(713.070469 -29.665625)scale(0.7)" xlink:href="#ArialMT-68"/>
      <use transform="translate(768.600352 0.203125)" xlink:href="#ArialMT-32"/>
      <use transform="translate(796.383555 0.203125)" xlink:href="#ArialMT-32"/>
      <use transform="translate(824.166758 0.203125)" xlink:href="#ArialMT-91"/>
      <use transform="translate(851.949961 0.203125)" xlink:href="#ArialMT-956"/>
      <use transform="translate(909.567148 0.203125)" xlink:href="#ArialMT-65"/>
      <use transform="translate(976.266367 0.203125)" xlink:href="#ArialMT-47"/>
      <use transform="translate(1004.04957 0.203125)" xlink:href="#ArialMT-956"/>
      <use transform="translate(1061.666758 0.203125)" xlink:href="#ArialMT-109"/>
      <use transform="translate(1144.967539 0.203125)" xlink:href="#ArialMT-93"/>
     </g>
    </g>
   </g>
   <g id="line2d_15">
    <path clip-path="url(#p6773d11049)" d="M 69.952393 187.978556 
L 74.784747 186.761424 
L 79.614089 187.155575 
L 84.446102 187.189725 
L 89.276568 187.310306 
L 94.106706 186.424119 
L 98.938738 186.164704 
L 103.769001 185.180792 
L 108.600125 184.079923 
L 113.431112 182.743321 
L 118.262586 180.827766 
L 123.093591 178.630694 
L 127.925862 176.4714 
L 132.755006 172.519626 
L 137.587374 168.876635 
L 142.420341 163.70339 
L 147.250484 158.392984 
L 152.083122 151.702749 
L 156.91358 145.778778 
L 161.745111 138.556131 
L 166.576738 131.959982 
L 171.407913 125.404228 
L 176.238344 118.672896 
L 181.070733 112.106919 
L 185.902147 106.830278 
L 190.734308 100.497862 
L 195.565909 94.658293 
L 200.396939 88.974084 
L 205.227962 83.922121 
L 210.058916 79.058391 
L 214.891791 74.190842 
L 219.721745 69.515208 
L 224.552759 65.466937 
L 229.384035 61.464011 
L 234.214294 57.683672 
L 239.046473 53.978455 
L 243.875091 50.432213 
L 248.705474 46.59377 
L 253.537496 43.094367 
L 258.366746 40.098723 
L 263.199091 37.17 
L 263.199063 37.292415 
L 258.366773 41.182291 
L 253.537524 45.060182 
L 248.705529 49.11793 
L 243.875091 53.047824 
L 239.046492 57.489331 
L 234.214307 61.90374 
L 229.384054 66.827237 
L 224.552773 71.79003 
L 219.72175 76.90991 
L 214.89181 82.462174 
L 210.058898 88.150157 
L 205.228013 93.861295 
L 200.396939 100.234471 
L 195.565932 106.411868 
L 190.734331 112.989966 
L 185.902204 119.816935 
L 181.070777 127.442648 
L 176.238349 134.622204 
L 171.407938 141.596989 
L 166.574389 148.080125 
L 161.745077 155.054486 
L 156.913608 161.236795 
L 152.083092 166.988817 
L 147.250431 172.096549 
L 142.420316 176.323414 
L 137.587383 179.781937 
L 132.755031 181.686187 
L 127.92583 183.823821 
L 123.093618 184.349461 
L 118.262559 185.796047 
L 113.431052 186.472858 
L 108.600089 186.321061 
L 103.768983 187.152239 
L 98.938835 186.444208 
L 94.106669 187.494578 
L 89.276605 188.009947 
L 84.446084 187.722119 
L 79.614098 187.909493 
L 74.784683 187.905191 
L 69.952338 188.37 
" style="fill:none;stroke:#023eff;stroke-linecap:square;stroke-width:2;"/>
   </g>
   <g id="patch_3">
    <path d="M 60.29 195.93 
L 60.29 29.61 
" style="fill:none;stroke:#000000;stroke-linecap:square;stroke-linejoin:miter;stroke-width:0.8;"/>
   </g>
   <g id="patch_4">
    <path d="M 272.861429 195.93 
L 272.861429 29.61 
" style="fill:none;stroke:#000000;stroke-linecap:square;stroke-linejoin:miter;stroke-width:0.8;"/>
   </g>
   <g id="patch_5">
    <path d="M 60.29 195.93 
L 272.861429 195.93 
" style="fill:none;stroke:#000000;stroke-linecap:square;stroke-linejoin:miter;stroke-width:0.8;"/>
   </g>
   <g id="patch_6">
    <path d="M 60.29 29.61 
L 272.861429 29.61 
" style="fill:none;stroke:#000000;stroke-linecap:square;stroke-linejoin:miter;stroke-width:0.8;"/>
   </g>
   <g id="text_8">
    <!-- $V_{DS}$ = 1.0 V -->
    <defs>
     <path d="M 52.828125 42.09375 
L 5.5625 42.09375 
L 5.5625 50.296875 
L 52.828125 50.296875 
z
M 52.828125 20.359375 
L 5.5625 20.359375 
L 5.5625 28.5625 
L 52.828125 28.5625 
z
" id="ArialMT-61"/>
     <path d="M 9.078125 0 
L 9.078125 10.015625 
L 19.09375 10.015625 
L 19.09375 0 
z
" id="ArialMT-46"/>
    </defs>
    <g transform="translate(70.918571 54.558)scale(0.18 -0.18)">
     <use transform="translate(0 0.125)" xlink:href="#ArialMT-86"/>
     <use transform="translate(68.441563 -29.74375)scale(0.7)" xlink:href="#ArialMT-68"/>
     <use transform="translate(118.99332 -29.74375)scale(0.7)" xlink:href="#ArialMT-83"/>
     <use transform="translate(170.660898 0.125)" xlink:href="#ArialMT-32"/>
     <use transform="translate(198.444102 0.125)" xlink:href="#ArialMT-61"/>
     <use transform="translate(256.842539 0.125)" xlink:href="#ArialMT-32"/>
     <use transform="translate(284.625742 0.125)" xlink:href="#ArialMT-49"/>
     <use transform="translate(340.240977 0.125)" xlink:href="#ArialMT-46"/>
     <use transform="translate(368.02418 0.125)" xlink:href="#ArialMT-48"/>
     <use transform="translate(423.639414 0.125)" xlink:href="#ArialMT-32"/>
     <use transform="translate(451.422617 0.125)" xlink:href="#ArialMT-86"/>
    </g>
   </g>
   <g id="legend_1">
    <g id="line2d_16">
     <path d="M 162.745324 180.205043 
L 192.733324 180.205043 
" style="fill:none;stroke:#023eff;stroke-linecap:square;stroke-width:2;"/>
    </g>
    <g id="line2d_17"/>
    <g id="text_9">
     <!-- 100 nm -->
     <g transform="translate(204.728524 185.452943)scale(0.14994 -0.14994)">
      <use xlink:href="#ArialMT-49"/>
      <use x="55.615234" xlink:href="#ArialMT-48"/>
      <use x="111.230469" xlink:href="#ArialMT-48"/>
      <use x="166.845703" xlink:href="#ArialMT-32"/>
      <use x="194.628906" xlink:href="#ArialMT-110"/>
      <use x="250.244141" xlink:href="#ArialMT-109"/>
     </g>
    </g>
   </g>
  </g>
  <g id="axes_2">
   <g id="patch_7">
    <path d="M 400.404286 195.93 
L 612.975714 195.93 
L 612.975714 29.61 
L 400.404286 29.61 
z
" style="fill:none;"/>
   </g>
   <g id="matplotlib.axis_3">
    <g id="xtick_4">
     <g id="line2d_18">
      <g>
       <use style="stroke:#000000;stroke-width:0.8;" x="410.066623" xlink:href="#m67e979fa71" y="195.93"/>
      </g>
     </g>
     <g id="text_10">
      <!-- −5 -->
      <defs>
       <path d="M 4.15625 18.75 
L 13.375 19.53125 
Q 14.40625 12.796875 18.140625 9.390625 
Q 21.875 6 27.15625 6 
Q 33.5 6 37.890625 10.78125 
Q 42.28125 15.578125 42.28125 23.484375 
Q 42.28125 31 38.0625 35.34375 
Q 33.84375 39.703125 27 39.703125 
Q 22.75 39.703125 19.328125 37.765625 
Q 15.921875 35.84375 13.96875 32.765625 
L 5.71875 33.84375 
L 12.640625 70.609375 
L 48.25 70.609375 
L 48.25 62.203125 
L 19.671875 62.203125 
L 15.828125 42.96875 
Q 22.265625 47.46875 29.34375 47.46875 
Q 38.71875 47.46875 45.15625 40.96875 
Q 51.609375 34.46875 51.609375 24.265625 
Q 51.609375 14.546875 45.953125 7.46875 
Q 39.0625 -1.21875 27.15625 -1.21875 
Q 17.390625 -1.21875 11.203125 4.25 
Q 5.03125 9.71875 4.15625 18.75 
z
" id="ArialMT-53"/>
      </defs>
      <g transform="translate(401.515452 213.666719)scale(0.15 -0.15)">
       <use xlink:href="#ArialMT-8722"/>
       <use x="58.398438" xlink:href="#ArialMT-53"/>
      </g>
     </g>
    </g>
    <g id="xtick_5">
     <g id="line2d_19">
      <g>
       <use style="stroke:#000000;stroke-width:0.8;" x="506.69" xlink:href="#m67e979fa71" y="195.93"/>
      </g>
     </g>
     <g id="text_11">
      <!-- 0 -->
      <g transform="translate(502.519297 213.666719)scale(0.15 -0.15)">
       <use xlink:href="#ArialMT-48"/>
      </g>
     </g>
    </g>
    <g id="xtick_6">
     <g id="line2d_20">
      <g>
       <use style="stroke:#000000;stroke-width:0.8;" x="603.313377" xlink:href="#m67e979fa71" y="195.93"/>
      </g>
     </g>
     <g id="text_12">
      <!-- 5 -->
      <g transform="translate(599.142673 213.666719)scale(0.15 -0.15)">
       <use xlink:href="#ArialMT-53"/>
      </g>
     </g>
    </g>
    <g id="text_13">
     <!-- Drain Voltage,  $V_{DS}$  [V] -->
     <g transform="translate(413.27 233.607969)scale(0.18 -0.18)">
      <use transform="translate(0 0.421875)" xlink:href="#ArialMT-68"/>
      <use transform="translate(72.216797 0.421875)" xlink:href="#ArialMT-114"/>
      <use transform="translate(105.517578 0.421875)" xlink:href="#ArialMT-97"/>
      <use transform="translate(161.132812 0.421875)" xlink:href="#ArialMT-105"/>
      <use transform="translate(183.349609 0.421875)" xlink:href="#ArialMT-110"/>
      <use transform="translate(238.964844 0.421875)" xlink:href="#ArialMT-32"/>
      <use transform="translate(266.748047 0.421875)" xlink:href="#ArialMT-86"/>
      <use transform="translate(333.447266 0.421875)" xlink:href="#ArialMT-111"/>
      <use transform="translate(389.0625 0.421875)" xlink:href="#ArialMT-108"/>
      <use transform="translate(411.279297 0.421875)" xlink:href="#ArialMT-116"/>
      <use transform="translate(439.0625 0.421875)" xlink:href="#ArialMT-97"/>
      <use transform="translate(494.677734 0.421875)" xlink:href="#ArialMT-103"/>
      <use transform="translate(550.292969 0.421875)" xlink:href="#ArialMT-101"/>
      <use transform="translate(605.908203 0.421875)" xlink:href="#ArialMT-44"/>
      <use transform="translate(633.691406 0.421875)" xlink:href="#ArialMT-32"/>
      <use transform="translate(661.474609 0.421875)" xlink:href="#ArialMT-32"/>
      <use transform="translate(689.257812 0.421875)" xlink:href="#ArialMT-86"/>
      <use transform="translate(757.699375 -29.446875)scale(0.7)" xlink:href="#ArialMT-68"/>
      <use transform="translate(808.251133 -29.446875)scale(0.7)" xlink:href="#ArialMT-83"/>
      <use transform="translate(859.918711 0.421875)" xlink:href="#ArialMT-32"/>
      <use transform="translate(887.701914 0.421875)" xlink:href="#ArialMT-32"/>
      <use transform="translate(915.485117 0.421875)" xlink:href="#ArialMT-91"/>
      <use transform="translate(943.26832 0.421875)" xlink:href="#ArialMT-86"/>
      <use transform="translate(1009.967539 0.421875)" xlink:href="#ArialMT-93"/>
     </g>
    </g>
   </g>
   <g id="matplotlib.axis_4">
    <g id="ytick_12">
     <g id="line2d_21">
      <g>
       <use style="stroke:#000000;stroke-width:0.8;" x="400.404286" xlink:href="#m52cbd94017" y="195.93"/>
      </g>
     </g>
     <g id="text_14">
      <!-- −900 -->
      <defs>
       <path d="M 5.46875 16.546875 
L 13.921875 17.328125 
Q 14.984375 11.375 18.015625 8.6875 
Q 21.046875 6 25.78125 6 
Q 29.828125 6 32.875 7.859375 
Q 35.9375 9.71875 37.890625 12.8125 
Q 39.84375 15.921875 41.15625 21.1875 
Q 42.484375 26.46875 42.484375 31.9375 
Q 42.484375 32.515625 42.4375 33.6875 
Q 39.796875 29.5 35.234375 26.875 
Q 30.671875 24.265625 25.34375 24.265625 
Q 16.453125 24.265625 10.296875 30.703125 
Q 4.15625 37.15625 4.15625 47.703125 
Q 4.15625 58.59375 10.578125 65.234375 
Q 17 71.875 26.65625 71.875 
Q 33.640625 71.875 39.421875 68.109375 
Q 45.21875 64.359375 48.21875 57.390625 
Q 51.21875 50.4375 51.21875 37.25 
Q 51.21875 23.53125 48.234375 15.40625 
Q 45.265625 7.28125 39.375 3.03125 
Q 33.5 -1.21875 25.59375 -1.21875 
Q 17.1875 -1.21875 11.859375 3.4375 
Q 6.546875 8.109375 5.46875 16.546875 
z
M 41.453125 48.140625 
Q 41.453125 55.71875 37.421875 60.15625 
Q 33.40625 64.59375 27.734375 64.59375 
Q 21.875 64.59375 17.53125 59.8125 
Q 13.1875 55.03125 13.1875 47.40625 
Q 13.1875 40.578125 17.3125 36.296875 
Q 21.4375 32.03125 27.484375 32.03125 
Q 33.59375 32.03125 37.515625 36.296875 
Q 41.453125 40.578125 41.453125 48.140625 
z
" id="ArialMT-57"/>
      </defs>
      <g transform="translate(359.619129 201.298359)scale(0.15 -0.15)">
       <use xlink:href="#ArialMT-8722"/>
       <use x="58.398438" xlink:href="#ArialMT-57"/>
       <use x="114.013672" xlink:href="#ArialMT-48"/>
       <use x="169.628906" xlink:href="#ArialMT-48"/>
      </g>
     </g>
    </g>
    <g id="ytick_13">
     <g id="line2d_22">
      <g>
       <use style="stroke:#000000;stroke-width:0.8;" x="400.404286" xlink:href="#m52cbd94017" y="168.21"/>
      </g>
     </g>
     <g id="text_15">
      <!-- −600 -->
      <defs>
       <path d="M 49.75 54.046875 
L 41.015625 53.375 
Q 39.84375 58.546875 37.703125 60.890625 
Q 34.125 64.65625 28.90625 64.65625 
Q 24.703125 64.65625 21.53125 62.3125 
Q 17.390625 59.28125 14.984375 53.46875 
Q 12.59375 47.65625 12.5 36.921875 
Q 15.671875 41.75 20.265625 44.09375 
Q 24.859375 46.4375 29.890625 46.4375 
Q 38.671875 46.4375 44.84375 39.96875 
Q 51.03125 33.5 51.03125 23.25 
Q 51.03125 16.5 48.125 10.71875 
Q 45.21875 4.9375 40.140625 1.859375 
Q 35.0625 -1.21875 28.609375 -1.21875 
Q 17.625 -1.21875 10.6875 6.859375 
Q 3.765625 14.9375 3.765625 33.5 
Q 3.765625 54.25 11.421875 63.671875 
Q 18.109375 71.875 29.4375 71.875 
Q 37.890625 71.875 43.28125 67.140625 
Q 48.6875 62.40625 49.75 54.046875 
z
M 13.875 23.1875 
Q 13.875 18.65625 15.796875 14.5 
Q 17.71875 10.359375 21.1875 8.171875 
Q 24.65625 6 28.46875 6 
Q 34.03125 6 38.03125 10.484375 
Q 42.046875 14.984375 42.046875 22.703125 
Q 42.046875 30.125 38.078125 34.390625 
Q 34.125 38.671875 28.125 38.671875 
Q 22.171875 38.671875 18.015625 34.390625 
Q 13.875 30.125 13.875 23.1875 
z
" id="ArialMT-54"/>
      </defs>
      <g transform="translate(359.619129 173.578359)scale(0.15 -0.15)">
       <use xlink:href="#ArialMT-8722"/>
       <use x="58.398438" xlink:href="#ArialMT-54"/>
       <use x="114.013672" xlink:href="#ArialMT-48"/>
       <use x="169.628906" xlink:href="#ArialMT-48"/>
      </g>
     </g>
    </g>
    <g id="ytick_14">
     <g id="line2d_23">
      <g>
       <use style="stroke:#000000;stroke-width:0.8;" x="400.404286" xlink:href="#m52cbd94017" y="140.49"/>
      </g>
     </g>
     <g id="text_16">
      <!-- −300 -->
      <defs>
       <path d="M 4.203125 18.890625 
L 12.984375 20.0625 
Q 14.5 12.59375 18.140625 9.296875 
Q 21.78125 6 27 6 
Q 33.203125 6 37.46875 10.296875 
Q 41.75 14.59375 41.75 20.953125 
Q 41.75 27 37.796875 30.921875 
Q 33.84375 34.859375 27.734375 34.859375 
Q 25.25 34.859375 21.53125 33.890625 
L 22.515625 41.609375 
Q 23.390625 41.5 23.921875 41.5 
Q 29.546875 41.5 34.03125 44.421875 
Q 38.53125 47.359375 38.53125 53.46875 
Q 38.53125 58.296875 35.25 61.46875 
Q 31.984375 64.65625 26.8125 64.65625 
Q 21.6875 64.65625 18.265625 61.421875 
Q 14.84375 58.203125 13.875 51.765625 
L 5.078125 53.328125 
Q 6.6875 62.15625 12.390625 67.015625 
Q 18.109375 71.875 26.609375 71.875 
Q 32.46875 71.875 37.390625 69.359375 
Q 42.328125 66.84375 44.9375 62.5 
Q 47.5625 58.15625 47.5625 53.265625 
Q 47.5625 48.640625 45.0625 44.828125 
Q 42.578125 41.015625 37.703125 38.765625 
Q 44.046875 37.3125 47.5625 32.6875 
Q 51.078125 28.078125 51.078125 21.140625 
Q 51.078125 11.765625 44.234375 5.25 
Q 37.40625 -1.265625 26.953125 -1.265625 
Q 17.53125 -1.265625 11.296875 4.34375 
Q 5.078125 9.96875 4.203125 18.890625 
z
" id="ArialMT-51"/>
      </defs>
      <g transform="translate(359.619129 145.858359)scale(0.15 -0.15)">
       <use xlink:href="#ArialMT-8722"/>
       <use x="58.398438" xlink:href="#ArialMT-51"/>
       <use x="114.013672" xlink:href="#ArialMT-48"/>
       <use x="169.628906" xlink:href="#ArialMT-48"/>
      </g>
     </g>
    </g>
    <g id="ytick_15">
     <g id="line2d_24">
      <g>
       <use style="stroke:#000000;stroke-width:0.8;" x="400.404286" xlink:href="#m52cbd94017" y="112.77"/>
      </g>
     </g>
     <g id="text_17">
      <!-- 0 -->
      <g transform="translate(385.062879 118.138359)scale(0.15 -0.15)">
       <use xlink:href="#ArialMT-48"/>
      </g>
     </g>
    </g>
    <g id="ytick_16">
     <g id="line2d_25">
      <g>
       <use style="stroke:#000000;stroke-width:0.8;" x="400.404286" xlink:href="#m52cbd94017" y="85.05"/>
      </g>
     </g>
     <g id="text_18">
      <!-- 300 -->
      <g transform="translate(368.380067 90.418359)scale(0.15 -0.15)">
       <use xlink:href="#ArialMT-51"/>
       <use x="55.615234" xlink:href="#ArialMT-48"/>
       <use x="111.230469" xlink:href="#ArialMT-48"/>
      </g>
     </g>
    </g>
    <g id="ytick_17">
     <g id="line2d_26">
      <g>
       <use style="stroke:#000000;stroke-width:0.8;" x="400.404286" xlink:href="#m52cbd94017" y="57.33"/>
      </g>
     </g>
     <g id="text_19">
      <!-- 600 -->
      <g transform="translate(368.380067 62.698359)scale(0.15 -0.15)">
       <use xlink:href="#ArialMT-54"/>
       <use x="55.615234" xlink:href="#ArialMT-48"/>
       <use x="111.230469" xlink:href="#ArialMT-48"/>
      </g>
     </g>
    </g>
    <g id="ytick_18">
     <g id="line2d_27">
      <g>
       <use style="stroke:#000000;stroke-width:0.8;" x="400.404286" xlink:href="#m52cbd94017" y="29.61"/>
      </g>
     </g>
     <g id="text_20">
      <!-- 900 -->
      <g transform="translate(368.380067 34.978359)scale(0.15 -0.15)">
       <use xlink:href="#ArialMT-57"/>
       <use x="55.615234" xlink:href="#ArialMT-48"/>
       <use x="111.230469" xlink:href="#ArialMT-48"/>
      </g>
     </g>
    </g>
    <g id="text_21">
     <!-- Drain Current,  $I_D$  [$\mu A$/$\mu m$] -->
     <g transform="translate(350.219129 218.34)rotate(-90)scale(0.18 -0.18)">
      <use transform="translate(0 0.203125)" xlink:href="#ArialMT-68"/>
      <use transform="translate(72.216797 0.203125)" xlink:href="#ArialMT-114"/>
      <use transform="translate(105.517578 0.203125)" xlink:href="#ArialMT-97"/>
      <use transform="translate(161.132812 0.203125)" xlink:href="#ArialMT-105"/>
      <use transform="translate(183.349609 0.203125)" xlink:href="#ArialMT-110"/>
      <use transform="translate(238.964844 0.203125)" xlink:href="#ArialMT-32"/>
      <use transform="translate(266.748047 0.203125)" xlink:href="#ArialMT-67"/>
      <use transform="translate(338.964844 0.203125)" xlink:href="#ArialMT-117"/>
      <use transform="translate(394.580078 0.203125)" xlink:href="#ArialMT-114"/>
      <use transform="translate(427.880859 0.203125)" xlink:href="#ArialMT-114"/>
      <use transform="translate(461.181641 0.203125)" xlink:href="#ArialMT-101"/>
      <use transform="translate(516.796875 0.203125)" xlink:href="#ArialMT-110"/>
      <use transform="translate(572.412109 0.203125)" xlink:href="#ArialMT-116"/>
      <use transform="translate(600.195312 0.203125)" xlink:href="#ArialMT-44"/>
      <use transform="translate(627.978516 0.203125)" xlink:href="#ArialMT-32"/>
      <use transform="translate(655.761719 0.203125)" xlink:href="#ArialMT-32"/>
      <use transform="translate(683.544922 0.203125)" xlink:href="#ArialMT-73"/>
      <use transform="translate(713.070469 -29.665625)scale(0.7)" xlink:href="#ArialMT-68"/>
      <use transform="translate(768.600352 0.203125)" xlink:href="#ArialMT-32"/>
      <use transform="translate(796.383555 0.203125)" xlink:href="#ArialMT-32"/>
      <use transform="translate(824.166758 0.203125)" xlink:href="#ArialMT-91"/>
      <use transform="translate(851.949961 0.203125)" xlink:href="#ArialMT-956"/>
      <use transform="translate(909.567148 0.203125)" xlink:href="#ArialMT-65"/>
      <use transform="translate(976.266367 0.203125)" xlink:href="#ArialMT-47"/>
      <use transform="translate(1004.04957 0.203125)" xlink:href="#ArialMT-956"/>
      <use transform="translate(1061.666758 0.203125)" xlink:href="#ArialMT-109"/>
      <use transform="translate(1144.967539 0.203125)" xlink:href="#ArialMT-93"/>
     </g>
    </g>
   </g>
   <g id="line2d_28">
    <path clip-path="url(#pe2caedbb35)" d="M 410.066623 177.279497 
L 411.999091 177.705084 
L 413.931558 176.445794 
L 417.796494 172.576511 
L 421.661429 169.391677 
L 433.256234 160.891657 
L 439.053636 157.045085 
L 442.918571 154.415971 
L 444.851039 153.013551 
L 448.715974 150.499654 
L 452.580909 147.916337 
L 454.513377 145.331828 
L 456.445844 144.659029 
L 458.378312 143.858943 
L 466.108182 138.231285 
L 468.040649 136.747845 
L 469.973117 134.485284 
L 471.905584 133.819519 
L 489.297792 120.57834 
L 495.095195 116.807324 
L 498.96013 114.965994 
L 500.892597 114.213662 
L 502.825065 113.609366 
L 506.69 112.777767 
L 510.554935 111.98045 
L 514.41987 110.811028 
L 518.284805 109.308817 
L 524.082208 106.393133 
L 526.014675 105.302055 
L 527.947143 104.352178 
L 529.87961 102.930036 
L 535.677013 99.162621 
L 541.474416 95.122824 
L 545.339351 92.301586 
L 551.136753 87.879679 
L 564.664026 78.185928 
L 568.528961 75.602204 
L 570.461429 74.205152 
L 572.393896 73.013686 
L 583.988701 64.539377 
L 585.921169 63.222952 
L 587.853636 61.669926 
L 591.718571 58.264826 
L 593.651039 56.533722 
L 595.583506 53.936143 
L 597.515974 51.845596 
L 599.448442 48.764963 
L 601.380909 46.4516 
L 603.313377 45.465795 
L 603.313377 46.412085 
L 601.380909 48.648021 
L 599.448442 46.960627 
L 597.515974 49.26106 
L 595.583506 50.872888 
L 591.718571 52.798931 
L 572.393896 66.416128 
L 570.461429 67.549607 
L 568.528961 69.049773 
L 566.596494 71.313101 
L 564.664026 72.105967 
L 562.731558 73.060534 
L 560.799091 74.246525 
L 553.069221 79.751883 
L 541.474416 88.91273 
L 537.609481 92.157579 
L 535.677013 93.939256 
L 533.744545 95.382918 
L 526.014675 102.065122 
L 520.217273 106.545857 
L 518.284805 107.883861 
L 516.352338 109.071981 
L 514.41987 110.127018 
L 512.487403 111.025038 
L 510.554935 111.753493 
L 506.69 112.779872 
L 502.825065 113.762487 
L 500.892597 114.429015 
L 498.96013 115.224854 
L 495.095195 117.217687 
L 491.23026 119.561268 
L 487.365325 122.418334 
L 485.432857 123.433968 
L 481.567922 126.931954 
L 479.635455 128.460594 
L 477.702987 129.663904 
L 475.770519 131.494087 
L 473.838052 132.780698 
L 471.905584 134.799208 
L 462.243247 142.764608 
L 448.715974 152.98138 
L 429.391299 166.699918 
L 425.526364 169.500891 
L 423.593896 170.796238 
L 421.661429 172.439701 
L 417.796494 176.49905 
L 415.864026 178.977046 
L 413.931558 179.346164 
L 411.999091 178.940145 
L 410.066623 180.213091 
L 410.066623 180.213091 
" style="fill:none;stroke:#023eff;stroke-linecap:square;stroke-width:2;"/>
   </g>
   <g id="line2d_29">
    <path clip-path="url(#pe2caedbb35)" d="M 400.404286 112.77 
L 612.975714 112.77 
" style="fill:none;stroke:#808080;stroke-dasharray:0.6,0.99;stroke-dashoffset:0;stroke-width:0.6;"/>
   </g>
   <g id="line2d_30">
    <path clip-path="url(#pe2caedbb35)" d="M 506.69 195.93 
L 506.69 29.61 
" style="fill:none;stroke:#808080;stroke-dasharray:0.6,0.99;stroke-dashoffset:0;stroke-width:0.6;"/>
   </g>
   <g id="patch_8">
    <path d="M 400.404286 195.93 
L 400.404286 29.61 
" style="fill:none;stroke:#000000;stroke-linecap:square;stroke-linejoin:miter;stroke-width:0.8;"/>
   </g>
   <g id="patch_9">
    <path d="M 612.975714 195.93 
L 612.975714 29.61 
" style="fill:none;stroke:#000000;stroke-linecap:square;stroke-linejoin:miter;stroke-width:0.8;"/>
   </g>
   <g id="patch_10">
    <path d="M 400.404286 195.93 
L 612.975714 195.93 
" style="fill:none;stroke:#000000;stroke-linecap:square;stroke-linejoin:miter;stroke-width:0.8;"/>
   </g>
   <g id="patch_11">
    <path d="M 400.404286 29.61 
L 612.975714 29.61 
" style="fill:none;stroke:#000000;stroke-linecap:square;stroke-linejoin:miter;stroke-width:0.8;"/>
   </g>
   <g id="text_22">
    <!-- $V_{GS}$ = 20 V -->
    <g transform="translate(406.781429 54.558)scale(0.18 -0.18)">
     <use transform="translate(0 0.125)" xlink:href="#ArialMT-86"/>
     <use transform="translate(68.441563 -29.74375)scale(0.7)" xlink:href="#ArialMT-71"/>
     <use transform="translate(122.889805 -29.74375)scale(0.7)" xlink:href="#ArialMT-83"/>
     <use transform="translate(174.557383 0.125)" xlink:href="#ArialMT-32"/>
     <use transform="translate(202.340586 0.125)" xlink:href="#ArialMT-61"/>
     <use transform="translate(260.739023 0.125)" xlink:href="#ArialMT-32"/>
     <use transform="translate(288.522227 0.125)" xlink:href="#ArialMT-50"/>
     <use transform="translate(344.137461 0.125)" xlink:href="#ArialMT-48"/>
     <use transform="translate(399.752695 0.125)" xlink:href="#ArialMT-32"/>
     <use transform="translate(427.535898 0.125)" xlink:href="#ArialMT-86"/>
    </g>
   </g>
   <g id="text_23">
    <!-- $I_{D,max}$ = 730 $\mu A / \mu m$ -->
    <defs>
     <path d="M 0.734375 0 
L 19.671875 26.953125 
L 2.15625 51.859375 
L 13.140625 51.859375 
L 21.09375 39.703125 
Q 23.34375 36.234375 24.703125 33.890625 
Q 26.859375 37.109375 28.65625 39.59375 
L 37.40625 51.859375 
L 47.90625 51.859375 
L 29.984375 27.4375 
L 49.265625 0 
L 38.484375 0 
L 27.828125 16.109375 
L 25 20.453125 
L 11.375 0 
z
" id="ArialMT-120"/>
     <path d="M 4.734375 62.203125 
L 4.734375 70.65625 
L 51.078125 70.65625 
L 51.078125 63.8125 
Q 44.234375 56.546875 37.515625 44.484375 
Q 30.8125 32.421875 27.15625 19.671875 
Q 24.515625 10.6875 23.78125 0 
L 14.75 0 
Q 14.890625 8.453125 18.0625 20.40625 
Q 21.234375 32.375 27.171875 43.484375 
Q 33.109375 54.59375 39.796875 62.203125 
z
" id="ArialMT-55"/>
    </defs>
    <g transform="translate(406.781429 75.348)scale(0.18 -0.18)">
     <use transform="translate(0 0.203125)" xlink:href="#ArialMT-73"/>
     <use transform="translate(29.525547 -29.665625)scale(0.7)" xlink:href="#ArialMT-68"/>
     <use transform="translate(80.077305 -29.665625)scale(0.7)" xlink:href="#ArialMT-44"/>
     <use transform="translate(111.187656 -29.665625)scale(0.7)" xlink:href="#ArialMT-109"/>
     <use transform="translate(169.498203 -29.665625)scale(0.7)" xlink:href="#ArialMT-97"/>
     <use transform="translate(208.428867 -29.665625)scale(0.7)" xlink:href="#ArialMT-120"/>
     <use transform="translate(248.406992 0.203125)" xlink:href="#ArialMT-32"/>
     <use transform="translate(276.190195 0.203125)" xlink:href="#ArialMT-61"/>
     <use transform="translate(334.588633 0.203125)" xlink:href="#ArialMT-32"/>
     <use transform="translate(362.371836 0.203125)" xlink:href="#ArialMT-55"/>
     <use transform="translate(417.98707 0.203125)" xlink:href="#ArialMT-51"/>
     <use transform="translate(473.602305 0.203125)" xlink:href="#ArialMT-48"/>
     <use transform="translate(529.217539 0.203125)" xlink:href="#ArialMT-32"/>
     <use transform="translate(557.000742 0.203125)" xlink:href="#ArialMT-956"/>
     <use transform="translate(614.61793 0.203125)" xlink:href="#ArialMT-65"/>
     <use transform="translate(681.317148 0.203125)" xlink:href="#ArialMT-47"/>
     <use transform="translate(709.100352 0.203125)" xlink:href="#ArialMT-956"/>
     <use transform="translate(766.717539 0.203125)" xlink:href="#ArialMT-109"/>
    </g>
   </g>
   <g id="legend_2">
    <g id="line2d_31">
     <path d="M 502.85961 180.205043 
L 532.84761 180.205043 
" style="fill:none;stroke:#023eff;stroke-linecap:square;stroke-width:2;"/>
    </g>
    <g id="line2d_32"/>
    <g id="text_24">
     <!-- 100 nm -->
     <g transform="translate(544.84281 185.452943)scale(0.14994 -0.14994)">
      <use xlink:href="#ArialMT-49"/>
      <use x="55.615234" xlink:href="#ArialMT-48"/>
      <use x="111.230469" xlink:href="#ArialMT-48"/>
      <use x="166.845703" xlink:href="#ArialMT-32"/>
      <use x="194.628906" xlink:href="#ArialMT-110"/>
      <use x="250.244141" xlink:href="#ArialMT-109"/>
     </g>
    </g>
   </g>
  </g>
  <g id="axes_3">
   <g id="patch_12">
    <path d="M 740.518571 195.93 
L 953.09 195.93 
L 953.09 29.61 
L 740.518571 29.61 
z
" style="fill:none;"/>
   </g>
   <g id="matplotlib.axis_5">
    <g id="xtick_7">
     <g id="line2d_33">
      <g>
       <use style="stroke:#000000;stroke-width:0.8;" x="750.180909" xlink:href="#m67e979fa71" y="195.93"/>
      </g>
     </g>
     <g id="text_25">
      <!-- −5 -->
      <g transform="translate(741.629737 213.666719)scale(0.15 -0.15)">
       <use xlink:href="#ArialMT-8722"/>
       <use x="58.398438" xlink:href="#ArialMT-53"/>
      </g>
     </g>
    </g>
    <g id="xtick_8">
     <g id="line2d_34">
      <g>
       <use style="stroke:#000000;stroke-width:0.8;" x="846.804286" xlink:href="#m67e979fa71" y="195.93"/>
      </g>
     </g>
     <g id="text_26">
      <!-- 0 -->
      <g transform="translate(842.633583 213.666719)scale(0.15 -0.15)">
       <use xlink:href="#ArialMT-48"/>
      </g>
     </g>
    </g>
    <g id="xtick_9">
     <g id="line2d_35">
      <g>
       <use style="stroke:#000000;stroke-width:0.8;" x="943.427662" xlink:href="#m67e979fa71" y="195.93"/>
      </g>
     </g>
     <g id="text_27">
      <!-- 5 -->
      <g transform="translate(939.256959 213.666719)scale(0.15 -0.15)">
       <use xlink:href="#ArialMT-53"/>
      </g>
     </g>
    </g>
    <g id="text_28">
     <!-- Drain Voltage,  $V_{DS}$  [V] -->
     <g transform="translate(753.384286 233.607969)scale(0.18 -0.18)">
      <use transform="translate(0 0.421875)" xlink:href="#ArialMT-68"/>
      <use transform="translate(72.216797 0.421875)" xlink:href="#ArialMT-114"/>
      <use transform="translate(105.517578 0.421875)" xlink:href="#ArialMT-97"/>
      <use transform="translate(161.132812 0.421875)" xlink:href="#ArialMT-105"/>
      <use transform="translate(183.349609 0.421875)" xlink:href="#ArialMT-110"/>
      <use transform="translate(238.964844 0.421875)" xlink:href="#ArialMT-32"/>
      <use transform="translate(266.748047 0.421875)" xlink:href="#ArialMT-86"/>
      <use transform="translate(333.447266 0.421875)" xlink:href="#ArialMT-111"/>
      <use transform="translate(389.0625 0.421875)" xlink:href="#ArialMT-108"/>
      <use transform="translate(411.279297 0.421875)" xlink:href="#ArialMT-116"/>
      <use transform="translate(439.0625 0.421875)" xlink:href="#ArialMT-97"/>
      <use transform="translate(494.677734 0.421875)" xlink:href="#ArialMT-103"/>
      <use transform="translate(550.292969 0.421875)" xlink:href="#ArialMT-101"/>
      <use transform="translate(605.908203 0.421875)" xlink:href="#ArialMT-44"/>
      <use transform="translate(633.691406 0.421875)" xlink:href="#ArialMT-32"/>
      <use transform="translate(661.474609 0.421875)" xlink:href="#ArialMT-32"/>
      <use transform="translate(689.257812 0.421875)" xlink:href="#ArialMT-86"/>
      <use transform="translate(757.699375 -29.446875)scale(0.7)" xlink:href="#ArialMT-68"/>
      <use transform="translate(808.251133 -29.446875)scale(0.7)" xlink:href="#ArialMT-83"/>
      <use transform="translate(859.918711 0.421875)" xlink:href="#ArialMT-32"/>
      <use transform="translate(887.701914 0.421875)" xlink:href="#ArialMT-32"/>
      <use transform="translate(915.485117 0.421875)" xlink:href="#ArialMT-91"/>
      <use transform="translate(943.26832 0.421875)" xlink:href="#ArialMT-86"/>
      <use transform="translate(1009.967539 0.421875)" xlink:href="#ArialMT-93"/>
     </g>
    </g>
   </g>
   <g id="matplotlib.axis_6">
    <g id="ytick_19">
     <g id="line2d_36">
      <g>
       <use style="stroke:#000000;stroke-width:0.8;" x="740.518571" xlink:href="#m52cbd94017" y="195.93"/>
      </g>
     </g>
     <g id="text_29">
      <!-- −900 -->
      <g transform="translate(699.733415 201.298359)scale(0.15 -0.15)">
       <use xlink:href="#ArialMT-8722"/>
       <use x="58.398438" xlink:href="#ArialMT-57"/>
       <use x="114.013672" xlink:href="#ArialMT-48"/>
       <use x="169.628906" xlink:href="#ArialMT-48"/>
      </g>
     </g>
    </g>
    <g id="ytick_20">
     <g id="line2d_37">
      <g>
       <use style="stroke:#000000;stroke-width:0.8;" x="740.518571" xlink:href="#m52cbd94017" y="168.21"/>
      </g>
     </g>
     <g id="text_30">
      <!-- −600 -->
      <g transform="translate(699.733415 173.578359)scale(0.15 -0.15)">
       <use xlink:href="#ArialMT-8722"/>
       <use x="58.398438" xlink:href="#ArialMT-54"/>
       <use x="114.013672" xlink:href="#ArialMT-48"/>
       <use x="169.628906" xlink:href="#ArialMT-48"/>
      </g>
     </g>
    </g>
    <g id="ytick_21">
     <g id="line2d_38">
      <g>
       <use style="stroke:#000000;stroke-width:0.8;" x="740.518571" xlink:href="#m52cbd94017" y="140.49"/>
      </g>
     </g>
     <g id="text_31">
      <!-- −300 -->
      <g transform="translate(699.733415 145.858359)scale(0.15 -0.15)">
       <use xlink:href="#ArialMT-8722"/>
       <use x="58.398438" xlink:href="#ArialMT-51"/>
       <use x="114.013672" xlink:href="#ArialMT-48"/>
       <use x="169.628906" xlink:href="#ArialMT-48"/>
      </g>
     </g>
    </g>
    <g id="ytick_22">
     <g id="line2d_39">
      <g>
       <use style="stroke:#000000;stroke-width:0.8;" x="740.518571" xlink:href="#m52cbd94017" y="112.77"/>
      </g>
     </g>
     <g id="text_32">
      <!-- 0 -->
      <g transform="translate(725.177165 118.138359)scale(0.15 -0.15)">
       <use xlink:href="#ArialMT-48"/>
      </g>
     </g>
    </g>
    <g id="ytick_23">
     <g id="line2d_40">
      <g>
       <use style="stroke:#000000;stroke-width:0.8;" x="740.518571" xlink:href="#m52cbd94017" y="85.05"/>
      </g>
     </g>
     <g id="text_33">
      <!-- 300 -->
      <g transform="translate(708.494353 90.418359)scale(0.15 -0.15)">
       <use xlink:href="#ArialMT-51"/>
       <use x="55.615234" xlink:href="#ArialMT-48"/>
       <use x="111.230469" xlink:href="#ArialMT-48"/>
      </g>
     </g>
    </g>
    <g id="ytick_24">
     <g id="line2d_41">
      <g>
       <use style="stroke:#000000;stroke-width:0.8;" x="740.518571" xlink:href="#m52cbd94017" y="57.33"/>
      </g>
     </g>
     <g id="text_34">
      <!-- 600 -->
      <g transform="translate(708.494353 62.698359)scale(0.15 -0.15)">
       <use xlink:href="#ArialMT-54"/>
       <use x="55.615234" xlink:href="#ArialMT-48"/>
       <use x="111.230469" xlink:href="#ArialMT-48"/>
      </g>
     </g>
    </g>
    <g id="ytick_25">
     <g id="line2d_42">
      <g>
       <use style="stroke:#000000;stroke-width:0.8;" x="740.518571" xlink:href="#m52cbd94017" y="29.61"/>
      </g>
     </g>
     <g id="text_35">
      <!-- 900 -->
      <g transform="translate(708.494353 34.978359)scale(0.15 -0.15)">
       <use xlink:href="#ArialMT-57"/>
       <use x="55.615234" xlink:href="#ArialMT-48"/>
       <use x="111.230469" xlink:href="#ArialMT-48"/>
      </g>
     </g>
    </g>
    <g id="text_36">
     <!-- Drain Current,  $I_D$  [$\mu A$/$\mu m$] -->
     <g transform="translate(690.333415 218.34)rotate(-90)scale(0.18 -0.18)">
      <use transform="translate(0 0.203125)" xlink:href="#ArialMT-68"/>
      <use transform="translate(72.216797 0.203125)" xlink:href="#ArialMT-114"/>
      <use transform="translate(105.517578 0.203125)" xlink:href="#ArialMT-97"/>
      <use transform="translate(161.132812 0.203125)" xlink:href="#ArialMT-105"/>
      <use transform="translate(183.349609 0.203125)" xlink:href="#ArialMT-110"/>
      <use transform="translate(238.964844 0.203125)" xlink:href="#ArialMT-32"/>
      <use transform="translate(266.748047 0.203125)" xlink:href="#ArialMT-67"/>
      <use transform="translate(338.964844 0.203125)" xlink:href="#ArialMT-117"/>
      <use transform="translate(394.580078 0.203125)" xlink:href="#ArialMT-114"/>
      <use transform="translate(427.880859 0.203125)" xlink:href="#ArialMT-114"/>
      <use transform="translate(461.181641 0.203125)" xlink:href="#ArialMT-101"/>
      <use transform="translate(516.796875 0.203125)" xlink:href="#ArialMT-110"/>
      <use transform="translate(572.412109 0.203125)" xlink:href="#ArialMT-116"/>
      <use transform="translate(600.195312 0.203125)" xlink:href="#ArialMT-44"/>
      <use transform="translate(627.978516 0.203125)" xlink:href="#ArialMT-32"/>
      <use transform="translate(655.761719 0.203125)" xlink:href="#ArialMT-32"/>
      <use transform="translate(683.544922 0.203125)" xlink:href="#ArialMT-73"/>
      <use transform="translate(713.070469 -29.665625)scale(0.7)" xlink:href="#ArialMT-68"/>
      <use transform="translate(768.600352 0.203125)" xlink:href="#ArialMT-32"/>
      <use transform="translate(796.383555 0.203125)" xlink:href="#ArialMT-32"/>
      <use transform="translate(824.166758 0.203125)" xlink:href="#ArialMT-91"/>
      <use transform="translate(851.949961 0.203125)" xlink:href="#ArialMT-956"/>
      <use transform="translate(909.567148 0.203125)" xlink:href="#ArialMT-65"/>
      <use transform="translate(976.266367 0.203125)" xlink:href="#ArialMT-47"/>
      <use transform="translate(1004.04957 0.203125)" xlink:href="#ArialMT-956"/>
      <use transform="translate(1061.666758 0.203125)" xlink:href="#ArialMT-109"/>
      <use transform="translate(1144.967539 0.203125)" xlink:href="#ArialMT-93"/>
     </g>
    </g>
   </g>
   <g id="line2d_43">
    <path clip-path="url(#pf215705a16)" d="M 750.180909 161.026628 
L 752.113377 160.561295 
L 754.045844 159.189725 
L 757.910779 157.157346 
L 765.640649 152.125079 
L 769.505584 149.882017 
L 773.370519 146.67927 
L 775.302987 146.727864 
L 777.235455 145.449563 
L 779.167922 144.518952 
L 781.10039 142.045216 
L 783.032857 140.929499 
L 784.965325 140.805124 
L 786.897792 140.360409 
L 788.83026 139.405804 
L 790.762727 136.523416 
L 792.695195 133.22378 
L 794.627662 134.628808 
L 796.56013 132.483612 
L 798.492597 131.408355 
L 800.425065 131.574896 
L 802.357532 129.140425 
L 804.29 128.118398 
L 806.222468 127.388464 
L 808.154935 127.812258 
L 810.087403 125.628373 
L 812.01987 125.766648 
L 813.952338 124.508494 
L 815.884805 122.641654 
L 817.817273 122.598904 
L 819.74974 121.366604 
L 821.682208 120.626666 
L 823.614675 120.150631 
L 829.412078 117.323516 
L 835.209481 114.931518 
L 839.074416 113.775538 
L 841.006883 113.341642 
L 844.871818 112.918336 
L 850.669221 112.383978 
L 854.534156 111.803526 
L 858.399091 111.003447 
L 862.264026 110.092758 
L 871.926364 106.88694 
L 877.723766 104.586945 
L 883.521169 102.025917 
L 898.980909 94.271796 
L 902.845844 92.209827 
L 910.575714 88.350008 
L 916.373117 85.429772 
L 918.305584 84.297479 
L 920.238052 83.347454 
L 927.967922 78.780985 
L 929.90039 77.473714 
L 933.765325 73.746841 
L 935.697792 71.507439 
L 937.63026 70.541246 
L 941.495195 66.485896 
L 943.427662 68.249545 
L 943.427662 67.252886 
L 941.495195 68.445584 
L 939.562727 68.68041 
L 937.63026 69.295014 
L 935.697792 70.30428 
L 933.765325 70.730439 
L 931.832857 71.562395 
L 927.967922 73.674251 
L 914.440649 80.242734 
L 898.980909 87.474533 
L 895.115974 89.48349 
L 889.318571 92.644098 
L 885.453636 94.859151 
L 871.926364 102.825768 
L 866.128961 106.106432 
L 862.264026 108.08919 
L 858.399091 109.79739 
L 854.534156 111.181136 
L 850.669221 112.157331 
L 846.804286 112.774729 
L 842.939351 113.347683 
L 839.074416 114.253772 
L 835.209481 115.546082 
L 831.344545 117.166267 
L 827.47961 119.069309 
L 823.614675 121.15432 
L 815.884805 125.698655 
L 790.762727 140.906506 
L 771.438052 151.428798 
L 769.505584 152.388993 
L 763.708182 156.156406 
L 761.775714 157.731421 
L 759.843247 159.499623 
L 757.910779 161.07555 
L 755.978312 163.058142 
L 754.045844 164.525371 
L 752.113377 165.265959 
L 750.180909 164.037955 
L 750.180909 164.037955 
" style="fill:none;stroke:#023eff;stroke-linecap:square;stroke-width:2;"/>
   </g>
   <g id="line2d_44">
    <path clip-path="url(#pf215705a16)" d="M 750.180909 173.302287 
L 752.113377 169.369293 
L 754.045844 168.747927 
L 755.978312 167.412603 
L 757.910779 167.093777 
L 759.843247 165.72018 
L 761.775714 165.370305 
L 763.708182 163.820302 
L 771.438052 158.587276 
L 775.302987 156.068717 
L 779.167922 153.646982 
L 798.492597 141.227844 
L 804.29 137.313205 
L 810.087403 133.227789 
L 825.547143 122.080249 
L 829.412078 119.501687 
L 833.277013 117.172168 
L 837.141948 115.272896 
L 839.074416 114.520118 
L 841.006883 113.897109 
L 842.939351 113.412519 
L 846.804286 112.775312 
L 850.669221 112.154056 
L 854.534156 111.225251 
L 858.399091 109.943266 
L 862.264026 108.413165 
L 868.061429 105.686521 
L 871.926364 103.636984 
L 879.656234 98.982782 
L 900.913377 85.169157 
L 902.845844 83.901463 
L 904.778312 82.805815 
L 906.710779 81.499709 
L 910.575714 79.156708 
L 916.373117 75.637339 
L 918.305584 74.431031 
L 920.238052 73.053384 
L 922.170519 71.980401 
L 931.832857 64.905268 
L 933.765325 62.751853 
L 937.63026 58.845181 
L 939.562727 56.560517 
L 941.495195 54.080741 
L 943.427662 53.717877 
L 943.427662 56.719346 
L 941.495195 56.692696 
L 939.562727 56.994268 
L 937.63026 58.189319 
L 935.697792 58.889628 
L 933.765325 60.131067 
L 931.832857 61.01316 
L 929.90039 62.202596 
L 927.967922 63.125662 
L 926.035455 64.313565 
L 924.102987 65.352933 
L 916.373117 70.040868 
L 914.440649 71.674381 
L 912.508182 72.463985 
L 910.575714 73.442195 
L 908.643247 76.385427 
L 906.710779 77.012377 
L 904.778312 78.687358 
L 902.845844 78.104486 
L 897.048442 81.508701 
L 893.183506 84.10675 
L 883.521169 90.848558 
L 881.588701 92.929756 
L 879.656234 93.759897 
L 873.858831 98.399448 
L 871.926364 100.398607 
L 869.993896 101.051228 
L 868.061429 103.286408 
L 866.128961 103.84786 
L 860.331558 107.759856 
L 854.534156 110.744692 
L 850.669221 111.957149 
L 846.804286 112.776456 
L 842.939351 113.539854 
L 841.006883 114.095172 
L 839.074416 114.775482 
L 835.209481 116.405412 
L 829.412078 119.73771 
L 827.47961 121.078638 
L 825.547143 122.098139 
L 823.614675 122.778928 
L 819.74974 126.651653 
L 812.01987 132.575592 
L 808.154935 135.474058 
L 806.222468 135.785598 
L 804.29 137.134576 
L 802.357532 139.643093 
L 800.425065 140.782317 
L 798.492597 139.874835 
L 796.56013 143.574735 
L 794.627662 145.101506 
L 792.695195 145.091091 
L 790.762727 145.281416 
L 788.83026 147.150468 
L 786.897792 150.526794 
L 784.965325 150.737105 
L 783.032857 151.888698 
L 781.10039 154.272443 
L 779.167922 155.481972 
L 777.235455 156.409793 
L 775.302987 157.483018 
L 773.370519 158.277798 
L 771.438052 160.319117 
L 769.505584 161.639162 
L 767.573117 162.227939 
L 765.640649 162.202661 
L 763.708182 164.393821 
L 761.775714 164.768856 
L 759.843247 168.053583 
L 757.910779 168.732599 
L 755.978312 171.758114 
L 754.045844 171.807219 
L 752.113377 172.147827 
L 750.180909 175.03259 
L 750.180909 175.03259 
" style="fill:none;stroke:#ff7c00;stroke-linecap:square;stroke-width:2;"/>
   </g>
   <g id="line2d_45">
    <path clip-path="url(#pf215705a16)" d="M 750.180909 177.279497 
L 752.113377 177.705084 
L 754.045844 176.445794 
L 757.910779 172.576511 
L 761.775714 169.391677 
L 773.370519 160.891657 
L 779.167922 157.045085 
L 783.032857 154.415971 
L 784.965325 153.013551 
L 788.83026 150.499654 
L 792.695195 147.916337 
L 794.627662 145.331828 
L 796.56013 144.659029 
L 798.492597 143.858943 
L 806.222468 138.231285 
L 808.154935 136.747845 
L 810.087403 134.485284 
L 812.01987 133.819519 
L 829.412078 120.57834 
L 835.209481 116.807324 
L 839.074416 114.965994 
L 841.006883 114.213662 
L 842.939351 113.609366 
L 846.804286 112.777767 
L 850.669221 111.98045 
L 854.534156 110.811028 
L 858.399091 109.308817 
L 864.196494 106.393133 
L 866.128961 105.302055 
L 868.061429 104.352178 
L 869.993896 102.930036 
L 875.791299 99.162621 
L 881.588701 95.122824 
L 885.453636 92.301586 
L 891.251039 87.879679 
L 904.778312 78.185928 
L 908.643247 75.602204 
L 910.575714 74.205152 
L 912.508182 73.013686 
L 924.102987 64.539377 
L 926.035455 63.222952 
L 927.967922 61.669926 
L 931.832857 58.264826 
L 933.765325 56.533722 
L 935.697792 53.936143 
L 937.63026 51.845596 
L 939.562727 48.764963 
L 941.495195 46.4516 
L 943.427662 45.465795 
L 943.427662 46.412085 
L 941.495195 48.648021 
L 939.562727 46.960627 
L 937.63026 49.26106 
L 935.697792 50.872888 
L 931.832857 52.798931 
L 912.508182 66.416128 
L 910.575714 67.549607 
L 908.643247 69.049773 
L 906.710779 71.313101 
L 904.778312 72.105967 
L 902.845844 73.060534 
L 900.913377 74.246525 
L 893.183506 79.751883 
L 881.588701 88.91273 
L 877.723766 92.157579 
L 875.791299 93.939256 
L 873.858831 95.382918 
L 866.128961 102.065122 
L 860.331558 106.545857 
L 858.399091 107.883861 
L 856.466623 109.071981 
L 854.534156 110.127018 
L 852.601688 111.025038 
L 850.669221 111.753493 
L 846.804286 112.779872 
L 842.939351 113.762487 
L 841.006883 114.429015 
L 839.074416 115.224854 
L 835.209481 117.217687 
L 831.344545 119.561268 
L 827.47961 122.418334 
L 825.547143 123.433968 
L 821.682208 126.931954 
L 819.74974 128.460594 
L 817.817273 129.663904 
L 815.884805 131.494087 
L 813.952338 132.780698 
L 812.01987 134.799208 
L 802.357532 142.764608 
L 788.83026 152.98138 
L 769.505584 166.699918 
L 765.640649 169.500891 
L 763.708182 170.796238 
L 761.775714 172.439701 
L 757.910779 176.49905 
L 755.978312 178.977046 
L 754.045844 179.346164 
L 752.113377 178.940145 
L 750.180909 180.213091 
L 750.180909 180.213091 
" style="fill:none;stroke:#1ac938;stroke-linecap:square;stroke-width:2;"/>
   </g>
   <g id="line2d_46">
    <path clip-path="url(#pf215705a16)" d="M 740.518571 112.77 
L 953.09 112.77 
" style="fill:none;stroke:#808080;stroke-dasharray:0.6,0.99;stroke-dashoffset:0;stroke-width:0.6;"/>
   </g>
   <g id="line2d_47">
    <path clip-path="url(#pf215705a16)" d="M 846.804286 195.93 
L 846.804286 29.61 
" style="fill:none;stroke:#808080;stroke-dasharray:0.6,0.99;stroke-dashoffset:0;stroke-width:0.6;"/>
   </g>
   <g id="patch_13">
    <path d="M 740.518571 195.93 
L 740.518571 29.61 
" style="fill:none;stroke:#000000;stroke-linecap:square;stroke-linejoin:miter;stroke-width:0.8;"/>
   </g>
   <g id="patch_14">
    <path d="M 953.09 195.93 
L 953.09 29.61 
" style="fill:none;stroke:#000000;stroke-linecap:square;stroke-linejoin:miter;stroke-width:0.8;"/>
   </g>
   <g id="patch_15">
    <path d="M 740.518571 195.93 
L 953.09 195.93 
" style="fill:none;stroke:#000000;stroke-linecap:square;stroke-linejoin:miter;stroke-width:0.8;"/>
   </g>
   <g id="patch_16">
    <path d="M 740.518571 29.61 
L 953.09 29.61 
" style="fill:none;stroke:#000000;stroke-linecap:square;stroke-linejoin:miter;stroke-width:0.8;"/>
   </g>
   <g id="text_37">
    <!-- $L_{ch}$ = 100 nm -->
    <defs>
     <path d="M 7.328125 0 
L 7.328125 71.578125 
L 16.796875 71.578125 
L 16.796875 8.453125 
L 52.046875 8.453125 
L 52.046875 0 
z
" id="ArialMT-76"/>
     <path d="M 40.4375 19 
L 49.078125 17.875 
Q 47.65625 8.9375 41.8125 3.875 
Q 35.984375 -1.171875 27.484375 -1.171875 
Q 16.84375 -1.171875 10.375 5.78125 
Q 3.90625 12.75 3.90625 25.734375 
Q 3.90625 34.125 6.6875 40.421875 
Q 9.46875 46.734375 15.15625 49.875 
Q 20.84375 53.03125 27.546875 53.03125 
Q 35.984375 53.03125 41.359375 48.75 
Q 46.734375 44.484375 48.25 36.625 
L 39.703125 35.296875 
Q 38.484375 40.53125 35.375 43.15625 
Q 32.28125 45.796875 27.875 45.796875 
Q 21.234375 45.796875 17.078125 41.03125 
Q 12.9375 36.28125 12.9375 25.984375 
Q 12.9375 15.53125 16.9375 10.796875 
Q 20.953125 6.0625 27.390625 6.0625 
Q 32.5625 6.0625 36.03125 9.234375 
Q 39.5 12.40625 40.4375 19 
z
" id="ArialMT-99"/>
     <path d="M 6.59375 0 
L 6.59375 71.578125 
L 15.375 71.578125 
L 15.375 45.90625 
Q 21.53125 53.03125 30.90625 53.03125 
Q 36.671875 53.03125 40.921875 50.75 
Q 45.171875 48.484375 47 44.484375 
Q 48.828125 40.484375 48.828125 32.859375 
L 48.828125 0 
L 40.046875 0 
L 40.046875 32.859375 
Q 40.046875 39.453125 37.1875 42.453125 
Q 34.328125 45.453125 29.109375 45.453125 
Q 25.203125 45.453125 21.75 43.421875 
Q 18.3125 41.40625 16.84375 37.9375 
Q 15.375 34.46875 15.375 28.375 
L 15.375 0 
z
" id="ArialMT-104"/>
    </defs>
    <g transform="translate(751.147143 54.558)scale(0.18 -0.18)">
     <use transform="translate(0 0.125)" xlink:href="#ArialMT-76"/>
     <use transform="translate(57.357578 -29.74375)scale(0.7)" xlink:href="#ArialMT-99"/>
     <use transform="translate(92.357578 -29.74375)scale(0.7)" xlink:href="#ArialMT-104"/>
     <use transform="translate(136.266367 0.125)" xlink:href="#ArialMT-32"/>
     <use transform="translate(164.04957 0.125)" xlink:href="#ArialMT-61"/>
     <use transform="translate(222.448008 0.125)" xlink:href="#ArialMT-32"/>
     <use transform="translate(250.231211 0.125)" xlink:href="#ArialMT-49"/>
     <use transform="translate(305.846445 0.125)" xlink:href="#ArialMT-48"/>
     <use transform="translate(361.46168 0.125)" xlink:href="#ArialMT-48"/>
     <use transform="translate(417.076914 0.125)" xlink:href="#ArialMT-32"/>
     <use transform="translate(444.860117 0.125)" xlink:href="#ArialMT-110"/>
     <use transform="translate(500.475352 0.125)" xlink:href="#ArialMT-109"/>
    </g>
   </g>
   <g id="legend_3">
    <g id="line2d_48">
     <path d="M 849.634512 129.470079 
L 879.622512 129.470079 
" style="fill:none;stroke:#023eff;stroke-linecap:square;stroke-width:2;"/>
    </g>
    <g id="line2d_49"/>
    <g id="text_38">
     <!-- 0.0 V -->
     <g transform="translate(891.617712 134.717979)scale(0.14994 -0.14994)">
      <use xlink:href="#ArialMT-48"/>
      <use x="55.615234" xlink:href="#ArialMT-46"/>
      <use x="83.398438" xlink:href="#ArialMT-48"/>
      <use x="139.013672" xlink:href="#ArialMT-32"/>
      <use x="166.796875" xlink:href="#ArialMT-86"/>
     </g>
    </g>
    <g id="line2d_50">
     <path d="M 849.634512 150.679561 
L 879.622512 150.679561 
" style="fill:none;stroke:#ff7c00;stroke-linecap:square;stroke-width:2;"/>
    </g>
    <g id="line2d_51"/>
    <g id="text_39">
     <!-- 10.0 V -->
     <g transform="translate(891.617712 155.927461)scale(0.14994 -0.14994)">
      <use xlink:href="#ArialMT-49"/>
      <use x="55.615234" xlink:href="#ArialMT-48"/>
      <use x="111.230469" xlink:href="#ArialMT-46"/>
      <use x="139.013672" xlink:href="#ArialMT-48"/>
      <use x="194.628906" xlink:href="#ArialMT-32"/>
      <use x="222.412109" xlink:href="#ArialMT-86"/>
     </g>
    </g>
    <g id="line2d_52">
     <path d="M 849.634512 171.889043 
L 879.622512 171.889043 
" style="fill:none;stroke:#1ac938;stroke-linecap:square;stroke-width:2;"/>
    </g>
    <g id="line2d_53"/>
    <g id="text_40">
     <!-- 20.0 V -->
     <g transform="translate(891.617712 177.136943)scale(0.14994 -0.14994)">
      <use xlink:href="#ArialMT-50"/>
      <use x="55.615234" xlink:href="#ArialMT-48"/>
      <use x="111.230469" xlink:href="#ArialMT-46"/>
      <use x="139.013672" xlink:href="#ArialMT-48"/>
      <use x="194.628906" xlink:href="#ArialMT-32"/>
      <use x="222.412109" xlink:href="#ArialMT-86"/>
     </g>
    </g>
   </g>
  </g>
  <g id="text_41">
   <!-- 5-3 -->
   <defs>
    <path d="M 3.171875 21.484375 
L 3.171875 30.328125 
L 30.171875 30.328125 
L 30.171875 21.484375 
z
" id="ArialMT-45"/>
   </defs>
   <g transform="translate(482.173906 18.030937)scale(0.14 -0.14)">
    <use xlink:href="#ArialMT-53"/>
    <use x="55.615234" xlink:href="#ArialMT-45"/>
    <use x="88.916016" xlink:href="#ArialMT-51"/>
   </g>
  </g>
 </g>
 <defs>
  <clipPath id="p6773d11049">
   <rect height="166.32" width="212.571429" x="60.29" y="29.61"/>
  </clipPath>
  <clipPath id="pe2caedbb35">
   <rect height="166.32" width="212.571429" x="400.404286" y="29.61"/>
  </clipPath>
  <clipPath id="pf215705a16">
   <rect height="166.32" width="212.571429" x="740.518571" y="29.61"/>
  </clipPath>
 </defs>
</svg>
