<?xml version="1.0" encoding="utf-8" standalone="no"?>
<!DOCTYPE svg PUBLIC "-//W3C//DTD SVG 1.1//EN"
  "http://www.w3.org/Graphics/SVG/1.1/DTD/svg11.dtd">
<!-- Created with matplotlib (https://matplotlib.org/) -->
<svg height="246.567969pt" version="1.1" viewBox="0 0 960.29 246.567969" width="960.29pt" xmlns="http://www.w3.org/2000/svg" xmlns:xlink="http://www.w3.org/1999/xlink">
 <defs>
  <style type="text/css">
*{stroke-linecap:butt;stroke-linejoin:round;}
  </style>
 </defs>
 <g id="figure_1">
  <g id="patch_1">
   <path d="M 0 246.567969 
L 960.29 246.567969 
L 960.29 0 
L 0 0 
z
" style="fill:none;"/>
  </g>
  <g id="axes_1">
   <g id="patch_2">
    <path d="M 60.29 195.93 
L 272.861429 195.93 
L 272.861429 29.61 
L 60.29 29.61 
z
" style="fill:none;"/>
   </g>
   <g id="matplotlib.axis_1">
    <g id="xtick_1">
     <g id="line2d_1">
      <defs>
       <path d="M 0 0 
L 0 3.5 
" id="m36dfff74c2" style="stroke:#000000;stroke-width:0.8;"/>
      </defs>
      <g>
       <use style="stroke:#000000;stroke-width:0.8;" x="69.951619" xlink:href="#m36dfff74c2" y="195.93"/>
      </g>
     </g>
     <g id="text_1">
      <!-- −20 -->
      <defs>
       <path d="M 52.828125 31.203125 
L 5.5625 31.203125 
L 5.5625 39.40625 
L 52.828125 39.40625 
z
" id="ArialMT-8722"/>
       <path d="M 50.34375 8.453125 
L 50.34375 0 
L 3.03125 0 
Q 2.9375 3.171875 4.046875 6.109375 
Q 5.859375 10.9375 9.828125 15.625 
Q 13.8125 20.3125 21.34375 26.46875 
Q 33.015625 36.03125 37.109375 41.625 
Q 41.21875 47.21875 41.21875 52.203125 
Q 41.21875 57.421875 37.46875 61 
Q 33.734375 64.59375 27.734375 64.59375 
Q 21.390625 64.59375 17.578125 60.78125 
Q 13.765625 56.984375 13.71875 50.25 
L 4.6875 51.171875 
Q 5.609375 61.28125 11.65625 66.578125 
Q 17.71875 71.875 27.9375 71.875 
Q 38.234375 71.875 44.234375 66.15625 
Q 50.25 60.453125 50.25 52 
Q 50.25 47.703125 48.484375 43.546875 
Q 46.734375 39.40625 42.65625 34.8125 
Q 38.578125 30.21875 29.109375 22.21875 
Q 21.1875 15.578125 18.9375 13.203125 
Q 16.703125 10.84375 15.234375 8.453125 
z
" id="ArialMT-50"/>
       <path d="M 4.15625 35.296875 
Q 4.15625 48 6.765625 55.734375 
Q 9.375 63.484375 14.515625 67.671875 
Q 19.671875 71.875 27.484375 71.875 
Q 33.25 71.875 37.59375 69.546875 
Q 41.9375 67.234375 44.765625 62.859375 
Q 47.609375 58.5 49.21875 52.21875 
Q 50.828125 45.953125 50.828125 35.296875 
Q 50.828125 22.703125 48.234375 14.96875 
Q 45.65625 7.234375 40.5 3 
Q 35.359375 -1.21875 27.484375 -1.21875 
Q 17.140625 -1.21875 11.234375 6.203125 
Q 4.15625 15.140625 4.15625 35.296875 
z
M 13.1875 35.296875 
Q 13.1875 17.671875 17.3125 11.828125 
Q 21.4375 6 27.484375 6 
Q 33.546875 6 37.671875 11.859375 
Q 41.796875 17.71875 41.796875 35.296875 
Q 41.796875 52.984375 37.671875 58.78125 
Q 33.546875 64.59375 27.390625 64.59375 
Q 21.34375 64.59375 17.71875 59.46875 
Q 13.1875 52.9375 13.1875 35.296875 
z
" id="ArialMT-48"/>
      </defs>
      <g transform="translate(57.229744 213.666719)scale(0.15 -0.15)">
       <use xlink:href="#ArialMT-8722"/>
       <use x="58.398438" xlink:href="#ArialMT-50"/>
       <use x="114.013672" xlink:href="#ArialMT-48"/>
      </g>
     </g>
    </g>
    <g id="xtick_2">
     <g id="line2d_2">
      <g>
       <use style="stroke:#000000;stroke-width:0.8;" x="166.576392" xlink:href="#m36dfff74c2" y="195.93"/>
      </g>
     </g>
     <g id="text_2">
      <!-- 0 -->
      <g transform="translate(162.405688 213.666719)scale(0.15 -0.15)">
       <use xlink:href="#ArialMT-48"/>
      </g>
     </g>
    </g>
    <g id="xtick_3">
     <g id="line2d_3">
      <g>
       <use style="stroke:#000000;stroke-width:0.8;" x="263.201164" xlink:href="#m36dfff74c2" y="195.93"/>
      </g>
     </g>
     <g id="text_3">
      <!-- 20 -->
      <g transform="translate(254.859758 213.666719)scale(0.15 -0.15)">
       <use xlink:href="#ArialMT-50"/>
       <use x="55.615234" xlink:href="#ArialMT-48"/>
      </g>
     </g>
    </g>
    <g id="text_4">
     <!-- Gate Voltage,  $V_{GS}$  [V] -->
     <defs>
      <path d="M 41.21875 28.078125 
L 41.21875 36.46875 
L 71.53125 36.53125 
L 71.53125 9.96875 
Q 64.546875 4.390625 57.125 1.578125 
Q 49.703125 -1.21875 41.890625 -1.21875 
Q 31.34375 -1.21875 22.71875 3.296875 
Q 14.109375 7.8125 9.71875 16.359375 
Q 5.328125 24.90625 5.328125 35.453125 
Q 5.328125 45.90625 9.6875 54.953125 
Q 14.0625 64.015625 22.265625 68.40625 
Q 30.46875 72.796875 41.15625 72.796875 
Q 48.921875 72.796875 55.1875 70.28125 
Q 61.46875 67.78125 65.03125 63.28125 
Q 68.609375 58.796875 70.453125 51.5625 
L 61.921875 49.21875 
Q 60.296875 54.6875 57.90625 57.8125 
Q 55.515625 60.9375 51.0625 62.8125 
Q 46.625 64.703125 41.21875 64.703125 
Q 34.71875 64.703125 29.984375 62.71875 
Q 25.25 60.75 22.34375 57.515625 
Q 19.4375 54.296875 17.828125 50.4375 
Q 15.09375 43.796875 15.09375 36.03125 
Q 15.09375 26.46875 18.390625 20.015625 
Q 21.6875 13.578125 27.984375 10.453125 
Q 34.28125 7.328125 41.359375 7.328125 
Q 47.515625 7.328125 53.375 9.6875 
Q 59.234375 12.0625 62.25 14.75 
L 62.25 28.078125 
z
" id="ArialMT-71"/>
      <path d="M 40.4375 6.390625 
Q 35.546875 2.25 31.03125 0.53125 
Q 26.515625 -1.171875 21.34375 -1.171875 
Q 12.796875 -1.171875 8.203125 3 
Q 3.609375 7.171875 3.609375 13.671875 
Q 3.609375 17.484375 5.34375 20.625 
Q 7.078125 23.78125 9.890625 25.6875 
Q 12.703125 27.59375 16.21875 28.5625 
Q 18.796875 29.25 24.03125 29.890625 
Q 34.671875 31.15625 39.703125 32.90625 
Q 39.75 34.71875 39.75 35.203125 
Q 39.75 40.578125 37.25 42.78125 
Q 33.890625 45.75 27.25 45.75 
Q 21.046875 45.75 18.09375 43.578125 
Q 15.140625 41.40625 13.71875 35.890625 
L 5.125 37.0625 
Q 6.296875 42.578125 8.984375 45.96875 
Q 11.671875 49.359375 16.75 51.1875 
Q 21.828125 53.03125 28.515625 53.03125 
Q 35.15625 53.03125 39.296875 51.46875 
Q 43.453125 49.90625 45.40625 47.53125 
Q 47.359375 45.171875 48.140625 41.546875 
Q 48.578125 39.3125 48.578125 33.453125 
L 48.578125 21.734375 
Q 48.578125 9.46875 49.140625 6.21875 
Q 49.703125 2.984375 51.375 0 
L 42.1875 0 
Q 40.828125 2.734375 40.4375 6.390625 
z
M 39.703125 26.03125 
Q 34.90625 24.078125 25.34375 22.703125 
Q 19.921875 21.921875 17.671875 20.9375 
Q 15.4375 19.96875 14.203125 18.09375 
Q 12.984375 16.21875 12.984375 13.921875 
Q 12.984375 10.40625 15.640625 8.0625 
Q 18.3125 5.71875 23.4375 5.71875 
Q 28.515625 5.71875 32.46875 7.9375 
Q 36.421875 10.15625 38.28125 14.015625 
Q 39.703125 17 39.703125 22.796875 
z
" id="ArialMT-97"/>
      <path d="M 25.78125 7.859375 
L 27.046875 0.09375 
Q 23.34375 -0.6875 20.40625 -0.6875 
Q 15.625 -0.6875 12.984375 0.828125 
Q 10.359375 2.34375 9.28125 4.8125 
Q 8.203125 7.28125 8.203125 15.1875 
L 8.203125 45.015625 
L 1.765625 45.015625 
L 1.765625 51.859375 
L 8.203125 51.859375 
L 8.203125 64.703125 
L 16.9375 69.96875 
L 16.9375 51.859375 
L 25.78125 51.859375 
L 25.78125 45.015625 
L 16.9375 45.015625 
L 16.9375 14.703125 
Q 16.9375 10.9375 17.40625 9.859375 
Q 17.875 8.796875 18.921875 8.15625 
Q 19.96875 7.515625 21.921875 7.515625 
Q 23.390625 7.515625 25.78125 7.859375 
z
" id="ArialMT-116"/>
      <path d="M 42.09375 16.703125 
L 51.171875 15.578125 
Q 49.03125 7.625 43.21875 3.21875 
Q 37.40625 -1.171875 28.375 -1.171875 
Q 17 -1.171875 10.328125 5.828125 
Q 3.65625 12.84375 3.65625 25.484375 
Q 3.65625 38.578125 10.390625 45.796875 
Q 17.140625 53.03125 27.875 53.03125 
Q 38.28125 53.03125 44.875 45.953125 
Q 51.46875 38.875 51.46875 26.03125 
Q 51.46875 25.25 51.421875 23.6875 
L 12.75 23.6875 
Q 13.234375 15.140625 17.578125 10.59375 
Q 21.921875 6.0625 28.421875 6.0625 
Q 33.25 6.0625 36.671875 8.59375 
Q 40.09375 11.140625 42.09375 16.703125 
z
M 13.234375 30.90625 
L 42.1875 30.90625 
Q 41.609375 37.453125 38.875 40.71875 
Q 34.671875 45.796875 27.984375 45.796875 
Q 21.921875 45.796875 17.796875 41.75 
Q 13.671875 37.703125 13.234375 30.90625 
z
" id="ArialMT-101"/>
      <path id="ArialMT-32"/>
      <path d="M 28.171875 0 
L 0.4375 71.578125 
L 10.6875 71.578125 
L 29.296875 19.578125 
Q 31.546875 13.328125 33.0625 7.859375 
Q 34.71875 13.71875 36.921875 19.578125 
L 56.25 71.578125 
L 65.921875 71.578125 
L 37.890625 0 
z
" id="ArialMT-86"/>
      <path d="M 3.328125 25.921875 
Q 3.328125 40.328125 11.328125 47.265625 
Q 18.015625 53.03125 27.640625 53.03125 
Q 38.328125 53.03125 45.109375 46.015625 
Q 51.90625 39.015625 51.90625 26.65625 
Q 51.90625 16.65625 48.90625 10.90625 
Q 45.90625 5.171875 40.15625 2 
Q 34.421875 -1.171875 27.640625 -1.171875 
Q 16.75 -1.171875 10.03125 5.8125 
Q 3.328125 12.796875 3.328125 25.921875 
z
M 12.359375 25.921875 
Q 12.359375 15.96875 16.703125 11.015625 
Q 21.046875 6.0625 27.640625 6.0625 
Q 34.1875 6.0625 38.53125 11.03125 
Q 42.875 16.015625 42.875 26.21875 
Q 42.875 35.84375 38.5 40.796875 
Q 34.125 45.75 27.640625 45.75 
Q 21.046875 45.75 16.703125 40.8125 
Q 12.359375 35.890625 12.359375 25.921875 
z
" id="ArialMT-111"/>
      <path d="M 6.390625 0 
L 6.390625 71.578125 
L 15.1875 71.578125 
L 15.1875 0 
z
" id="ArialMT-108"/>
      <path d="M 4.984375 -4.296875 
L 13.53125 -5.5625 
Q 14.0625 -9.515625 16.5 -11.328125 
Q 19.78125 -13.765625 25.4375 -13.765625 
Q 31.546875 -13.765625 34.859375 -11.328125 
Q 38.1875 -8.890625 39.359375 -4.5 
Q 40.046875 -1.8125 39.984375 6.78125 
Q 34.234375 0 25.640625 0 
Q 14.9375 0 9.078125 7.71875 
Q 3.21875 15.4375 3.21875 26.21875 
Q 3.21875 33.640625 5.90625 39.90625 
Q 8.59375 46.1875 13.6875 49.609375 
Q 18.796875 53.03125 25.6875 53.03125 
Q 34.859375 53.03125 40.828125 45.609375 
L 40.828125 51.859375 
L 48.921875 51.859375 
L 48.921875 7.03125 
Q 48.921875 -5.078125 46.453125 -10.125 
Q 44 -15.1875 38.640625 -18.109375 
Q 33.296875 -21.046875 25.484375 -21.046875 
Q 16.21875 -21.046875 10.5 -16.875 
Q 4.78125 -12.703125 4.984375 -4.296875 
z
M 12.25 26.859375 
Q 12.25 16.65625 16.296875 11.96875 
Q 20.359375 7.28125 26.46875 7.28125 
Q 32.515625 7.28125 36.609375 11.9375 
Q 40.71875 16.609375 40.71875 26.5625 
Q 40.71875 36.078125 36.5 40.90625 
Q 32.28125 45.75 26.3125 45.75 
Q 20.453125 45.75 16.34375 40.984375 
Q 12.25 36.234375 12.25 26.859375 
z
" id="ArialMT-103"/>
      <path d="M 8.890625 0 
L 8.890625 10.015625 
L 18.890625 10.015625 
L 18.890625 0 
Q 18.890625 -5.515625 16.9375 -8.90625 
Q 14.984375 -12.3125 10.75 -14.15625 
L 8.296875 -10.40625 
Q 11.078125 -9.1875 12.390625 -6.8125 
Q 13.71875 -4.4375 13.875 0 
z
" id="ArialMT-44"/>
      <path d="M 4.5 23 
L 13.421875 23.78125 
Q 14.0625 18.40625 16.375 14.96875 
Q 18.703125 11.53125 23.578125 9.40625 
Q 28.46875 7.28125 34.578125 7.28125 
Q 39.984375 7.28125 44.140625 8.890625 
Q 48.296875 10.5 50.3125 13.296875 
Q 52.34375 16.109375 52.34375 19.4375 
Q 52.34375 22.796875 50.390625 25.3125 
Q 48.4375 27.828125 43.953125 29.546875 
Q 41.0625 30.671875 31.203125 33.03125 
Q 21.34375 35.40625 17.390625 37.5 
Q 12.25 40.1875 9.734375 44.15625 
Q 7.234375 48.140625 7.234375 53.078125 
Q 7.234375 58.5 10.296875 63.203125 
Q 13.375 67.921875 19.28125 70.359375 
Q 25.203125 72.796875 32.421875 72.796875 
Q 40.375 72.796875 46.453125 70.234375 
Q 52.546875 67.671875 55.8125 62.6875 
Q 59.078125 57.71875 59.328125 51.421875 
L 50.25 50.734375 
Q 49.515625 57.515625 45.28125 60.984375 
Q 41.0625 64.453125 32.8125 64.453125 
Q 24.21875 64.453125 20.28125 61.296875 
Q 16.359375 58.15625 16.359375 53.71875 
Q 16.359375 49.859375 19.140625 47.359375 
Q 21.875 44.875 33.421875 42.265625 
Q 44.96875 39.65625 49.265625 37.703125 
Q 55.515625 34.8125 58.484375 30.390625 
Q 61.46875 25.984375 61.46875 20.21875 
Q 61.46875 14.5 58.203125 9.4375 
Q 54.9375 4.390625 48.796875 1.578125 
Q 42.671875 -1.21875 35.015625 -1.21875 
Q 25.296875 -1.21875 18.71875 1.609375 
Q 12.15625 4.4375 8.421875 10.125 
Q 4.6875 15.828125 4.5 23 
z
" id="ArialMT-83"/>
      <path d="M 6.78125 -19.875 
L 6.78125 71.578125 
L 26.171875 71.578125 
L 26.171875 64.3125 
L 15.578125 64.3125 
L 15.578125 -12.59375 
L 26.171875 -12.59375 
L 26.171875 -19.875 
z
" id="ArialMT-91"/>
      <path d="M 21.296875 -19.875 
L 1.90625 -19.875 
L 1.90625 -12.59375 
L 12.5 -12.59375 
L 12.5 64.3125 
L 1.90625 64.3125 
L 1.90625 71.578125 
L 21.296875 71.578125 
z
" id="ArialMT-93"/>
     </defs>
     <g transform="translate(74.775714 233.787969)scale(0.18 -0.18)">
      <use transform="translate(0 0.203125)" xlink:href="#ArialMT-71"/>
      <use transform="translate(77.783203 0.203125)" xlink:href="#ArialMT-97"/>
      <use transform="translate(133.398438 0.203125)" xlink:href="#ArialMT-116"/>
      <use transform="translate(161.181641 0.203125)" xlink:href="#ArialMT-101"/>
      <use transform="translate(216.796875 0.203125)" xlink:href="#ArialMT-32"/>
      <use transform="translate(244.580078 0.203125)" xlink:href="#ArialMT-86"/>
      <use transform="translate(311.279297 0.203125)" xlink:href="#ArialMT-111"/>
      <use transform="translate(366.894531 0.203125)" xlink:href="#ArialMT-108"/>
      <use transform="translate(389.111328 0.203125)" xlink:href="#ArialMT-116"/>
      <use transform="translate(416.894531 0.203125)" xlink:href="#ArialMT-97"/>
      <use transform="translate(472.509766 0.203125)" xlink:href="#ArialMT-103"/>
      <use transform="translate(528.125 0.203125)" xlink:href="#ArialMT-101"/>
      <use transform="translate(583.740234 0.203125)" xlink:href="#ArialMT-44"/>
      <use transform="translate(611.523438 0.203125)" xlink:href="#ArialMT-32"/>
      <use transform="translate(639.306641 0.203125)" xlink:href="#ArialMT-32"/>
      <use transform="translate(667.089844 0.203125)" xlink:href="#ArialMT-86"/>
      <use transform="translate(735.531406 -29.665625)scale(0.7)" xlink:href="#ArialMT-71"/>
      <use transform="translate(789.979648 -29.665625)scale(0.7)" xlink:href="#ArialMT-83"/>
      <use transform="translate(841.647227 0.203125)" xlink:href="#ArialMT-32"/>
      <use transform="translate(869.43043 0.203125)" xlink:href="#ArialMT-32"/>
      <use transform="translate(897.213633 0.203125)" xlink:href="#ArialMT-91"/>
      <use transform="translate(924.996836 0.203125)" xlink:href="#ArialMT-86"/>
      <use transform="translate(991.696055 0.203125)" xlink:href="#ArialMT-93"/>
     </g>
    </g>
   </g>
   <g id="matplotlib.axis_2">
    <g id="ytick_1">
     <g id="line2d_4">
      <defs>
       <path d="M 0 0 
L -3.5 0 
" id="m9064049aee" style="stroke:#000000;stroke-width:0.8;"/>
      </defs>
      <g>
       <use style="stroke:#000000;stroke-width:0.8;" x="60.29" xlink:href="#m9064049aee" y="165.527282"/>
      </g>
     </g>
     <g id="text_5">
      <!-- $\mathdefault{10^{1}}$ -->
      <defs>
       <path d="M 37.25 0 
L 28.46875 0 
L 28.46875 56 
Q 25.296875 52.984375 20.140625 49.953125 
Q 14.984375 46.921875 10.890625 45.40625 
L 10.890625 53.90625 
Q 18.265625 57.375 23.78125 62.296875 
Q 29.296875 67.234375 31.59375 71.875 
L 37.25 71.875 
z
" id="ArialMT-49"/>
      </defs>
      <g transform="translate(29.74 173.261657)scale(0.15 -0.15)">
       <use transform="translate(0 0.99375)" xlink:href="#ArialMT-49"/>
       <use transform="translate(55.615234 0.99375)" xlink:href="#ArialMT-48"/>
       <use transform="translate(112.972813 70.6875)scale(0.7)" xlink:href="#ArialMT-49"/>
      </g>
     </g>
    </g>
    <g id="ytick_2">
     <g id="line2d_5">
      <g>
       <use style="stroke:#000000;stroke-width:0.8;" x="60.29" xlink:href="#m9064049aee" y="39.653603"/>
      </g>
     </g>
     <g id="text_6">
      <!-- $\mathdefault{10^{2}}$ -->
      <g transform="translate(29.74 47.387978)scale(0.15 -0.15)">
       <use transform="translate(0 0.99375)" xlink:href="#ArialMT-49"/>
       <use transform="translate(55.615234 0.99375)" xlink:href="#ArialMT-48"/>
       <use transform="translate(112.972813 70.6875)scale(0.7)" xlink:href="#ArialMT-50"/>
      </g>
     </g>
    </g>
    <g id="ytick_3">
     <g id="line2d_6">
      <defs>
       <path d="M 0 0 
L -2 0 
" id="m1ff357f809" style="stroke:#000000;stroke-width:0.6;"/>
      </defs>
      <g>
       <use style="stroke:#000000;stroke-width:0.6;" x="60.29" xlink:href="#m1ff357f809" y="193.4522"/>
      </g>
     </g>
    </g>
    <g id="ytick_4">
     <g id="line2d_7">
      <g>
       <use style="stroke:#000000;stroke-width:0.6;" x="60.29" xlink:href="#m1ff357f809" y="185.025362"/>
      </g>
     </g>
    </g>
    <g id="ytick_5">
     <g id="line2d_8">
      <g>
       <use style="stroke:#000000;stroke-width:0.6;" x="60.29" xlink:href="#m1ff357f809" y="177.725702"/>
      </g>
     </g>
    </g>
    <g id="ytick_6">
     <g id="line2d_9">
      <g>
       <use style="stroke:#000000;stroke-width:0.6;" x="60.29" xlink:href="#m1ff357f809" y="171.286946"/>
      </g>
     </g>
    </g>
    <g id="ytick_7">
     <g id="line2d_10">
      <g>
       <use style="stroke:#000000;stroke-width:0.6;" x="60.29" xlink:href="#m1ff357f809" y="127.635529"/>
      </g>
     </g>
    </g>
    <g id="ytick_8">
     <g id="line2d_11">
      <g>
       <use style="stroke:#000000;stroke-width:0.6;" x="60.29" xlink:href="#m1ff357f809" y="105.470274"/>
      </g>
     </g>
    </g>
    <g id="ytick_9">
     <g id="line2d_12">
      <g>
       <use style="stroke:#000000;stroke-width:0.6;" x="60.29" xlink:href="#m1ff357f809" y="89.743776"/>
      </g>
     </g>
    </g>
    <g id="ytick_10">
     <g id="line2d_13">
      <g>
       <use style="stroke:#000000;stroke-width:0.6;" x="60.29" xlink:href="#m1ff357f809" y="77.545356"/>
      </g>
     </g>
    </g>
    <g id="ytick_11">
     <g id="line2d_14">
      <g>
       <use style="stroke:#000000;stroke-width:0.6;" x="60.29" xlink:href="#m1ff357f809" y="67.578521"/>
      </g>
     </g>
    </g>
    <g id="ytick_12">
     <g id="line2d_15">
      <g>
       <use style="stroke:#000000;stroke-width:0.6;" x="60.29" xlink:href="#m1ff357f809" y="59.151682"/>
      </g>
     </g>
    </g>
    <g id="ytick_13">
     <g id="line2d_16">
      <g>
       <use style="stroke:#000000;stroke-width:0.6;" x="60.29" xlink:href="#m1ff357f809" y="51.852023"/>
      </g>
     </g>
    </g>
    <g id="ytick_14">
     <g id="line2d_17">
      <g>
       <use style="stroke:#000000;stroke-width:0.6;" x="60.29" xlink:href="#m1ff357f809" y="45.413266"/>
      </g>
     </g>
    </g>
    <g id="text_7">
     <!-- Drain Current,  $I_D$  [$\mu A$/$\mu m$] -->
     <defs>
      <path d="M 7.71875 0 
L 7.71875 71.578125 
L 32.375 71.578125 
Q 40.71875 71.578125 45.125 70.5625 
Q 51.265625 69.140625 55.609375 65.4375 
Q 61.28125 60.640625 64.078125 53.1875 
Q 66.890625 45.75 66.890625 36.1875 
Q 66.890625 28.03125 64.984375 21.734375 
Q 63.09375 15.4375 60.109375 11.296875 
Q 57.125 7.171875 53.578125 4.796875 
Q 50.046875 2.4375 45.046875 1.21875 
Q 40.046875 0 33.546875 0 
z
M 17.1875 8.453125 
L 32.46875 8.453125 
Q 39.546875 8.453125 43.578125 9.765625 
Q 47.609375 11.078125 50 13.484375 
Q 53.375 16.84375 55.25 22.53125 
Q 57.125 28.21875 57.125 36.328125 
Q 57.125 47.5625 53.4375 53.59375 
Q 49.75 59.625 44.484375 61.671875 
Q 40.671875 63.140625 32.234375 63.140625 
L 17.1875 63.140625 
z
" id="ArialMT-68"/>
      <path d="M 6.5 0 
L 6.5 51.859375 
L 14.40625 51.859375 
L 14.40625 44 
Q 17.4375 49.515625 20 51.265625 
Q 22.5625 53.03125 25.640625 53.03125 
Q 30.078125 53.03125 34.671875 50.203125 
L 31.640625 42.046875 
Q 28.421875 43.953125 25.203125 43.953125 
Q 22.3125 43.953125 20.015625 42.21875 
Q 17.71875 40.484375 16.75 37.40625 
Q 15.28125 32.71875 15.28125 27.15625 
L 15.28125 0 
z
" id="ArialMT-114"/>
      <path d="M 6.640625 61.46875 
L 6.640625 71.578125 
L 15.4375 71.578125 
L 15.4375 61.46875 
z
M 6.640625 0 
L 6.640625 51.859375 
L 15.4375 51.859375 
L 15.4375 0 
z
" id="ArialMT-105"/>
      <path d="M 6.59375 0 
L 6.59375 51.859375 
L 14.5 51.859375 
L 14.5 44.484375 
Q 20.21875 53.03125 31 53.03125 
Q 35.6875 53.03125 39.625 51.34375 
Q 43.5625 49.65625 45.515625 46.921875 
Q 47.46875 44.1875 48.25 40.4375 
Q 48.734375 37.984375 48.734375 31.890625 
L 48.734375 0 
L 39.9375 0 
L 39.9375 31.546875 
Q 39.9375 36.921875 38.90625 39.578125 
Q 37.890625 42.234375 35.28125 43.8125 
Q 32.671875 45.40625 29.15625 45.40625 
Q 23.53125 45.40625 19.453125 41.84375 
Q 15.375 38.28125 15.375 28.328125 
L 15.375 0 
z
" id="ArialMT-110"/>
      <path d="M 58.796875 25.09375 
L 68.265625 22.703125 
Q 65.28125 11.03125 57.546875 4.90625 
Q 49.8125 -1.21875 38.625 -1.21875 
Q 27.046875 -1.21875 19.796875 3.484375 
Q 12.546875 8.203125 8.765625 17.140625 
Q 4.984375 26.078125 4.984375 36.328125 
Q 4.984375 47.515625 9.25 55.828125 
Q 13.53125 64.15625 21.40625 68.46875 
Q 29.296875 72.796875 38.765625 72.796875 
Q 49.515625 72.796875 56.828125 67.328125 
Q 64.15625 61.859375 67.046875 51.953125 
L 57.71875 49.75 
Q 55.21875 57.5625 50.484375 61.125 
Q 45.75 64.703125 38.578125 64.703125 
Q 30.328125 64.703125 24.78125 60.734375 
Q 19.234375 56.78125 16.984375 50.109375 
Q 14.75 43.453125 14.75 36.375 
Q 14.75 27.25 17.40625 20.4375 
Q 20.0625 13.625 25.671875 10.25 
Q 31.296875 6.890625 37.84375 6.890625 
Q 45.796875 6.890625 51.3125 11.46875 
Q 56.84375 16.0625 58.796875 25.09375 
z
" id="ArialMT-67"/>
      <path d="M 40.578125 0 
L 40.578125 7.625 
Q 34.515625 -1.171875 24.125 -1.171875 
Q 19.53125 -1.171875 15.546875 0.578125 
Q 11.578125 2.34375 9.640625 5 
Q 7.71875 7.671875 6.9375 11.53125 
Q 6.390625 14.109375 6.390625 19.734375 
L 6.390625 51.859375 
L 15.1875 51.859375 
L 15.1875 23.09375 
Q 15.1875 16.21875 15.71875 13.8125 
Q 16.546875 10.359375 19.234375 8.375 
Q 21.921875 6.390625 25.875 6.390625 
Q 29.828125 6.390625 33.296875 8.421875 
Q 36.765625 10.453125 38.203125 13.9375 
Q 39.65625 17.4375 39.65625 24.078125 
L 39.65625 51.859375 
L 48.4375 51.859375 
L 48.4375 0 
z
" id="ArialMT-117"/>
      <path d="M 9.328125 0 
L 9.328125 71.578125 
L 18.796875 71.578125 
L 18.796875 0 
z
" id="ArialMT-73"/>
      <path d="M 49.703125 51.859375 
L 49.703125 0 
L 41.84375 0 
L 41.84375 6.15625 
Q 39.3125 2.25 36.8125 0.78125 
Q 33.40625 -1.21875 28.859375 -1.21875 
Q 24.8125 -1.21875 21.6875 0.390625 
Q 19.34375 1.609375 16.5 5.21875 
L 16.5 -19.875 
L 7.8125 -19.875 
L 7.8125 51.859375 
L 16.5 51.859375 
L 16.5 29.890625 
Q 16.5 17.921875 17.765625 14.375 
Q 19.046875 10.84375 21.890625 8.78125 
Q 24.75 6.734375 28.46875 6.734375 
Q 32.375 6.734375 35.453125 8.875 
Q 38.53125 11.03125 39.796875 14.421875 
Q 41.0625 17.828125 41.0625 29.734375 
L 41.0625 51.859375 
z
" id="ArialMT-956"/>
      <path d="M -0.140625 0 
L 27.34375 71.578125 
L 37.546875 71.578125 
L 66.84375 0 
L 56.0625 0 
L 47.703125 21.6875 
L 17.78125 21.6875 
L 9.90625 0 
z
M 20.515625 29.390625 
L 44.78125 29.390625 
L 37.3125 49.21875 
Q 33.890625 58.25 32.234375 64.0625 
Q 30.859375 57.171875 28.375 50.390625 
z
" id="ArialMT-65"/>
      <path d="M 0 -1.21875 
L 20.75 72.796875 
L 27.78125 72.796875 
L 7.078125 -1.21875 
z
" id="ArialMT-47"/>
      <path d="M 6.59375 0 
L 6.59375 51.859375 
L 14.453125 51.859375 
L 14.453125 44.578125 
Q 16.890625 48.390625 20.9375 50.703125 
Q 25 53.03125 30.171875 53.03125 
Q 35.9375 53.03125 39.625 50.640625 
Q 43.3125 48.25 44.828125 43.953125 
Q 50.984375 53.03125 60.84375 53.03125 
Q 68.5625 53.03125 72.703125 48.75 
Q 76.859375 44.484375 76.859375 35.59375 
L 76.859375 0 
L 68.109375 0 
L 68.109375 32.671875 
Q 68.109375 37.9375 67.25 40.25 
Q 66.40625 42.578125 64.15625 43.984375 
Q 61.921875 45.40625 58.890625 45.40625 
Q 53.421875 45.40625 49.796875 41.765625 
Q 46.1875 38.140625 46.1875 30.125 
L 46.1875 0 
L 37.40625 0 
L 37.40625 33.6875 
Q 37.40625 39.546875 35.25 42.46875 
Q 33.109375 45.40625 28.21875 45.40625 
Q 24.515625 45.40625 21.359375 43.453125 
Q 18.21875 41.5 16.796875 37.734375 
Q 15.375 33.984375 15.375 26.90625 
L 15.375 0 
z
" id="ArialMT-109"/>
     </defs>
     <g transform="translate(20.34 218.34)rotate(-90)scale(0.18 -0.18)">
      <use transform="translate(0 0.203125)" xlink:href="#ArialMT-68"/>
      <use transform="translate(72.216797 0.203125)" xlink:href="#ArialMT-114"/>
      <use transform="translate(105.517578 0.203125)" xlink:href="#ArialMT-97"/>
      <use transform="translate(161.132812 0.203125)" xlink:href="#ArialMT-105"/>
      <use transform="translate(183.349609 0.203125)" xlink:href="#ArialMT-110"/>
      <use transform="translate(238.964844 0.203125)" xlink:href="#ArialMT-32"/>
      <use transform="translate(266.748047 0.203125)" xlink:href="#ArialMT-67"/>
      <use transform="translate(338.964844 0.203125)" xlink:href="#ArialMT-117"/>
      <use transform="translate(394.580078 0.203125)" xlink:href="#ArialMT-114"/>
      <use transform="translate(427.880859 0.203125)" xlink:href="#ArialMT-114"/>
      <use transform="translate(461.181641 0.203125)" xlink:href="#ArialMT-101"/>
      <use transform="translate(516.796875 0.203125)" xlink:href="#ArialMT-110"/>
      <use transform="translate(572.412109 0.203125)" xlink:href="#ArialMT-116"/>
      <use transform="translate(600.195312 0.203125)" xlink:href="#ArialMT-44"/>
      <use transform="translate(627.978516 0.203125)" xlink:href="#ArialMT-32"/>
      <use transform="translate(655.761719 0.203125)" xlink:href="#ArialMT-32"/>
      <use transform="translate(683.544922 0.203125)" xlink:href="#ArialMT-73"/>
      <use transform="translate(713.070469 -29.665625)scale(0.7)" xlink:href="#ArialMT-68"/>
      <use transform="translate(768.600352 0.203125)" xlink:href="#ArialMT-32"/>
      <use transform="translate(796.383555 0.203125)" xlink:href="#ArialMT-32"/>
      <use transform="translate(824.166758 0.203125)" xlink:href="#ArialMT-91"/>
      <use transform="translate(851.949961 0.203125)" xlink:href="#ArialMT-956"/>
      <use transform="translate(909.567148 0.203125)" xlink:href="#ArialMT-65"/>
      <use transform="translate(976.266367 0.203125)" xlink:href="#ArialMT-47"/>
      <use transform="translate(1004.04957 0.203125)" xlink:href="#ArialMT-956"/>
      <use transform="translate(1061.666758 0.203125)" xlink:href="#ArialMT-109"/>
      <use transform="translate(1144.967539 0.203125)" xlink:href="#ArialMT-93"/>
     </g>
    </g>
   </g>
   <g id="line2d_18">
    <path clip-path="url(#pe88be578fe)" d="M 69.952338 187.585883 
L 74.78482 187.68112 
L 79.614115 187.52538 
L 84.446127 187.532827 
L 89.276638 186.777961 
L 94.106697 186.723244 
L 98.938825 186.592899 
L 103.768944 185.041096 
L 108.6001 183.665632 
L 113.431094 182.098788 
L 118.262595 180.214293 
L 123.09359 176.997816 
L 127.925884 174.07332 
L 132.755049 170.361937 
L 137.587384 166.385906 
L 142.420355 160.641399 
L 147.250467 154.808892 
L 152.083174 147.599147 
L 156.913622 140.343892 
L 161.74517 132.887005 
L 166.576781 126.293822 
L 171.40794 119.092343 
L 176.23837 112.613283 
L 181.070742 106.146438 
L 185.902258 100.339204 
L 190.734313 94.319258 
L 195.565874 88.919067 
L 200.396972 83.616316 
L 205.227982 78.940274 
L 210.058903 74.264604 
L 214.891846 70.139493 
L 219.72179 65.93801 
L 224.552831 61.905358 
L 229.384079 58.06286 
L 234.214368 54.653598 
L 239.04651 51.259813 
L 243.875122 47.940192 
L 248.705541 44.754813 
L 253.537498 42.333631 
L 258.366737 39.581405 
L 263.199091 37.220666 
L 263.199072 37.17 
L 258.366783 40.841395 
L 253.537563 44.042491 
L 248.705541 47.580258 
L 243.875072 51.174385 
L 239.046478 55.054929 
L 234.214331 59.139 
L 229.384065 63.481924 
L 224.552836 68.436079 
L 219.721731 73.010137 
L 214.891819 77.676653 
L 210.058968 83.371886 
L 205.227982 88.69198 
L 200.397004 94.538393 
L 195.565959 100.920623 
L 190.734303 107.817008 
L 185.902279 114.527009 
L 181.070777 122.122164 
L 176.238364 129.479035 
L 171.407945 137.167997 
L 166.574393 144.157937 
L 161.745155 151.535916 
L 156.913622 157.847653 
L 152.08317 163.781372 
L 147.250476 168.650094 
L 142.420383 173.566581 
L 137.587423 176.913208 
L 132.755074 179.818835 
L 127.925902 182.746403 
L 123.09359 184.399059 
L 118.262623 185.014467 
L 113.431108 185.90402 
L 108.600173 186.244133 
L 103.768985 187.086985 
L 98.93888 187.188609 
L 94.106674 186.946928 
L 89.276592 188.37 
L 84.4461 188.245814 
L 79.614105 188.291027 
L 74.784783 187.983586 
L 69.952347 187.414128 
" style="fill:none;stroke:#023eff;stroke-linecap:square;stroke-width:2;"/>
   </g>
   <g id="patch_3">
    <path d="M 60.29 195.93 
L 60.29 29.61 
" style="fill:none;stroke:#000000;stroke-linecap:square;stroke-linejoin:miter;stroke-width:0.8;"/>
   </g>
   <g id="patch_4">
    <path d="M 272.861429 195.93 
L 272.861429 29.61 
" style="fill:none;stroke:#000000;stroke-linecap:square;stroke-linejoin:miter;stroke-width:0.8;"/>
   </g>
   <g id="patch_5">
    <path d="M 60.29 195.93 
L 272.861429 195.93 
" style="fill:none;stroke:#000000;stroke-linecap:square;stroke-linejoin:miter;stroke-width:0.8;"/>
   </g>
   <g id="patch_6">
    <path d="M 60.29 29.61 
L 272.861429 29.61 
" style="fill:none;stroke:#000000;stroke-linecap:square;stroke-linejoin:miter;stroke-width:0.8;"/>
   </g>
   <g id="text_8">
    <!-- $V_{DS}$ = 1.0 V -->
    <defs>
     <path d="M 52.828125 42.09375 
L 5.5625 42.09375 
L 5.5625 50.296875 
L 52.828125 50.296875 
z
M 52.828125 20.359375 
L 5.5625 20.359375 
L 5.5625 28.5625 
L 52.828125 28.5625 
z
" id="ArialMT-61"/>
     <path d="M 9.078125 0 
L 9.078125 10.015625 
L 19.09375 10.015625 
L 19.09375 0 
z
" id="ArialMT-46"/>
    </defs>
    <g transform="translate(70.918571 54.558)scale(0.18 -0.18)">
     <use transform="translate(0 0.125)" xlink:href="#ArialMT-86"/>
     <use transform="translate(68.441563 -29.74375)scale(0.7)" xlink:href="#ArialMT-68"/>
     <use transform="translate(118.99332 -29.74375)scale(0.7)" xlink:href="#ArialMT-83"/>
     <use transform="translate(170.660898 0.125)" xlink:href="#ArialMT-32"/>
     <use transform="translate(198.444102 0.125)" xlink:href="#ArialMT-61"/>
     <use transform="translate(256.842539 0.125)" xlink:href="#ArialMT-32"/>
     <use transform="translate(284.625742 0.125)" xlink:href="#ArialMT-49"/>
     <use transform="translate(340.240977 0.125)" xlink:href="#ArialMT-46"/>
     <use transform="translate(368.02418 0.125)" xlink:href="#ArialMT-48"/>
     <use transform="translate(423.639414 0.125)" xlink:href="#ArialMT-32"/>
     <use transform="translate(451.422617 0.125)" xlink:href="#ArialMT-86"/>
    </g>
   </g>
   <g id="legend_1">
    <g id="line2d_19">
     <path d="M 162.745324 180.205043 
L 192.733324 180.205043 
" style="fill:none;stroke:#023eff;stroke-linecap:square;stroke-width:2;"/>
    </g>
    <g id="line2d_20"/>
    <g id="text_9">
     <!-- 100 nm -->
     <g transform="translate(204.728524 185.452943)scale(0.14994 -0.14994)">
      <use xlink:href="#ArialMT-49"/>
      <use x="55.615234" xlink:href="#ArialMT-48"/>
      <use x="111.230469" xlink:href="#ArialMT-48"/>
      <use x="166.845703" xlink:href="#ArialMT-32"/>
      <use x="194.628906" xlink:href="#ArialMT-110"/>
      <use x="250.244141" xlink:href="#ArialMT-109"/>
     </g>
    </g>
   </g>
  </g>
  <g id="axes_2">
   <g id="patch_7">
    <path d="M 400.404286 195.93 
L 612.975714 195.93 
L 612.975714 29.61 
L 400.404286 29.61 
z
" style="fill:none;"/>
   </g>
   <g id="matplotlib.axis_3">
    <g id="xtick_4">
     <g id="line2d_21">
      <g>
       <use style="stroke:#000000;stroke-width:0.8;" x="410.066623" xlink:href="#m36dfff74c2" y="195.93"/>
      </g>
     </g>
     <g id="text_10">
      <!-- −5 -->
      <defs>
       <path d="M 4.15625 18.75 
L 13.375 19.53125 
Q 14.40625 12.796875 18.140625 9.390625 
Q 21.875 6 27.15625 6 
Q 33.5 6 37.890625 10.78125 
Q 42.28125 15.578125 42.28125 23.484375 
Q 42.28125 31 38.0625 35.34375 
Q 33.84375 39.703125 27 39.703125 
Q 22.75 39.703125 19.328125 37.765625 
Q 15.921875 35.84375 13.96875 32.765625 
L 5.71875 33.84375 
L 12.640625 70.609375 
L 48.25 70.609375 
L 48.25 62.203125 
L 19.671875 62.203125 
L 15.828125 42.96875 
Q 22.265625 47.46875 29.34375 47.46875 
Q 38.71875 47.46875 45.15625 40.96875 
Q 51.609375 34.46875 51.609375 24.265625 
Q 51.609375 14.546875 45.953125 7.46875 
Q 39.0625 -1.21875 27.15625 -1.21875 
Q 17.390625 -1.21875 11.203125 4.25 
Q 5.03125 9.71875 4.15625 18.75 
z
" id="ArialMT-53"/>
      </defs>
      <g transform="translate(401.515452 213.666719)scale(0.15 -0.15)">
       <use xlink:href="#ArialMT-8722"/>
       <use x="58.398438" xlink:href="#ArialMT-53"/>
      </g>
     </g>
    </g>
    <g id="xtick_5">
     <g id="line2d_22">
      <g>
       <use style="stroke:#000000;stroke-width:0.8;" x="506.69" xlink:href="#m36dfff74c2" y="195.93"/>
      </g>
     </g>
     <g id="text_11">
      <!-- 0 -->
      <g transform="translate(502.519297 213.666719)scale(0.15 -0.15)">
       <use xlink:href="#ArialMT-48"/>
      </g>
     </g>
    </g>
    <g id="xtick_6">
     <g id="line2d_23">
      <g>
       <use style="stroke:#000000;stroke-width:0.8;" x="603.313377" xlink:href="#m36dfff74c2" y="195.93"/>
      </g>
     </g>
     <g id="text_12">
      <!-- 5 -->
      <g transform="translate(599.142673 213.666719)scale(0.15 -0.15)">
       <use xlink:href="#ArialMT-53"/>
      </g>
     </g>
    </g>
    <g id="text_13">
     <!-- Drain Voltage,  $V_{DS}$  [V] -->
     <g transform="translate(413.27 233.607969)scale(0.18 -0.18)">
      <use transform="translate(0 0.421875)" xlink:href="#ArialMT-68"/>
      <use transform="translate(72.216797 0.421875)" xlink:href="#ArialMT-114"/>
      <use transform="translate(105.517578 0.421875)" xlink:href="#ArialMT-97"/>
      <use transform="translate(161.132812 0.421875)" xlink:href="#ArialMT-105"/>
      <use transform="translate(183.349609 0.421875)" xlink:href="#ArialMT-110"/>
      <use transform="translate(238.964844 0.421875)" xlink:href="#ArialMT-32"/>
      <use transform="translate(266.748047 0.421875)" xlink:href="#ArialMT-86"/>
      <use transform="translate(333.447266 0.421875)" xlink:href="#ArialMT-111"/>
      <use transform="translate(389.0625 0.421875)" xlink:href="#ArialMT-108"/>
      <use transform="translate(411.279297 0.421875)" xlink:href="#ArialMT-116"/>
      <use transform="translate(439.0625 0.421875)" xlink:href="#ArialMT-97"/>
      <use transform="translate(494.677734 0.421875)" xlink:href="#ArialMT-103"/>
      <use transform="translate(550.292969 0.421875)" xlink:href="#ArialMT-101"/>
      <use transform="translate(605.908203 0.421875)" xlink:href="#ArialMT-44"/>
      <use transform="translate(633.691406 0.421875)" xlink:href="#ArialMT-32"/>
      <use transform="translate(661.474609 0.421875)" xlink:href="#ArialMT-32"/>
      <use transform="translate(689.257812 0.421875)" xlink:href="#ArialMT-86"/>
      <use transform="translate(757.699375 -29.446875)scale(0.7)" xlink:href="#ArialMT-68"/>
      <use transform="translate(808.251133 -29.446875)scale(0.7)" xlink:href="#ArialMT-83"/>
      <use transform="translate(859.918711 0.421875)" xlink:href="#ArialMT-32"/>
      <use transform="translate(887.701914 0.421875)" xlink:href="#ArialMT-32"/>
      <use transform="translate(915.485117 0.421875)" xlink:href="#ArialMT-91"/>
      <use transform="translate(943.26832 0.421875)" xlink:href="#ArialMT-86"/>
      <use transform="translate(1009.967539 0.421875)" xlink:href="#ArialMT-93"/>
     </g>
    </g>
   </g>
   <g id="matplotlib.axis_4">
    <g id="ytick_15">
     <g id="line2d_24">
      <g>
       <use style="stroke:#000000;stroke-width:0.8;" x="400.404286" xlink:href="#m9064049aee" y="182.844949"/>
      </g>
     </g>
     <g id="text_14">
      <!-- −600 -->
      <defs>
       <path d="M 49.75 54.046875 
L 41.015625 53.375 
Q 39.84375 58.546875 37.703125 60.890625 
Q 34.125 64.65625 28.90625 64.65625 
Q 24.703125 64.65625 21.53125 62.3125 
Q 17.390625 59.28125 14.984375 53.46875 
Q 12.59375 47.65625 12.5 36.921875 
Q 15.671875 41.75 20.265625 44.09375 
Q 24.859375 46.4375 29.890625 46.4375 
Q 38.671875 46.4375 44.84375 39.96875 
Q 51.03125 33.5 51.03125 23.25 
Q 51.03125 16.5 48.125 10.71875 
Q 45.21875 4.9375 40.140625 1.859375 
Q 35.0625 -1.21875 28.609375 -1.21875 
Q 17.625 -1.21875 10.6875 6.859375 
Q 3.765625 14.9375 3.765625 33.5 
Q 3.765625 54.25 11.421875 63.671875 
Q 18.109375 71.875 29.4375 71.875 
Q 37.890625 71.875 43.28125 67.140625 
Q 48.6875 62.40625 49.75 54.046875 
z
M 13.875 23.1875 
Q 13.875 18.65625 15.796875 14.5 
Q 17.71875 10.359375 21.1875 8.171875 
Q 24.65625 6 28.46875 6 
Q 34.03125 6 38.03125 10.484375 
Q 42.046875 14.984375 42.046875 22.703125 
Q 42.046875 30.125 38.078125 34.390625 
Q 34.125 38.671875 28.125 38.671875 
Q 22.171875 38.671875 18.015625 34.390625 
Q 13.875 30.125 13.875 23.1875 
z
" id="ArialMT-54"/>
      </defs>
      <g transform="translate(359.619129 188.213308)scale(0.15 -0.15)">
       <use xlink:href="#ArialMT-8722"/>
       <use x="58.398438" xlink:href="#ArialMT-54"/>
       <use x="114.013672" xlink:href="#ArialMT-48"/>
       <use x="169.628906" xlink:href="#ArialMT-48"/>
      </g>
     </g>
    </g>
    <g id="ytick_16">
     <g id="line2d_25">
      <g>
       <use style="stroke:#000000;stroke-width:0.8;" x="400.404286" xlink:href="#m9064049aee" y="146.486854"/>
      </g>
     </g>
     <g id="text_15">
      <!-- −300 -->
      <defs>
       <path d="M 4.203125 18.890625 
L 12.984375 20.0625 
Q 14.5 12.59375 18.140625 9.296875 
Q 21.78125 6 27 6 
Q 33.203125 6 37.46875 10.296875 
Q 41.75 14.59375 41.75 20.953125 
Q 41.75 27 37.796875 30.921875 
Q 33.84375 34.859375 27.734375 34.859375 
Q 25.25 34.859375 21.53125 33.890625 
L 22.515625 41.609375 
Q 23.390625 41.5 23.921875 41.5 
Q 29.546875 41.5 34.03125 44.421875 
Q 38.53125 47.359375 38.53125 53.46875 
Q 38.53125 58.296875 35.25 61.46875 
Q 31.984375 64.65625 26.8125 64.65625 
Q 21.6875 64.65625 18.265625 61.421875 
Q 14.84375 58.203125 13.875 51.765625 
L 5.078125 53.328125 
Q 6.6875 62.15625 12.390625 67.015625 
Q 18.109375 71.875 26.609375 71.875 
Q 32.46875 71.875 37.390625 69.359375 
Q 42.328125 66.84375 44.9375 62.5 
Q 47.5625 58.15625 47.5625 53.265625 
Q 47.5625 48.640625 45.0625 44.828125 
Q 42.578125 41.015625 37.703125 38.765625 
Q 44.046875 37.3125 47.5625 32.6875 
Q 51.078125 28.078125 51.078125 21.140625 
Q 51.078125 11.765625 44.234375 5.25 
Q 37.40625 -1.265625 26.953125 -1.265625 
Q 17.53125 -1.265625 11.296875 4.34375 
Q 5.078125 9.96875 4.203125 18.890625 
z
" id="ArialMT-51"/>
      </defs>
      <g transform="translate(359.619129 151.855213)scale(0.15 -0.15)">
       <use xlink:href="#ArialMT-8722"/>
       <use x="58.398438" xlink:href="#ArialMT-51"/>
       <use x="114.013672" xlink:href="#ArialMT-48"/>
       <use x="169.628906" xlink:href="#ArialMT-48"/>
      </g>
     </g>
    </g>
    <g id="ytick_17">
     <g id="line2d_26">
      <g>
       <use style="stroke:#000000;stroke-width:0.8;" x="400.404286" xlink:href="#m9064049aee" y="110.128759"/>
      </g>
     </g>
     <g id="text_16">
      <!-- 0 -->
      <g transform="translate(385.062879 115.497118)scale(0.15 -0.15)">
       <use xlink:href="#ArialMT-48"/>
      </g>
     </g>
    </g>
    <g id="ytick_18">
     <g id="line2d_27">
      <g>
       <use style="stroke:#000000;stroke-width:0.8;" x="400.404286" xlink:href="#m9064049aee" y="73.770664"/>
      </g>
     </g>
     <g id="text_17">
      <!-- 300 -->
      <g transform="translate(368.380067 79.139023)scale(0.15 -0.15)">
       <use xlink:href="#ArialMT-51"/>
       <use x="55.615234" xlink:href="#ArialMT-48"/>
       <use x="111.230469" xlink:href="#ArialMT-48"/>
      </g>
     </g>
    </g>
    <g id="ytick_19">
     <g id="line2d_28">
      <g>
       <use style="stroke:#000000;stroke-width:0.8;" x="400.404286" xlink:href="#m9064049aee" y="37.412569"/>
      </g>
     </g>
     <g id="text_18">
      <!-- 600 -->
      <g transform="translate(368.380067 42.780928)scale(0.15 -0.15)">
       <use xlink:href="#ArialMT-54"/>
       <use x="55.615234" xlink:href="#ArialMT-48"/>
       <use x="111.230469" xlink:href="#ArialMT-48"/>
      </g>
     </g>
    </g>
    <g id="text_19">
     <!-- Drain Current,  $I_D$  [$\mu A$/$\mu m$] -->
     <g transform="translate(350.219129 218.34)rotate(-90)scale(0.18 -0.18)">
      <use transform="translate(0 0.203125)" xlink:href="#ArialMT-68"/>
      <use transform="translate(72.216797 0.203125)" xlink:href="#ArialMT-114"/>
      <use transform="translate(105.517578 0.203125)" xlink:href="#ArialMT-97"/>
      <use transform="translate(161.132812 0.203125)" xlink:href="#ArialMT-105"/>
      <use transform="translate(183.349609 0.203125)" xlink:href="#ArialMT-110"/>
      <use transform="translate(238.964844 0.203125)" xlink:href="#ArialMT-32"/>
      <use transform="translate(266.748047 0.203125)" xlink:href="#ArialMT-67"/>
      <use transform="translate(338.964844 0.203125)" xlink:href="#ArialMT-117"/>
      <use transform="translate(394.580078 0.203125)" xlink:href="#ArialMT-114"/>
      <use transform="translate(427.880859 0.203125)" xlink:href="#ArialMT-114"/>
      <use transform="translate(461.181641 0.203125)" xlink:href="#ArialMT-101"/>
      <use transform="translate(516.796875 0.203125)" xlink:href="#ArialMT-110"/>
      <use transform="translate(572.412109 0.203125)" xlink:href="#ArialMT-116"/>
      <use transform="translate(600.195312 0.203125)" xlink:href="#ArialMT-44"/>
      <use transform="translate(627.978516 0.203125)" xlink:href="#ArialMT-32"/>
      <use transform="translate(655.761719 0.203125)" xlink:href="#ArialMT-32"/>
      <use transform="translate(683.544922 0.203125)" xlink:href="#ArialMT-73"/>
      <use transform="translate(713.070469 -29.665625)scale(0.7)" xlink:href="#ArialMT-68"/>
      <use transform="translate(768.600352 0.203125)" xlink:href="#ArialMT-32"/>
      <use transform="translate(796.383555 0.203125)" xlink:href="#ArialMT-32"/>
      <use transform="translate(824.166758 0.203125)" xlink:href="#ArialMT-91"/>
      <use transform="translate(851.949961 0.203125)" xlink:href="#ArialMT-956"/>
      <use transform="translate(909.567148 0.203125)" xlink:href="#ArialMT-65"/>
      <use transform="translate(976.266367 0.203125)" xlink:href="#ArialMT-47"/>
      <use transform="translate(1004.04957 0.203125)" xlink:href="#ArialMT-956"/>
      <use transform="translate(1061.666758 0.203125)" xlink:href="#ArialMT-109"/>
      <use transform="translate(1144.967539 0.203125)" xlink:href="#ArialMT-93"/>
     </g>
    </g>
   </g>
   <g id="line2d_29">
    <path clip-path="url(#p5c9216afeb)" d="M 410.066623 188.37 
L 411.999091 184.451782 
L 413.931558 182.600398 
L 415.864026 180.912936 
L 417.796494 179.502585 
L 419.728961 177.664703 
L 421.661429 176.235101 
L 425.526364 173.029215 
L 433.256234 166.93347 
L 440.986104 161.10224 
L 450.648442 153.698652 
L 466.108182 140.762722 
L 469.973117 137.334763 
L 489.297792 119.615503 
L 493.162727 116.454295 
L 497.027662 113.777013 
L 498.96013 112.666815 
L 500.892597 111.780759 
L 502.825065 111.061646 
L 504.757532 110.525309 
L 510.554935 109.267427 
L 512.487403 108.68209 
L 516.352338 107.163315 
L 520.217273 105.276235 
L 524.082208 103.043116 
L 526.014675 101.837246 
L 533.744545 96.308232 
L 537.609481 93.291092 
L 541.474416 90.063281 
L 549.204286 83.123785 
L 553.069221 79.832909 
L 555.001688 77.948866 
L 556.934156 76.244277 
L 560.799091 73.122934 
L 564.664026 70.119933 
L 582.056234 56.897944 
L 585.921169 53.573894 
L 589.786104 50.257208 
L 591.718571 47.751105 
L 593.651039 44.55276 
L 595.583506 41.998567 
L 597.515974 37.17 
L 599.448442 37.468747 
L 601.380909 39.525309 
L 603.313377 38.572457 
L 603.313377 37.89115 
L 601.380909 38.318442 
L 599.448442 37.740024 
L 597.515974 39.274722 
L 595.583506 40.196626 
L 591.718571 42.795827 
L 589.786104 44.371532 
L 587.853636 45.741722 
L 585.921169 47.347833 
L 578.191299 53.049681 
L 576.258831 54.421575 
L 572.393896 57.486179 
L 568.528961 60.225758 
L 562.731558 64.662195 
L 553.069221 72.62683 
L 549.204286 76.05245 
L 537.609481 86.896722 
L 533.744545 90.638074 
L 529.87961 94.401508 
L 522.14974 101.506784 
L 518.284805 104.601512 
L 516.352338 105.979519 
L 514.41987 107.171727 
L 512.487403 108.16449 
L 510.554935 108.987338 
L 508.622468 109.623264 
L 502.825065 111.267522 
L 500.892597 112.072604 
L 498.96013 113.060074 
L 497.027662 114.201226 
L 493.162727 116.905382 
L 489.297792 120.142503 
L 485.432857 123.684615 
L 479.635455 129.331182 
L 471.905584 136.829816 
L 468.040649 140.38187 
L 466.108182 142.031304 
L 462.243247 145.58943 
L 448.715974 157.546894 
L 439.053636 165.454335 
L 437.121169 167.148269 
L 435.188701 168.549583 
L 431.323766 171.10505 
L 423.593896 177.5123 
L 421.661429 180.472763 
L 419.728961 182.429688 
L 417.796494 183.630312 
L 415.864026 185.341695 
L 413.931558 186.857988 
L 411.999091 187.78136 
L 410.066623 188.112881 
L 410.066623 188.112881 
" style="fill:none;stroke:#023eff;stroke-linecap:square;stroke-width:2;"/>
   </g>
   <g id="line2d_30">
    <path clip-path="url(#p5c9216afeb)" d="M 400.404286 110.128759 
L 612.975714 110.128759 
" style="fill:none;stroke:#808080;stroke-dasharray:0.6,0.99;stroke-dashoffset:0;stroke-width:0.6;"/>
   </g>
   <g id="line2d_31">
    <path clip-path="url(#p5c9216afeb)" d="M 506.69 195.93 
L 506.69 29.61 
" style="fill:none;stroke:#808080;stroke-dasharray:0.6,0.99;stroke-dashoffset:0;stroke-width:0.6;"/>
   </g>
   <g id="patch_8">
    <path d="M 400.404286 195.93 
L 400.404286 29.61 
" style="fill:none;stroke:#000000;stroke-linecap:square;stroke-linejoin:miter;stroke-width:0.8;"/>
   </g>
   <g id="patch_9">
    <path d="M 612.975714 195.93 
L 612.975714 29.61 
" style="fill:none;stroke:#000000;stroke-linecap:square;stroke-linejoin:miter;stroke-width:0.8;"/>
   </g>
   <g id="patch_10">
    <path d="M 400.404286 195.93 
L 612.975714 195.93 
" style="fill:none;stroke:#000000;stroke-linecap:square;stroke-linejoin:miter;stroke-width:0.8;"/>
   </g>
   <g id="patch_11">
    <path d="M 400.404286 29.61 
L 612.975714 29.61 
" style="fill:none;stroke:#000000;stroke-linecap:square;stroke-linejoin:miter;stroke-width:0.8;"/>
   </g>
   <g id="text_20">
    <!-- $V_{GS}$ = 20 V -->
    <g transform="translate(406.781429 54.558)scale(0.18 -0.18)">
     <use transform="translate(0 0.125)" xlink:href="#ArialMT-86"/>
     <use transform="translate(68.441563 -29.74375)scale(0.7)" xlink:href="#ArialMT-71"/>
     <use transform="translate(122.889805 -29.74375)scale(0.7)" xlink:href="#ArialMT-83"/>
     <use transform="translate(174.557383 0.125)" xlink:href="#ArialMT-32"/>
     <use transform="translate(202.340586 0.125)" xlink:href="#ArialMT-61"/>
     <use transform="translate(260.739023 0.125)" xlink:href="#ArialMT-32"/>
     <use transform="translate(288.522227 0.125)" xlink:href="#ArialMT-50"/>
     <use transform="translate(344.137461 0.125)" xlink:href="#ArialMT-48"/>
     <use transform="translate(399.752695 0.125)" xlink:href="#ArialMT-32"/>
     <use transform="translate(427.535898 0.125)" xlink:href="#ArialMT-86"/>
    </g>
   </g>
   <g id="text_21">
    <!-- $I_{D,max}$ = 646 $\mu A / \mu m$ -->
    <defs>
     <path d="M 0.734375 0 
L 19.671875 26.953125 
L 2.15625 51.859375 
L 13.140625 51.859375 
L 21.09375 39.703125 
Q 23.34375 36.234375 24.703125 33.890625 
Q 26.859375 37.109375 28.65625 39.59375 
L 37.40625 51.859375 
L 47.90625 51.859375 
L 29.984375 27.4375 
L 49.265625 0 
L 38.484375 0 
L 27.828125 16.109375 
L 25 20.453125 
L 11.375 0 
z
" id="ArialMT-120"/>
     <path d="M 32.328125 0 
L 32.328125 17.140625 
L 1.265625 17.140625 
L 1.265625 25.203125 
L 33.9375 71.578125 
L 41.109375 71.578125 
L 41.109375 25.203125 
L 50.78125 25.203125 
L 50.78125 17.140625 
L 41.109375 17.140625 
L 41.109375 0 
z
M 32.328125 25.203125 
L 32.328125 57.46875 
L 9.90625 25.203125 
z
" id="ArialMT-52"/>
    </defs>
    <g transform="translate(406.781429 75.348)scale(0.18 -0.18)">
     <use transform="translate(0 0.203125)" xlink:href="#ArialMT-73"/>
     <use transform="translate(29.525547 -29.665625)scale(0.7)" xlink:href="#ArialMT-68"/>
     <use transform="translate(80.077305 -29.665625)scale(0.7)" xlink:href="#ArialMT-44"/>
     <use transform="translate(111.187656 -29.665625)scale(0.7)" xlink:href="#ArialMT-109"/>
     <use transform="translate(169.498203 -29.665625)scale(0.7)" xlink:href="#ArialMT-97"/>
     <use transform="translate(208.428867 -29.665625)scale(0.7)" xlink:href="#ArialMT-120"/>
     <use transform="translate(248.406992 0.203125)" xlink:href="#ArialMT-32"/>
     <use transform="translate(276.190195 0.203125)" xlink:href="#ArialMT-61"/>
     <use transform="translate(334.588633 0.203125)" xlink:href="#ArialMT-32"/>
     <use transform="translate(362.371836 0.203125)" xlink:href="#ArialMT-54"/>
     <use transform="translate(417.98707 0.203125)" xlink:href="#ArialMT-52"/>
     <use transform="translate(473.602305 0.203125)" xlink:href="#ArialMT-54"/>
     <use transform="translate(529.217539 0.203125)" xlink:href="#ArialMT-32"/>
     <use transform="translate(557.000742 0.203125)" xlink:href="#ArialMT-956"/>
     <use transform="translate(614.61793 0.203125)" xlink:href="#ArialMT-65"/>
     <use transform="translate(681.317148 0.203125)" xlink:href="#ArialMT-47"/>
     <use transform="translate(709.100352 0.203125)" xlink:href="#ArialMT-956"/>
     <use transform="translate(766.717539 0.203125)" xlink:href="#ArialMT-109"/>
    </g>
   </g>
   <g id="legend_2">
    <g id="line2d_32">
     <path d="M 502.85961 180.205043 
L 532.84761 180.205043 
" style="fill:none;stroke:#023eff;stroke-linecap:square;stroke-width:2;"/>
    </g>
    <g id="line2d_33"/>
    <g id="text_22">
     <!-- 100 nm -->
     <g transform="translate(544.84281 185.452943)scale(0.14994 -0.14994)">
      <use xlink:href="#ArialMT-49"/>
      <use x="55.615234" xlink:href="#ArialMT-48"/>
      <use x="111.230469" xlink:href="#ArialMT-48"/>
      <use x="166.845703" xlink:href="#ArialMT-32"/>
      <use x="194.628906" xlink:href="#ArialMT-110"/>
      <use x="250.244141" xlink:href="#ArialMT-109"/>
     </g>
    </g>
   </g>
  </g>
  <g id="axes_3">
   <g id="patch_12">
    <path d="M 740.518571 195.93 
L 953.09 195.93 
L 953.09 29.61 
L 740.518571 29.61 
z
" style="fill:none;"/>
   </g>
   <g id="matplotlib.axis_5">
    <g id="xtick_7">
     <g id="line2d_34">
      <g>
       <use style="stroke:#000000;stroke-width:0.8;" x="750.180909" xlink:href="#m36dfff74c2" y="195.93"/>
      </g>
     </g>
     <g id="text_23">
      <!-- −5 -->
      <g transform="translate(741.629737 213.666719)scale(0.15 -0.15)">
       <use xlink:href="#ArialMT-8722"/>
       <use x="58.398438" xlink:href="#ArialMT-53"/>
      </g>
     </g>
    </g>
    <g id="xtick_8">
     <g id="line2d_35">
      <g>
       <use style="stroke:#000000;stroke-width:0.8;" x="846.804286" xlink:href="#m36dfff74c2" y="195.93"/>
      </g>
     </g>
     <g id="text_24">
      <!-- 0 -->
      <g transform="translate(842.633583 213.666719)scale(0.15 -0.15)">
       <use xlink:href="#ArialMT-48"/>
      </g>
     </g>
    </g>
    <g id="xtick_9">
     <g id="line2d_36">
      <g>
       <use style="stroke:#000000;stroke-width:0.8;" x="943.427662" xlink:href="#m36dfff74c2" y="195.93"/>
      </g>
     </g>
     <g id="text_25">
      <!-- 5 -->
      <g transform="translate(939.256959 213.666719)scale(0.15 -0.15)">
       <use xlink:href="#ArialMT-53"/>
      </g>
     </g>
    </g>
    <g id="text_26">
     <!-- Drain Voltage,  $V_{DS}$  [V] -->
     <g transform="translate(753.384286 233.607969)scale(0.18 -0.18)">
      <use transform="translate(0 0.421875)" xlink:href="#ArialMT-68"/>
      <use transform="translate(72.216797 0.421875)" xlink:href="#ArialMT-114"/>
      <use transform="translate(105.517578 0.421875)" xlink:href="#ArialMT-97"/>
      <use transform="translate(161.132812 0.421875)" xlink:href="#ArialMT-105"/>
      <use transform="translate(183.349609 0.421875)" xlink:href="#ArialMT-110"/>
      <use transform="translate(238.964844 0.421875)" xlink:href="#ArialMT-32"/>
      <use transform="translate(266.748047 0.421875)" xlink:href="#ArialMT-86"/>
      <use transform="translate(333.447266 0.421875)" xlink:href="#ArialMT-111"/>
      <use transform="translate(389.0625 0.421875)" xlink:href="#ArialMT-108"/>
      <use transform="translate(411.279297 0.421875)" xlink:href="#ArialMT-116"/>
      <use transform="translate(439.0625 0.421875)" xlink:href="#ArialMT-97"/>
      <use transform="translate(494.677734 0.421875)" xlink:href="#ArialMT-103"/>
      <use transform="translate(550.292969 0.421875)" xlink:href="#ArialMT-101"/>
      <use transform="translate(605.908203 0.421875)" xlink:href="#ArialMT-44"/>
      <use transform="translate(633.691406 0.421875)" xlink:href="#ArialMT-32"/>
      <use transform="translate(661.474609 0.421875)" xlink:href="#ArialMT-32"/>
      <use transform="translate(689.257812 0.421875)" xlink:href="#ArialMT-86"/>
      <use transform="translate(757.699375 -29.446875)scale(0.7)" xlink:href="#ArialMT-68"/>
      <use transform="translate(808.251133 -29.446875)scale(0.7)" xlink:href="#ArialMT-83"/>
      <use transform="translate(859.918711 0.421875)" xlink:href="#ArialMT-32"/>
      <use transform="translate(887.701914 0.421875)" xlink:href="#ArialMT-32"/>
      <use transform="translate(915.485117 0.421875)" xlink:href="#ArialMT-91"/>
      <use transform="translate(943.26832 0.421875)" xlink:href="#ArialMT-86"/>
      <use transform="translate(1009.967539 0.421875)" xlink:href="#ArialMT-93"/>
     </g>
    </g>
   </g>
   <g id="matplotlib.axis_6">
    <g id="ytick_20">
     <g id="line2d_37">
      <g>
       <use style="stroke:#000000;stroke-width:0.8;" x="740.518571" xlink:href="#m9064049aee" y="182.844949"/>
      </g>
     </g>
     <g id="text_27">
      <!-- −600 -->
      <g transform="translate(699.733415 188.213308)scale(0.15 -0.15)">
       <use xlink:href="#ArialMT-8722"/>
       <use x="58.398438" xlink:href="#ArialMT-54"/>
       <use x="114.013672" xlink:href="#ArialMT-48"/>
       <use x="169.628906" xlink:href="#ArialMT-48"/>
      </g>
     </g>
    </g>
    <g id="ytick_21">
     <g id="line2d_38">
      <g>
       <use style="stroke:#000000;stroke-width:0.8;" x="740.518571" xlink:href="#m9064049aee" y="146.486854"/>
      </g>
     </g>
     <g id="text_28">
      <!-- −300 -->
      <g transform="translate(699.733415 151.855213)scale(0.15 -0.15)">
       <use xlink:href="#ArialMT-8722"/>
       <use x="58.398438" xlink:href="#ArialMT-51"/>
       <use x="114.013672" xlink:href="#ArialMT-48"/>
       <use x="169.628906" xlink:href="#ArialMT-48"/>
      </g>
     </g>
    </g>
    <g id="ytick_22">
     <g id="line2d_39">
      <g>
       <use style="stroke:#000000;stroke-width:0.8;" x="740.518571" xlink:href="#m9064049aee" y="110.128759"/>
      </g>
     </g>
     <g id="text_29">
      <!-- 0 -->
      <g transform="translate(725.177165 115.497118)scale(0.15 -0.15)">
       <use xlink:href="#ArialMT-48"/>
      </g>
     </g>
    </g>
    <g id="ytick_23">
     <g id="line2d_40">
      <g>
       <use style="stroke:#000000;stroke-width:0.8;" x="740.518571" xlink:href="#m9064049aee" y="73.770664"/>
      </g>
     </g>
     <g id="text_30">
      <!-- 300 -->
      <g transform="translate(708.494353 79.139023)scale(0.15 -0.15)">
       <use xlink:href="#ArialMT-51"/>
       <use x="55.615234" xlink:href="#ArialMT-48"/>
       <use x="111.230469" xlink:href="#ArialMT-48"/>
      </g>
     </g>
    </g>
    <g id="ytick_24">
     <g id="line2d_41">
      <g>
       <use style="stroke:#000000;stroke-width:0.8;" x="740.518571" xlink:href="#m9064049aee" y="37.412569"/>
      </g>
     </g>
     <g id="text_31">
      <!-- 600 -->
      <g transform="translate(708.494353 42.780928)scale(0.15 -0.15)">
       <use xlink:href="#ArialMT-54"/>
       <use x="55.615234" xlink:href="#ArialMT-48"/>
       <use x="111.230469" xlink:href="#ArialMT-48"/>
      </g>
     </g>
    </g>
    <g id="text_32">
     <!-- Drain Current,  $I_D$  [$\mu A$/$\mu m$] -->
     <g transform="translate(690.333415 218.34)rotate(-90)scale(0.18 -0.18)">
      <use transform="translate(0 0.203125)" xlink:href="#ArialMT-68"/>
      <use transform="translate(72.216797 0.203125)" xlink:href="#ArialMT-114"/>
      <use transform="translate(105.517578 0.203125)" xlink:href="#ArialMT-97"/>
      <use transform="translate(161.132812 0.203125)" xlink:href="#ArialMT-105"/>
      <use transform="translate(183.349609 0.203125)" xlink:href="#ArialMT-110"/>
      <use transform="translate(238.964844 0.203125)" xlink:href="#ArialMT-32"/>
      <use transform="translate(266.748047 0.203125)" xlink:href="#ArialMT-67"/>
      <use transform="translate(338.964844 0.203125)" xlink:href="#ArialMT-117"/>
      <use transform="translate(394.580078 0.203125)" xlink:href="#ArialMT-114"/>
      <use transform="translate(427.880859 0.203125)" xlink:href="#ArialMT-114"/>
      <use transform="translate(461.181641 0.203125)" xlink:href="#ArialMT-101"/>
      <use transform="translate(516.796875 0.203125)" xlink:href="#ArialMT-110"/>
      <use transform="translate(572.412109 0.203125)" xlink:href="#ArialMT-116"/>
      <use transform="translate(600.195312 0.203125)" xlink:href="#ArialMT-44"/>
      <use transform="translate(627.978516 0.203125)" xlink:href="#ArialMT-32"/>
      <use transform="translate(655.761719 0.203125)" xlink:href="#ArialMT-32"/>
      <use transform="translate(683.544922 0.203125)" xlink:href="#ArialMT-73"/>
      <use transform="translate(713.070469 -29.665625)scale(0.7)" xlink:href="#ArialMT-68"/>
      <use transform="translate(768.600352 0.203125)" xlink:href="#ArialMT-32"/>
      <use transform="translate(796.383555 0.203125)" xlink:href="#ArialMT-32"/>
      <use transform="translate(824.166758 0.203125)" xlink:href="#ArialMT-91"/>
      <use transform="translate(851.949961 0.203125)" xlink:href="#ArialMT-956"/>
      <use transform="translate(909.567148 0.203125)" xlink:href="#ArialMT-65"/>
      <use transform="translate(976.266367 0.203125)" xlink:href="#ArialMT-47"/>
      <use transform="translate(1004.04957 0.203125)" xlink:href="#ArialMT-956"/>
      <use transform="translate(1061.666758 0.203125)" xlink:href="#ArialMT-109"/>
      <use transform="translate(1144.967539 0.203125)" xlink:href="#ArialMT-93"/>
     </g>
    </g>
   </g>
   <g id="line2d_42">
    <path clip-path="url(#p0d34c65a07)" d="M 750.180909 164.775681 
L 752.113377 163.623789 
L 754.045844 162.27763 
L 757.910779 159.98851 
L 765.640649 155.591044 
L 769.505584 153.476823 
L 784.965325 145.157352 
L 794.627662 139.420903 
L 804.29 133.181468 
L 810.087403 129.114577 
L 812.01987 127.655309 
L 827.47961 117.227338 
L 831.344545 114.906932 
L 835.209481 112.931657 
L 837.141948 112.109426 
L 839.074416 111.440064 
L 841.006883 110.926927 
L 842.939351 110.555438 
L 846.804286 110.131489 
L 852.601688 109.555687 
L 856.466623 108.981969 
L 862.264026 107.795366 
L 868.061429 106.320891 
L 873.858831 104.471576 
L 877.723766 102.991593 
L 883.521169 100.387224 
L 887.386104 98.024259 
L 889.318571 96.893763 
L 891.251039 95.578111 
L 893.183506 94.427769 
L 897.048442 91.876569 
L 898.980909 90.898877 
L 902.845844 88.552905 
L 906.710779 86.291293 
L 910.575714 83.886161 
L 912.508182 82.903127 
L 916.373117 80.581741 
L 918.305584 78.665646 
L 920.238052 77.691314 
L 922.170519 76.492944 
L 924.102987 73.965085 
L 926.035455 71.828463 
L 927.967922 71.812361 
L 929.90039 70.637977 
L 931.832857 68.997159 
L 933.765325 67.683531 
L 935.697792 66.148067 
L 937.63026 64.114329 
L 939.562727 60.260836 
L 941.495195 59.78193 
L 943.427662 57.142393 
L 943.427662 55.410732 
L 941.495195 55.534971 
L 939.562727 56.029368 
L 937.63026 56.687903 
L 935.697792 57.054425 
L 933.765325 58.85658 
L 931.832857 59.927748 
L 929.90039 61.137821 
L 926.035455 63.12774 
L 924.102987 64.23035 
L 922.170519 65.04836 
L 898.980909 78.314101 
L 891.251039 83.202889 
L 881.588701 89.941734 
L 866.128961 101.33693 
L 860.331558 105.157458 
L 856.466623 107.263257 
L 854.534156 108.121907 
L 852.601688 108.832147 
L 850.669221 109.394491 
L 846.804286 110.134216 
L 842.939351 110.841417 
L 841.006883 111.36072 
L 839.074416 112.006656 
L 835.209481 113.661323 
L 831.344545 115.757654 
L 827.47961 118.153564 
L 823.614675 120.803411 
L 819.74974 123.680978 
L 804.29 135.317559 
L 792.695195 144.158844 
L 786.897792 148.24939 
L 783.032857 151.382739 
L 777.235455 155.013494 
L 775.302987 156.640943 
L 767.573117 161.647006 
L 765.640649 163.08981 
L 763.708182 164.32967 
L 761.775714 165.943671 
L 759.843247 167.279749 
L 757.910779 168.059634 
L 755.978312 170.066755 
L 754.045844 170.872064 
L 752.113377 172.024323 
L 750.180909 172.233592 
L 750.180909 172.233592 
" style="fill:none;stroke:#023eff;stroke-linecap:square;stroke-width:2;"/>
   </g>
   <g id="line2d_43">
    <path clip-path="url(#p0d34c65a07)" d="M 750.180909 183.224084 
L 752.113377 180.103176 
L 759.843247 172.994042 
L 765.640649 168.508213 
L 767.573117 166.705165 
L 779.167922 158.411633 
L 792.695195 148.881267 
L 800.425065 143.066721 
L 808.154935 136.770444 
L 815.884805 130.150642 
L 825.547143 121.842969 
L 829.412078 118.682853 
L 833.277013 115.765811 
L 835.209481 114.500301 
L 837.141948 113.372781 
L 839.074416 112.395014 
L 841.006883 111.574653 
L 842.939351 110.945277 
L 846.804286 110.135485 
L 850.669221 109.364576 
L 854.534156 108.259311 
L 858.399091 106.807771 
L 862.264026 105.042862 
L 866.128961 103.045775 
L 871.926364 99.65029 
L 877.723766 95.912118 
L 881.588701 93.257162 
L 883.521169 91.969925 
L 893.183506 84.220006 
L 900.913377 78.107238 
L 910.575714 71.078347 
L 914.440649 68.456044 
L 920.238052 64.193314 
L 922.170519 62.451999 
L 924.102987 61.063997 
L 926.035455 59.285583 
L 927.967922 57.674125 
L 931.832857 53.732021 
L 933.765325 51.717409 
L 935.697792 48.239629 
L 937.63026 45.567098 
L 939.562727 44.275952 
L 941.495195 47.275596 
L 943.427662 44.402854 
L 943.427662 43.61607 
L 941.495195 43.492011 
L 939.562727 43.042844 
L 937.63026 44.8116 
L 916.373117 59.361545 
L 912.508182 61.835349 
L 908.643247 64.614194 
L 904.778312 67.268062 
L 897.048442 72.871614 
L 893.183506 75.872291 
L 885.453636 82.272645 
L 875.791299 90.839516 
L 869.993896 96.065045 
L 866.128961 99.412944 
L 862.264026 102.538228 
L 858.399091 105.303738 
L 856.466623 106.492007 
L 854.534156 107.52498 
L 852.601688 108.40098 
L 850.669221 109.114662 
L 846.804286 110.137059 
L 844.871818 110.57176 
L 842.939351 111.124535 
L 841.006883 111.823481 
L 839.074416 112.691704 
L 835.209481 114.878687 
L 831.344545 117.599113 
L 827.47961 120.754695 
L 823.614675 124.075997 
L 815.884805 130.947077 
L 800.425065 144.644303 
L 794.627662 149.463124 
L 784.965325 157.079984 
L 783.032857 158.487411 
L 779.167922 161.514729 
L 777.235455 162.95008 
L 775.302987 164.612545 
L 773.370519 165.90624 
L 771.438052 167.415017 
L 767.573117 169.884738 
L 765.640649 171.308661 
L 763.708182 172.489525 
L 761.775714 174.02234 
L 759.843247 175.234794 
L 757.910779 178.188873 
L 755.978312 180.538891 
L 754.045844 182.23105 
L 752.113377 183.632611 
L 750.180909 181.343917 
L 750.180909 181.343917 
" style="fill:none;stroke:#ff7c00;stroke-linecap:square;stroke-width:2;"/>
   </g>
   <g id="line2d_44">
    <path clip-path="url(#p0d34c65a07)" d="M 750.180909 188.37 
L 752.113377 184.451782 
L 754.045844 182.600398 
L 755.978312 180.912936 
L 757.910779 179.502585 
L 759.843247 177.664703 
L 761.775714 176.235101 
L 765.640649 173.029215 
L 773.370519 166.93347 
L 781.10039 161.10224 
L 790.762727 153.698652 
L 806.222468 140.762722 
L 810.087403 137.334763 
L 829.412078 119.615503 
L 833.277013 116.454295 
L 837.141948 113.777013 
L 839.074416 112.666815 
L 841.006883 111.780759 
L 842.939351 111.061646 
L 844.871818 110.525309 
L 850.669221 109.267427 
L 852.601688 108.68209 
L 856.466623 107.163315 
L 860.331558 105.276235 
L 864.196494 103.043116 
L 866.128961 101.837246 
L 873.858831 96.308232 
L 877.723766 93.291092 
L 881.588701 90.063281 
L 889.318571 83.123785 
L 893.183506 79.832909 
L 895.115974 77.948866 
L 897.048442 76.244277 
L 900.913377 73.122934 
L 904.778312 70.119933 
L 922.170519 56.897944 
L 926.035455 53.573894 
L 929.90039 50.257208 
L 931.832857 47.751105 
L 933.765325 44.55276 
L 935.697792 41.998567 
L 937.63026 37.17 
L 939.562727 37.468747 
L 941.495195 39.525309 
L 943.427662 38.572457 
L 943.427662 37.89115 
L 941.495195 38.318442 
L 939.562727 37.740024 
L 937.63026 39.274722 
L 935.697792 40.196626 
L 931.832857 42.795827 
L 929.90039 44.371532 
L 927.967922 45.741722 
L 926.035455 47.347833 
L 918.305584 53.049681 
L 916.373117 54.421575 
L 912.508182 57.486179 
L 908.643247 60.225758 
L 902.845844 64.662195 
L 893.183506 72.62683 
L 889.318571 76.05245 
L 877.723766 86.896722 
L 873.858831 90.638074 
L 869.993896 94.401508 
L 862.264026 101.506784 
L 858.399091 104.601512 
L 856.466623 105.979519 
L 854.534156 107.171727 
L 852.601688 108.16449 
L 850.669221 108.987338 
L 848.736753 109.623264 
L 842.939351 111.267522 
L 841.006883 112.072604 
L 839.074416 113.060074 
L 837.141948 114.201226 
L 833.277013 116.905382 
L 829.412078 120.142503 
L 825.547143 123.684615 
L 819.74974 129.331182 
L 812.01987 136.829816 
L 808.154935 140.38187 
L 806.222468 142.031304 
L 802.357532 145.58943 
L 788.83026 157.546894 
L 779.167922 165.454335 
L 777.235455 167.148269 
L 775.302987 168.549583 
L 771.438052 171.10505 
L 763.708182 177.5123 
L 761.775714 180.472763 
L 759.843247 182.429688 
L 757.910779 183.630312 
L 755.978312 185.341695 
L 754.045844 186.857988 
L 752.113377 187.78136 
L 750.180909 188.112881 
L 750.180909 188.112881 
" style="fill:none;stroke:#1ac938;stroke-linecap:square;stroke-width:2;"/>
   </g>
   <g id="line2d_45">
    <path clip-path="url(#p0d34c65a07)" d="M 740.518571 110.128759 
L 953.09 110.128759 
" style="fill:none;stroke:#808080;stroke-dasharray:0.6,0.99;stroke-dashoffset:0;stroke-width:0.6;"/>
   </g>
   <g id="line2d_46">
    <path clip-path="url(#p0d34c65a07)" d="M 846.804286 195.93 
L 846.804286 29.61 
" style="fill:none;stroke:#808080;stroke-dasharray:0.6,0.99;stroke-dashoffset:0;stroke-width:0.6;"/>
   </g>
   <g id="patch_13">
    <path d="M 740.518571 195.93 
L 740.518571 29.61 
" style="fill:none;stroke:#000000;stroke-linecap:square;stroke-linejoin:miter;stroke-width:0.8;"/>
   </g>
   <g id="patch_14">
    <path d="M 953.09 195.93 
L 953.09 29.61 
" style="fill:none;stroke:#000000;stroke-linecap:square;stroke-linejoin:miter;stroke-width:0.8;"/>
   </g>
   <g id="patch_15">
    <path d="M 740.518571 195.93 
L 953.09 195.93 
" style="fill:none;stroke:#000000;stroke-linecap:square;stroke-linejoin:miter;stroke-width:0.8;"/>
   </g>
   <g id="patch_16">
    <path d="M 740.518571 29.61 
L 953.09 29.61 
" style="fill:none;stroke:#000000;stroke-linecap:square;stroke-linejoin:miter;stroke-width:0.8;"/>
   </g>
   <g id="text_33">
    <!-- $L_{ch}$ = 100 nm -->
    <defs>
     <path d="M 7.328125 0 
L 7.328125 71.578125 
L 16.796875 71.578125 
L 16.796875 8.453125 
L 52.046875 8.453125 
L 52.046875 0 
z
" id="ArialMT-76"/>
     <path d="M 40.4375 19 
L 49.078125 17.875 
Q 47.65625 8.9375 41.8125 3.875 
Q 35.984375 -1.171875 27.484375 -1.171875 
Q 16.84375 -1.171875 10.375 5.78125 
Q 3.90625 12.75 3.90625 25.734375 
Q 3.90625 34.125 6.6875 40.421875 
Q 9.46875 46.734375 15.15625 49.875 
Q 20.84375 53.03125 27.546875 53.03125 
Q 35.984375 53.03125 41.359375 48.75 
Q 46.734375 44.484375 48.25 36.625 
L 39.703125 35.296875 
Q 38.484375 40.53125 35.375 43.15625 
Q 32.28125 45.796875 27.875 45.796875 
Q 21.234375 45.796875 17.078125 41.03125 
Q 12.9375 36.28125 12.9375 25.984375 
Q 12.9375 15.53125 16.9375 10.796875 
Q 20.953125 6.0625 27.390625 6.0625 
Q 32.5625 6.0625 36.03125 9.234375 
Q 39.5 12.40625 40.4375 19 
z
" id="ArialMT-99"/>
     <path d="M 6.59375 0 
L 6.59375 71.578125 
L 15.375 71.578125 
L 15.375 45.90625 
Q 21.53125 53.03125 30.90625 53.03125 
Q 36.671875 53.03125 40.921875 50.75 
Q 45.171875 48.484375 47 44.484375 
Q 48.828125 40.484375 48.828125 32.859375 
L 48.828125 0 
L 40.046875 0 
L 40.046875 32.859375 
Q 40.046875 39.453125 37.1875 42.453125 
Q 34.328125 45.453125 29.109375 45.453125 
Q 25.203125 45.453125 21.75 43.421875 
Q 18.3125 41.40625 16.84375 37.9375 
Q 15.375 34.46875 15.375 28.375 
L 15.375 0 
z
" id="ArialMT-104"/>
    </defs>
    <g transform="translate(751.147143 54.558)scale(0.18 -0.18)">
     <use transform="translate(0 0.125)" xlink:href="#ArialMT-76"/>
     <use transform="translate(57.357578 -29.74375)scale(0.7)" xlink:href="#ArialMT-99"/>
     <use transform="translate(92.357578 -29.74375)scale(0.7)" xlink:href="#ArialMT-104"/>
     <use transform="translate(136.266367 0.125)" xlink:href="#ArialMT-32"/>
     <use transform="translate(164.04957 0.125)" xlink:href="#ArialMT-61"/>
     <use transform="translate(222.448008 0.125)" xlink:href="#ArialMT-32"/>
     <use transform="translate(250.231211 0.125)" xlink:href="#ArialMT-49"/>
     <use transform="translate(305.846445 0.125)" xlink:href="#ArialMT-48"/>
     <use transform="translate(361.46168 0.125)" xlink:href="#ArialMT-48"/>
     <use transform="translate(417.076914 0.125)" xlink:href="#ArialMT-32"/>
     <use transform="translate(444.860117 0.125)" xlink:href="#ArialMT-110"/>
     <use transform="translate(500.475352 0.125)" xlink:href="#ArialMT-109"/>
    </g>
   </g>
   <g id="legend_3">
    <g id="line2d_47">
     <path d="M 849.634512 129.470079 
L 879.622512 129.470079 
" style="fill:none;stroke:#023eff;stroke-linecap:square;stroke-width:2;"/>
    </g>
    <g id="line2d_48"/>
    <g id="text_34">
     <!-- 0.0 V -->
     <g transform="translate(891.617712 134.717979)scale(0.14994 -0.14994)">
      <use xlink:href="#ArialMT-48"/>
      <use x="55.615234" xlink:href="#ArialMT-46"/>
      <use x="83.398438" xlink:href="#ArialMT-48"/>
      <use x="139.013672" xlink:href="#ArialMT-32"/>
      <use x="166.796875" xlink:href="#ArialMT-86"/>
     </g>
    </g>
    <g id="line2d_49">
     <path d="M 849.634512 150.679561 
L 879.622512 150.679561 
" style="fill:none;stroke:#ff7c00;stroke-linecap:square;stroke-width:2;"/>
    </g>
    <g id="line2d_50"/>
    <g id="text_35">
     <!-- 10.0 V -->
     <g transform="translate(891.617712 155.927461)scale(0.14994 -0.14994)">
      <use xlink:href="#ArialMT-49"/>
      <use x="55.615234" xlink:href="#ArialMT-48"/>
      <use x="111.230469" xlink:href="#ArialMT-46"/>
      <use x="139.013672" xlink:href="#ArialMT-48"/>
      <use x="194.628906" xlink:href="#ArialMT-32"/>
      <use x="222.412109" xlink:href="#ArialMT-86"/>
     </g>
    </g>
    <g id="line2d_51">
     <path d="M 849.634512 171.889043 
L 879.622512 171.889043 
" style="fill:none;stroke:#1ac938;stroke-linecap:square;stroke-width:2;"/>
    </g>
    <g id="line2d_52"/>
    <g id="text_36">
     <!-- 20.0 V -->
     <g transform="translate(891.617712 177.136943)scale(0.14994 -0.14994)">
      <use xlink:href="#ArialMT-50"/>
      <use x="55.615234" xlink:href="#ArialMT-48"/>
      <use x="111.230469" xlink:href="#ArialMT-46"/>
      <use x="139.013672" xlink:href="#ArialMT-48"/>
      <use x="194.628906" xlink:href="#ArialMT-32"/>
      <use x="222.412109" xlink:href="#ArialMT-86"/>
     </g>
    </g>
   </g>
  </g>
  <g id="text_37">
   <!-- 4-3 -->
   <defs>
    <path d="M 3.171875 21.484375 
L 3.171875 30.328125 
L 30.171875 30.328125 
L 30.171875 21.484375 
z
" id="ArialMT-45"/>
   </defs>
   <g transform="translate(482.173906 18.030937)scale(0.14 -0.14)">
    <use xlink:href="#ArialMT-52"/>
    <use x="55.615234" xlink:href="#ArialMT-45"/>
    <use x="88.916016" xlink:href="#ArialMT-51"/>
   </g>
  </g>
 </g>
 <defs>
  <clipPath id="pe88be578fe">
   <rect height="166.32" width="212.571429" x="60.29" y="29.61"/>
  </clipPath>
  <clipPath id="p5c9216afeb">
   <rect height="166.32" width="212.571429" x="400.404286" y="29.61"/>
  </clipPath>
  <clipPath id="p0d34c65a07">
   <rect height="166.32" width="212.571429" x="740.518571" y="29.61"/>
  </clipPath>
 </defs>
</svg>
