<?xml version="1.0" encoding="utf-8" standalone="no"?>
<!DOCTYPE svg PUBLIC "-//W3C//DTD SVG 1.1//EN"
  "http://www.w3.org/Graphics/SVG/1.1/DTD/svg11.dtd">
<!-- Created with matplotlib (https://matplotlib.org/) -->
<svg height="246.567969pt" version="1.1" viewBox="0 0 980.89 246.567969" width="980.89pt" xmlns="http://www.w3.org/2000/svg" xmlns:xlink="http://www.w3.org/1999/xlink">
 <defs>
  <style type="text/css">
*{stroke-linecap:butt;stroke-linejoin:round;}
  </style>
 </defs>
 <g id="figure_1">
  <g id="patch_1">
   <path d="M 0 246.567969 
L 980.89 246.567969 
L 980.89 0 
L 0 0 
z
" style="fill:none;"/>
  </g>
  <g id="axes_1">
   <g id="patch_2">
    <path d="M 80.89 195.93 
L 293.461429 195.93 
L 293.461429 29.61 
L 80.89 29.61 
z
" style="fill:none;"/>
   </g>
   <g id="matplotlib.axis_1">
    <g id="xtick_1">
     <g id="line2d_1">
      <defs>
       <path d="M 0 0 
L 0 3.5 
" id="mbc21e8e84c" style="stroke:#000000;stroke-width:0.8;"/>
      </defs>
      <g>
       <use style="stroke:#000000;stroke-width:0.8;" x="90.551536" xlink:href="#mbc21e8e84c" y="195.93"/>
      </g>
     </g>
     <g id="text_1">
      <!-- −20 -->
      <defs>
       <path d="M 52.828125 31.203125 
L 5.5625 31.203125 
L 5.5625 39.40625 
L 52.828125 39.40625 
z
" id="ArialMT-8722"/>
       <path d="M 50.34375 8.453125 
L 50.34375 0 
L 3.03125 0 
Q 2.9375 3.171875 4.046875 6.109375 
Q 5.859375 10.9375 9.828125 15.625 
Q 13.8125 20.3125 21.34375 26.46875 
Q 33.015625 36.03125 37.109375 41.625 
Q 41.21875 47.21875 41.21875 52.203125 
Q 41.21875 57.421875 37.46875 61 
Q 33.734375 64.59375 27.734375 64.59375 
Q 21.390625 64.59375 17.578125 60.78125 
Q 13.765625 56.984375 13.71875 50.25 
L 4.6875 51.171875 
Q 5.609375 61.28125 11.65625 66.578125 
Q 17.71875 71.875 27.9375 71.875 
Q 38.234375 71.875 44.234375 66.15625 
Q 50.25 60.453125 50.25 52 
Q 50.25 47.703125 48.484375 43.546875 
Q 46.734375 39.40625 42.65625 34.8125 
Q 38.578125 30.21875 29.109375 22.21875 
Q 21.1875 15.578125 18.9375 13.203125 
Q 16.703125 10.84375 15.234375 8.453125 
z
" id="ArialMT-50"/>
       <path d="M 4.15625 35.296875 
Q 4.15625 48 6.765625 55.734375 
Q 9.375 63.484375 14.515625 67.671875 
Q 19.671875 71.875 27.484375 71.875 
Q 33.25 71.875 37.59375 69.546875 
Q 41.9375 67.234375 44.765625 62.859375 
Q 47.609375 58.5 49.21875 52.21875 
Q 50.828125 45.953125 50.828125 35.296875 
Q 50.828125 22.703125 48.234375 14.96875 
Q 45.65625 7.234375 40.5 3 
Q 35.359375 -1.21875 27.484375 -1.21875 
Q 17.140625 -1.21875 11.234375 6.203125 
Q 4.15625 15.140625 4.15625 35.296875 
z
M 13.1875 35.296875 
Q 13.1875 17.671875 17.3125 11.828125 
Q 21.4375 6 27.484375 6 
Q 33.546875 6 37.671875 11.859375 
Q 41.796875 17.71875 41.796875 35.296875 
Q 41.796875 52.984375 37.671875 58.78125 
Q 33.546875 64.59375 27.390625 64.59375 
Q 21.34375 64.59375 17.71875 59.46875 
Q 13.1875 52.9375 13.1875 35.296875 
z
" id="ArialMT-48"/>
      </defs>
      <g transform="translate(77.829661 213.666719)scale(0.15 -0.15)">
       <use xlink:href="#ArialMT-8722"/>
       <use x="58.398438" xlink:href="#ArialMT-50"/>
       <use x="114.013672" xlink:href="#ArialMT-48"/>
      </g>
     </g>
    </g>
    <g id="xtick_2">
     <g id="line2d_2">
      <g>
       <use style="stroke:#000000;stroke-width:0.8;" x="187.176369" xlink:href="#mbc21e8e84c" y="195.93"/>
      </g>
     </g>
     <g id="text_2">
      <!-- 0 -->
      <g transform="translate(183.005665 213.666719)scale(0.15 -0.15)">
       <use xlink:href="#ArialMT-48"/>
      </g>
     </g>
    </g>
    <g id="xtick_3">
     <g id="line2d_3">
      <g>
       <use style="stroke:#000000;stroke-width:0.8;" x="283.801201" xlink:href="#mbc21e8e84c" y="195.93"/>
      </g>
     </g>
     <g id="text_3">
      <!-- 20 -->
      <g transform="translate(275.459795 213.666719)scale(0.15 -0.15)">
       <use xlink:href="#ArialMT-50"/>
       <use x="55.615234" xlink:href="#ArialMT-48"/>
      </g>
     </g>
    </g>
    <g id="text_4">
     <!-- Gate Voltage,  $V_{GS}$  [V] -->
     <defs>
      <path d="M 41.21875 28.078125 
L 41.21875 36.46875 
L 71.53125 36.53125 
L 71.53125 9.96875 
Q 64.546875 4.390625 57.125 1.578125 
Q 49.703125 -1.21875 41.890625 -1.21875 
Q 31.34375 -1.21875 22.71875 3.296875 
Q 14.109375 7.8125 9.71875 16.359375 
Q 5.328125 24.90625 5.328125 35.453125 
Q 5.328125 45.90625 9.6875 54.953125 
Q 14.0625 64.015625 22.265625 68.40625 
Q 30.46875 72.796875 41.15625 72.796875 
Q 48.921875 72.796875 55.1875 70.28125 
Q 61.46875 67.78125 65.03125 63.28125 
Q 68.609375 58.796875 70.453125 51.5625 
L 61.921875 49.21875 
Q 60.296875 54.6875 57.90625 57.8125 
Q 55.515625 60.9375 51.0625 62.8125 
Q 46.625 64.703125 41.21875 64.703125 
Q 34.71875 64.703125 29.984375 62.71875 
Q 25.25 60.75 22.34375 57.515625 
Q 19.4375 54.296875 17.828125 50.4375 
Q 15.09375 43.796875 15.09375 36.03125 
Q 15.09375 26.46875 18.390625 20.015625 
Q 21.6875 13.578125 27.984375 10.453125 
Q 34.28125 7.328125 41.359375 7.328125 
Q 47.515625 7.328125 53.375 9.6875 
Q 59.234375 12.0625 62.25 14.75 
L 62.25 28.078125 
z
" id="ArialMT-71"/>
      <path d="M 40.4375 6.390625 
Q 35.546875 2.25 31.03125 0.53125 
Q 26.515625 -1.171875 21.34375 -1.171875 
Q 12.796875 -1.171875 8.203125 3 
Q 3.609375 7.171875 3.609375 13.671875 
Q 3.609375 17.484375 5.34375 20.625 
Q 7.078125 23.78125 9.890625 25.6875 
Q 12.703125 27.59375 16.21875 28.5625 
Q 18.796875 29.25 24.03125 29.890625 
Q 34.671875 31.15625 39.703125 32.90625 
Q 39.75 34.71875 39.75 35.203125 
Q 39.75 40.578125 37.25 42.78125 
Q 33.890625 45.75 27.25 45.75 
Q 21.046875 45.75 18.09375 43.578125 
Q 15.140625 41.40625 13.71875 35.890625 
L 5.125 37.0625 
Q 6.296875 42.578125 8.984375 45.96875 
Q 11.671875 49.359375 16.75 51.1875 
Q 21.828125 53.03125 28.515625 53.03125 
Q 35.15625 53.03125 39.296875 51.46875 
Q 43.453125 49.90625 45.40625 47.53125 
Q 47.359375 45.171875 48.140625 41.546875 
Q 48.578125 39.3125 48.578125 33.453125 
L 48.578125 21.734375 
Q 48.578125 9.46875 49.140625 6.21875 
Q 49.703125 2.984375 51.375 0 
L 42.1875 0 
Q 40.828125 2.734375 40.4375 6.390625 
z
M 39.703125 26.03125 
Q 34.90625 24.078125 25.34375 22.703125 
Q 19.921875 21.921875 17.671875 20.9375 
Q 15.4375 19.96875 14.203125 18.09375 
Q 12.984375 16.21875 12.984375 13.921875 
Q 12.984375 10.40625 15.640625 8.0625 
Q 18.3125 5.71875 23.4375 5.71875 
Q 28.515625 5.71875 32.46875 7.9375 
Q 36.421875 10.15625 38.28125 14.015625 
Q 39.703125 17 39.703125 22.796875 
z
" id="ArialMT-97"/>
      <path d="M 25.78125 7.859375 
L 27.046875 0.09375 
Q 23.34375 -0.6875 20.40625 -0.6875 
Q 15.625 -0.6875 12.984375 0.828125 
Q 10.359375 2.34375 9.28125 4.8125 
Q 8.203125 7.28125 8.203125 15.1875 
L 8.203125 45.015625 
L 1.765625 45.015625 
L 1.765625 51.859375 
L 8.203125 51.859375 
L 8.203125 64.703125 
L 16.9375 69.96875 
L 16.9375 51.859375 
L 25.78125 51.859375 
L 25.78125 45.015625 
L 16.9375 45.015625 
L 16.9375 14.703125 
Q 16.9375 10.9375 17.40625 9.859375 
Q 17.875 8.796875 18.921875 8.15625 
Q 19.96875 7.515625 21.921875 7.515625 
Q 23.390625 7.515625 25.78125 7.859375 
z
" id="ArialMT-116"/>
      <path d="M 42.09375 16.703125 
L 51.171875 15.578125 
Q 49.03125 7.625 43.21875 3.21875 
Q 37.40625 -1.171875 28.375 -1.171875 
Q 17 -1.171875 10.328125 5.828125 
Q 3.65625 12.84375 3.65625 25.484375 
Q 3.65625 38.578125 10.390625 45.796875 
Q 17.140625 53.03125 27.875 53.03125 
Q 38.28125 53.03125 44.875 45.953125 
Q 51.46875 38.875 51.46875 26.03125 
Q 51.46875 25.25 51.421875 23.6875 
L 12.75 23.6875 
Q 13.234375 15.140625 17.578125 10.59375 
Q 21.921875 6.0625 28.421875 6.0625 
Q 33.25 6.0625 36.671875 8.59375 
Q 40.09375 11.140625 42.09375 16.703125 
z
M 13.234375 30.90625 
L 42.1875 30.90625 
Q 41.609375 37.453125 38.875 40.71875 
Q 34.671875 45.796875 27.984375 45.796875 
Q 21.921875 45.796875 17.796875 41.75 
Q 13.671875 37.703125 13.234375 30.90625 
z
" id="ArialMT-101"/>
      <path id="ArialMT-32"/>
      <path d="M 28.171875 0 
L 0.4375 71.578125 
L 10.6875 71.578125 
L 29.296875 19.578125 
Q 31.546875 13.328125 33.0625 7.859375 
Q 34.71875 13.71875 36.921875 19.578125 
L 56.25 71.578125 
L 65.921875 71.578125 
L 37.890625 0 
z
" id="ArialMT-86"/>
      <path d="M 3.328125 25.921875 
Q 3.328125 40.328125 11.328125 47.265625 
Q 18.015625 53.03125 27.640625 53.03125 
Q 38.328125 53.03125 45.109375 46.015625 
Q 51.90625 39.015625 51.90625 26.65625 
Q 51.90625 16.65625 48.90625 10.90625 
Q 45.90625 5.171875 40.15625 2 
Q 34.421875 -1.171875 27.640625 -1.171875 
Q 16.75 -1.171875 10.03125 5.8125 
Q 3.328125 12.796875 3.328125 25.921875 
z
M 12.359375 25.921875 
Q 12.359375 15.96875 16.703125 11.015625 
Q 21.046875 6.0625 27.640625 6.0625 
Q 34.1875 6.0625 38.53125 11.03125 
Q 42.875 16.015625 42.875 26.21875 
Q 42.875 35.84375 38.5 40.796875 
Q 34.125 45.75 27.640625 45.75 
Q 21.046875 45.75 16.703125 40.8125 
Q 12.359375 35.890625 12.359375 25.921875 
z
" id="ArialMT-111"/>
      <path d="M 6.390625 0 
L 6.390625 71.578125 
L 15.1875 71.578125 
L 15.1875 0 
z
" id="ArialMT-108"/>
      <path d="M 4.984375 -4.296875 
L 13.53125 -5.5625 
Q 14.0625 -9.515625 16.5 -11.328125 
Q 19.78125 -13.765625 25.4375 -13.765625 
Q 31.546875 -13.765625 34.859375 -11.328125 
Q 38.1875 -8.890625 39.359375 -4.5 
Q 40.046875 -1.8125 39.984375 6.78125 
Q 34.234375 0 25.640625 0 
Q 14.9375 0 9.078125 7.71875 
Q 3.21875 15.4375 3.21875 26.21875 
Q 3.21875 33.640625 5.90625 39.90625 
Q 8.59375 46.1875 13.6875 49.609375 
Q 18.796875 53.03125 25.6875 53.03125 
Q 34.859375 53.03125 40.828125 45.609375 
L 40.828125 51.859375 
L 48.921875 51.859375 
L 48.921875 7.03125 
Q 48.921875 -5.078125 46.453125 -10.125 
Q 44 -15.1875 38.640625 -18.109375 
Q 33.296875 -21.046875 25.484375 -21.046875 
Q 16.21875 -21.046875 10.5 -16.875 
Q 4.78125 -12.703125 4.984375 -4.296875 
z
M 12.25 26.859375 
Q 12.25 16.65625 16.296875 11.96875 
Q 20.359375 7.28125 26.46875 7.28125 
Q 32.515625 7.28125 36.609375 11.9375 
Q 40.71875 16.609375 40.71875 26.5625 
Q 40.71875 36.078125 36.5 40.90625 
Q 32.28125 45.75 26.3125 45.75 
Q 20.453125 45.75 16.34375 40.984375 
Q 12.25 36.234375 12.25 26.859375 
z
" id="ArialMT-103"/>
      <path d="M 8.890625 0 
L 8.890625 10.015625 
L 18.890625 10.015625 
L 18.890625 0 
Q 18.890625 -5.515625 16.9375 -8.90625 
Q 14.984375 -12.3125 10.75 -14.15625 
L 8.296875 -10.40625 
Q 11.078125 -9.1875 12.390625 -6.8125 
Q 13.71875 -4.4375 13.875 0 
z
" id="ArialMT-44"/>
      <path d="M 4.5 23 
L 13.421875 23.78125 
Q 14.0625 18.40625 16.375 14.96875 
Q 18.703125 11.53125 23.578125 9.40625 
Q 28.46875 7.28125 34.578125 7.28125 
Q 39.984375 7.28125 44.140625 8.890625 
Q 48.296875 10.5 50.3125 13.296875 
Q 52.34375 16.109375 52.34375 19.4375 
Q 52.34375 22.796875 50.390625 25.3125 
Q 48.4375 27.828125 43.953125 29.546875 
Q 41.0625 30.671875 31.203125 33.03125 
Q 21.34375 35.40625 17.390625 37.5 
Q 12.25 40.1875 9.734375 44.15625 
Q 7.234375 48.140625 7.234375 53.078125 
Q 7.234375 58.5 10.296875 63.203125 
Q 13.375 67.921875 19.28125 70.359375 
Q 25.203125 72.796875 32.421875 72.796875 
Q 40.375 72.796875 46.453125 70.234375 
Q 52.546875 67.671875 55.8125 62.6875 
Q 59.078125 57.71875 59.328125 51.421875 
L 50.25 50.734375 
Q 49.515625 57.515625 45.28125 60.984375 
Q 41.0625 64.453125 32.8125 64.453125 
Q 24.21875 64.453125 20.28125 61.296875 
Q 16.359375 58.15625 16.359375 53.71875 
Q 16.359375 49.859375 19.140625 47.359375 
Q 21.875 44.875 33.421875 42.265625 
Q 44.96875 39.65625 49.265625 37.703125 
Q 55.515625 34.8125 58.484375 30.390625 
Q 61.46875 25.984375 61.46875 20.21875 
Q 61.46875 14.5 58.203125 9.4375 
Q 54.9375 4.390625 48.796875 1.578125 
Q 42.671875 -1.21875 35.015625 -1.21875 
Q 25.296875 -1.21875 18.71875 1.609375 
Q 12.15625 4.4375 8.421875 10.125 
Q 4.6875 15.828125 4.5 23 
z
" id="ArialMT-83"/>
      <path d="M 6.78125 -19.875 
L 6.78125 71.578125 
L 26.171875 71.578125 
L 26.171875 64.3125 
L 15.578125 64.3125 
L 15.578125 -12.59375 
L 26.171875 -12.59375 
L 26.171875 -19.875 
z
" id="ArialMT-91"/>
      <path d="M 21.296875 -19.875 
L 1.90625 -19.875 
L 1.90625 -12.59375 
L 12.5 -12.59375 
L 12.5 64.3125 
L 1.90625 64.3125 
L 1.90625 71.578125 
L 21.296875 71.578125 
z
" id="ArialMT-93"/>
     </defs>
     <g transform="translate(95.375714 233.787969)scale(0.18 -0.18)">
      <use transform="translate(0 0.203125)" xlink:href="#ArialMT-71"/>
      <use transform="translate(77.783203 0.203125)" xlink:href="#ArialMT-97"/>
      <use transform="translate(133.398438 0.203125)" xlink:href="#ArialMT-116"/>
      <use transform="translate(161.181641 0.203125)" xlink:href="#ArialMT-101"/>
      <use transform="translate(216.796875 0.203125)" xlink:href="#ArialMT-32"/>
      <use transform="translate(244.580078 0.203125)" xlink:href="#ArialMT-86"/>
      <use transform="translate(311.279297 0.203125)" xlink:href="#ArialMT-111"/>
      <use transform="translate(366.894531 0.203125)" xlink:href="#ArialMT-108"/>
      <use transform="translate(389.111328 0.203125)" xlink:href="#ArialMT-116"/>
      <use transform="translate(416.894531 0.203125)" xlink:href="#ArialMT-97"/>
      <use transform="translate(472.509766 0.203125)" xlink:href="#ArialMT-103"/>
      <use transform="translate(528.125 0.203125)" xlink:href="#ArialMT-101"/>
      <use transform="translate(583.740234 0.203125)" xlink:href="#ArialMT-44"/>
      <use transform="translate(611.523438 0.203125)" xlink:href="#ArialMT-32"/>
      <use transform="translate(639.306641 0.203125)" xlink:href="#ArialMT-32"/>
      <use transform="translate(667.089844 0.203125)" xlink:href="#ArialMT-86"/>
      <use transform="translate(735.531406 -29.665625)scale(0.7)" xlink:href="#ArialMT-71"/>
      <use transform="translate(789.979648 -29.665625)scale(0.7)" xlink:href="#ArialMT-83"/>
      <use transform="translate(841.647227 0.203125)" xlink:href="#ArialMT-32"/>
      <use transform="translate(869.43043 0.203125)" xlink:href="#ArialMT-32"/>
      <use transform="translate(897.213633 0.203125)" xlink:href="#ArialMT-91"/>
      <use transform="translate(924.996836 0.203125)" xlink:href="#ArialMT-86"/>
      <use transform="translate(991.696055 0.203125)" xlink:href="#ArialMT-93"/>
     </g>
    </g>
   </g>
   <g id="matplotlib.axis_2">
    <g id="ytick_1">
     <g id="line2d_4">
      <defs>
       <path d="M 0 0 
L -3.5 0 
" id="me5c778137a" style="stroke:#000000;stroke-width:0.8;"/>
      </defs>
      <g>
       <use style="stroke:#000000;stroke-width:0.8;" x="80.89" xlink:href="#me5c778137a" y="49.929509"/>
      </g>
     </g>
     <g id="text_5">
      <!-- $\mathdefault{10^{2}}$ -->
      <defs>
       <path d="M 37.25 0 
L 28.46875 0 
L 28.46875 56 
Q 25.296875 52.984375 20.140625 49.953125 
Q 14.984375 46.921875 10.890625 45.40625 
L 10.890625 53.90625 
Q 18.265625 57.375 23.78125 62.296875 
Q 29.296875 67.234375 31.59375 71.875 
L 37.25 71.875 
z
" id="ArialMT-49"/>
      </defs>
      <g transform="translate(50.34 57.663884)scale(0.15 -0.15)">
       <use transform="translate(0 0.99375)" xlink:href="#ArialMT-49"/>
       <use transform="translate(55.615234 0.99375)" xlink:href="#ArialMT-48"/>
       <use transform="translate(112.972813 70.6875)scale(0.7)" xlink:href="#ArialMT-50"/>
      </g>
     </g>
    </g>
    <g id="ytick_2">
     <g id="line2d_5">
      <defs>
       <path d="M 0 0 
L -2 0 
" id="m0263033408" style="stroke:#000000;stroke-width:0.6;"/>
      </defs>
      <g>
       <use style="stroke:#000000;stroke-width:0.6;" x="80.89" xlink:href="#m0263033408" y="163.23595"/>
      </g>
     </g>
     <g id="text_6">
      <!-- $\mathdefault{3\times10^{1}}$ -->
      <defs>
       <path d="M 4.203125 18.890625 
L 12.984375 20.0625 
Q 14.5 12.59375 18.140625 9.296875 
Q 21.78125 6 27 6 
Q 33.203125 6 37.46875 10.296875 
Q 41.75 14.59375 41.75 20.953125 
Q 41.75 27 37.796875 30.921875 
Q 33.84375 34.859375 27.734375 34.859375 
Q 25.25 34.859375 21.53125 33.890625 
L 22.515625 41.609375 
Q 23.390625 41.5 23.921875 41.5 
Q 29.546875 41.5 34.03125 44.421875 
Q 38.53125 47.359375 38.53125 53.46875 
Q 38.53125 58.296875 35.25 61.46875 
Q 31.984375 64.65625 26.8125 64.65625 
Q 21.6875 64.65625 18.265625 61.421875 
Q 14.84375 58.203125 13.875 51.765625 
L 5.078125 53.328125 
Q 6.6875 62.15625 12.390625 67.015625 
Q 18.109375 71.875 26.609375 71.875 
Q 32.46875 71.875 37.390625 69.359375 
Q 42.328125 66.84375 44.9375 62.5 
Q 47.5625 58.15625 47.5625 53.265625 
Q 47.5625 48.640625 45.0625 44.828125 
Q 42.578125 41.015625 37.703125 38.765625 
Q 44.046875 37.3125 47.5625 32.6875 
Q 51.078125 28.078125 51.078125 21.140625 
Q 51.078125 11.765625 44.234375 5.25 
Q 37.40625 -1.265625 26.953125 -1.265625 
Q 17.53125 -1.265625 11.296875 4.34375 
Q 5.078125 9.96875 4.203125 18.890625 
z
" id="ArialMT-51"/>
       <path d="M 7.859375 19.96875 
L 23.25 35.359375 
L 7.90625 50.6875 
L 13.875 56.640625 
L 29.203125 41.3125 
L 44.484375 56.59375 
L 50.34375 50.6875 
L 35.109375 35.40625 
L 50.4375 20.0625 
L 44.484375 14.109375 
L 29.15625 29.4375 
L 13.765625 14.0625 
z
" id="ArialMT-215"/>
      </defs>
      <g transform="translate(29.74 170.970325)scale(0.15 -0.15)">
       <use transform="translate(0 0.99375)" xlink:href="#ArialMT-51"/>
       <use transform="translate(72.275391 0.99375)" xlink:href="#ArialMT-215"/>
       <use transform="translate(147.333984 0.99375)" xlink:href="#ArialMT-49"/>
       <use transform="translate(202.949219 0.99375)" xlink:href="#ArialMT-48"/>
       <use transform="translate(260.306797 70.6875)scale(0.7)" xlink:href="#ArialMT-49"/>
      </g>
     </g>
    </g>
    <g id="ytick_3">
     <g id="line2d_6">
      <g>
       <use style="stroke:#000000;stroke-width:0.6;" x="80.89" xlink:href="#m0263033408" y="136.162056"/>
      </g>
     </g>
     <g id="text_7">
      <!-- $\mathdefault{4\times10^{1}}$ -->
      <defs>
       <path d="M 32.328125 0 
L 32.328125 17.140625 
L 1.265625 17.140625 
L 1.265625 25.203125 
L 33.9375 71.578125 
L 41.109375 71.578125 
L 41.109375 25.203125 
L 50.78125 25.203125 
L 50.78125 17.140625 
L 41.109375 17.140625 
L 41.109375 0 
z
M 32.328125 25.203125 
L 32.328125 57.46875 
L 9.90625 25.203125 
z
" id="ArialMT-52"/>
      </defs>
      <g transform="translate(29.74 143.896431)scale(0.15 -0.15)">
       <use transform="translate(0 0.99375)" xlink:href="#ArialMT-52"/>
       <use transform="translate(72.275391 0.99375)" xlink:href="#ArialMT-215"/>
       <use transform="translate(147.333984 0.99375)" xlink:href="#ArialMT-49"/>
       <use transform="translate(202.949219 0.99375)" xlink:href="#ArialMT-48"/>
       <use transform="translate(260.306797 70.6875)scale(0.7)" xlink:href="#ArialMT-49"/>
      </g>
     </g>
    </g>
    <g id="ytick_4">
     <g id="line2d_7">
      <g>
       <use style="stroke:#000000;stroke-width:0.6;" x="80.89" xlink:href="#m0263033408" y="115.161912"/>
      </g>
     </g>
    </g>
    <g id="ytick_5">
     <g id="line2d_8">
      <g>
       <use style="stroke:#000000;stroke-width:0.6;" x="80.89" xlink:href="#m0263033408" y="98.003546"/>
      </g>
     </g>
     <g id="text_8">
      <!-- $\mathdefault{6\times10^{1}}$ -->
      <defs>
       <path d="M 49.75 54.046875 
L 41.015625 53.375 
Q 39.84375 58.546875 37.703125 60.890625 
Q 34.125 64.65625 28.90625 64.65625 
Q 24.703125 64.65625 21.53125 62.3125 
Q 17.390625 59.28125 14.984375 53.46875 
Q 12.59375 47.65625 12.5 36.921875 
Q 15.671875 41.75 20.265625 44.09375 
Q 24.859375 46.4375 29.890625 46.4375 
Q 38.671875 46.4375 44.84375 39.96875 
Q 51.03125 33.5 51.03125 23.25 
Q 51.03125 16.5 48.125 10.71875 
Q 45.21875 4.9375 40.140625 1.859375 
Q 35.0625 -1.21875 28.609375 -1.21875 
Q 17.625 -1.21875 10.6875 6.859375 
Q 3.765625 14.9375 3.765625 33.5 
Q 3.765625 54.25 11.421875 63.671875 
Q 18.109375 71.875 29.4375 71.875 
Q 37.890625 71.875 43.28125 67.140625 
Q 48.6875 62.40625 49.75 54.046875 
z
M 13.875 23.1875 
Q 13.875 18.65625 15.796875 14.5 
Q 17.71875 10.359375 21.1875 8.171875 
Q 24.65625 6 28.46875 6 
Q 34.03125 6 38.03125 10.484375 
Q 42.046875 14.984375 42.046875 22.703125 
Q 42.046875 30.125 38.078125 34.390625 
Q 34.125 38.671875 28.125 38.671875 
Q 22.171875 38.671875 18.015625 34.390625 
Q 13.875 30.125 13.875 23.1875 
z
" id="ArialMT-54"/>
      </defs>
      <g transform="translate(29.74 105.737921)scale(0.15 -0.15)">
       <use transform="translate(0 0.99375)" xlink:href="#ArialMT-54"/>
       <use transform="translate(72.275391 0.99375)" xlink:href="#ArialMT-215"/>
       <use transform="translate(147.333984 0.99375)" xlink:href="#ArialMT-49"/>
       <use transform="translate(202.949219 0.99375)" xlink:href="#ArialMT-48"/>
       <use transform="translate(260.306797 70.6875)scale(0.7)" xlink:href="#ArialMT-49"/>
      </g>
     </g>
    </g>
    <g id="ytick_6">
     <g id="line2d_9">
      <g>
       <use style="stroke:#000000;stroke-width:0.6;" x="80.89" xlink:href="#m0263033408" y="83.496354"/>
      </g>
     </g>
    </g>
    <g id="ytick_7">
     <g id="line2d_10">
      <g>
       <use style="stroke:#000000;stroke-width:0.6;" x="80.89" xlink:href="#m0263033408" y="70.929652"/>
      </g>
     </g>
    </g>
    <g id="ytick_8">
     <g id="line2d_11">
      <g>
       <use style="stroke:#000000;stroke-width:0.6;" x="80.89" xlink:href="#m0263033408" y="59.845036"/>
      </g>
     </g>
    </g>
    <g id="text_9">
     <!-- Drain Current,  $I_D$  [$\mu A$/$\mu m$] -->
     <defs>
      <path d="M 7.71875 0 
L 7.71875 71.578125 
L 32.375 71.578125 
Q 40.71875 71.578125 45.125 70.5625 
Q 51.265625 69.140625 55.609375 65.4375 
Q 61.28125 60.640625 64.078125 53.1875 
Q 66.890625 45.75 66.890625 36.1875 
Q 66.890625 28.03125 64.984375 21.734375 
Q 63.09375 15.4375 60.109375 11.296875 
Q 57.125 7.171875 53.578125 4.796875 
Q 50.046875 2.4375 45.046875 1.21875 
Q 40.046875 0 33.546875 0 
z
M 17.1875 8.453125 
L 32.46875 8.453125 
Q 39.546875 8.453125 43.578125 9.765625 
Q 47.609375 11.078125 50 13.484375 
Q 53.375 16.84375 55.25 22.53125 
Q 57.125 28.21875 57.125 36.328125 
Q 57.125 47.5625 53.4375 53.59375 
Q 49.75 59.625 44.484375 61.671875 
Q 40.671875 63.140625 32.234375 63.140625 
L 17.1875 63.140625 
z
" id="ArialMT-68"/>
      <path d="M 6.5 0 
L 6.5 51.859375 
L 14.40625 51.859375 
L 14.40625 44 
Q 17.4375 49.515625 20 51.265625 
Q 22.5625 53.03125 25.640625 53.03125 
Q 30.078125 53.03125 34.671875 50.203125 
L 31.640625 42.046875 
Q 28.421875 43.953125 25.203125 43.953125 
Q 22.3125 43.953125 20.015625 42.21875 
Q 17.71875 40.484375 16.75 37.40625 
Q 15.28125 32.71875 15.28125 27.15625 
L 15.28125 0 
z
" id="ArialMT-114"/>
      <path d="M 6.640625 61.46875 
L 6.640625 71.578125 
L 15.4375 71.578125 
L 15.4375 61.46875 
z
M 6.640625 0 
L 6.640625 51.859375 
L 15.4375 51.859375 
L 15.4375 0 
z
" id="ArialMT-105"/>
      <path d="M 6.59375 0 
L 6.59375 51.859375 
L 14.5 51.859375 
L 14.5 44.484375 
Q 20.21875 53.03125 31 53.03125 
Q 35.6875 53.03125 39.625 51.34375 
Q 43.5625 49.65625 45.515625 46.921875 
Q 47.46875 44.1875 48.25 40.4375 
Q 48.734375 37.984375 48.734375 31.890625 
L 48.734375 0 
L 39.9375 0 
L 39.9375 31.546875 
Q 39.9375 36.921875 38.90625 39.578125 
Q 37.890625 42.234375 35.28125 43.8125 
Q 32.671875 45.40625 29.15625 45.40625 
Q 23.53125 45.40625 19.453125 41.84375 
Q 15.375 38.28125 15.375 28.328125 
L 15.375 0 
z
" id="ArialMT-110"/>
      <path d="M 58.796875 25.09375 
L 68.265625 22.703125 
Q 65.28125 11.03125 57.546875 4.90625 
Q 49.8125 -1.21875 38.625 -1.21875 
Q 27.046875 -1.21875 19.796875 3.484375 
Q 12.546875 8.203125 8.765625 17.140625 
Q 4.984375 26.078125 4.984375 36.328125 
Q 4.984375 47.515625 9.25 55.828125 
Q 13.53125 64.15625 21.40625 68.46875 
Q 29.296875 72.796875 38.765625 72.796875 
Q 49.515625 72.796875 56.828125 67.328125 
Q 64.15625 61.859375 67.046875 51.953125 
L 57.71875 49.75 
Q 55.21875 57.5625 50.484375 61.125 
Q 45.75 64.703125 38.578125 64.703125 
Q 30.328125 64.703125 24.78125 60.734375 
Q 19.234375 56.78125 16.984375 50.109375 
Q 14.75 43.453125 14.75 36.375 
Q 14.75 27.25 17.40625 20.4375 
Q 20.0625 13.625 25.671875 10.25 
Q 31.296875 6.890625 37.84375 6.890625 
Q 45.796875 6.890625 51.3125 11.46875 
Q 56.84375 16.0625 58.796875 25.09375 
z
" id="ArialMT-67"/>
      <path d="M 40.578125 0 
L 40.578125 7.625 
Q 34.515625 -1.171875 24.125 -1.171875 
Q 19.53125 -1.171875 15.546875 0.578125 
Q 11.578125 2.34375 9.640625 5 
Q 7.71875 7.671875 6.9375 11.53125 
Q 6.390625 14.109375 6.390625 19.734375 
L 6.390625 51.859375 
L 15.1875 51.859375 
L 15.1875 23.09375 
Q 15.1875 16.21875 15.71875 13.8125 
Q 16.546875 10.359375 19.234375 8.375 
Q 21.921875 6.390625 25.875 6.390625 
Q 29.828125 6.390625 33.296875 8.421875 
Q 36.765625 10.453125 38.203125 13.9375 
Q 39.65625 17.4375 39.65625 24.078125 
L 39.65625 51.859375 
L 48.4375 51.859375 
L 48.4375 0 
z
" id="ArialMT-117"/>
      <path d="M 9.328125 0 
L 9.328125 71.578125 
L 18.796875 71.578125 
L 18.796875 0 
z
" id="ArialMT-73"/>
      <path d="M 49.703125 51.859375 
L 49.703125 0 
L 41.84375 0 
L 41.84375 6.15625 
Q 39.3125 2.25 36.8125 0.78125 
Q 33.40625 -1.21875 28.859375 -1.21875 
Q 24.8125 -1.21875 21.6875 0.390625 
Q 19.34375 1.609375 16.5 5.21875 
L 16.5 -19.875 
L 7.8125 -19.875 
L 7.8125 51.859375 
L 16.5 51.859375 
L 16.5 29.890625 
Q 16.5 17.921875 17.765625 14.375 
Q 19.046875 10.84375 21.890625 8.78125 
Q 24.75 6.734375 28.46875 6.734375 
Q 32.375 6.734375 35.453125 8.875 
Q 38.53125 11.03125 39.796875 14.421875 
Q 41.0625 17.828125 41.0625 29.734375 
L 41.0625 51.859375 
z
" id="ArialMT-956"/>
      <path d="M -0.140625 0 
L 27.34375 71.578125 
L 37.546875 71.578125 
L 66.84375 0 
L 56.0625 0 
L 47.703125 21.6875 
L 17.78125 21.6875 
L 9.90625 0 
z
M 20.515625 29.390625 
L 44.78125 29.390625 
L 37.3125 49.21875 
Q 33.890625 58.25 32.234375 64.0625 
Q 30.859375 57.171875 28.375 50.390625 
z
" id="ArialMT-65"/>
      <path d="M 0 -1.21875 
L 20.75 72.796875 
L 27.78125 72.796875 
L 7.078125 -1.21875 
z
" id="ArialMT-47"/>
      <path d="M 6.59375 0 
L 6.59375 51.859375 
L 14.453125 51.859375 
L 14.453125 44.578125 
Q 16.890625 48.390625 20.9375 50.703125 
Q 25 53.03125 30.171875 53.03125 
Q 35.9375 53.03125 39.625 50.640625 
Q 43.3125 48.25 44.828125 43.953125 
Q 50.984375 53.03125 60.84375 53.03125 
Q 68.5625 53.03125 72.703125 48.75 
Q 76.859375 44.484375 76.859375 35.59375 
L 76.859375 0 
L 68.109375 0 
L 68.109375 32.671875 
Q 68.109375 37.9375 67.25 40.25 
Q 66.40625 42.578125 64.15625 43.984375 
Q 61.921875 45.40625 58.890625 45.40625 
Q 53.421875 45.40625 49.796875 41.765625 
Q 46.1875 38.140625 46.1875 30.125 
L 46.1875 0 
L 37.40625 0 
L 37.40625 33.6875 
Q 37.40625 39.546875 35.25 42.46875 
Q 33.109375 45.40625 28.21875 45.40625 
Q 24.515625 45.40625 21.359375 43.453125 
Q 18.21875 41.5 16.796875 37.734375 
Q 15.375 33.984375 15.375 26.90625 
L 15.375 0 
z
" id="ArialMT-109"/>
     </defs>
     <g transform="translate(20.34 218.34)rotate(-90)scale(0.18 -0.18)">
      <use transform="translate(0 0.203125)" xlink:href="#ArialMT-68"/>
      <use transform="translate(72.216797 0.203125)" xlink:href="#ArialMT-114"/>
      <use transform="translate(105.517578 0.203125)" xlink:href="#ArialMT-97"/>
      <use transform="translate(161.132812 0.203125)" xlink:href="#ArialMT-105"/>
      <use transform="translate(183.349609 0.203125)" xlink:href="#ArialMT-110"/>
      <use transform="translate(238.964844 0.203125)" xlink:href="#ArialMT-32"/>
      <use transform="translate(266.748047 0.203125)" xlink:href="#ArialMT-67"/>
      <use transform="translate(338.964844 0.203125)" xlink:href="#ArialMT-117"/>
      <use transform="translate(394.580078 0.203125)" xlink:href="#ArialMT-114"/>
      <use transform="translate(427.880859 0.203125)" xlink:href="#ArialMT-114"/>
      <use transform="translate(461.181641 0.203125)" xlink:href="#ArialMT-101"/>
      <use transform="translate(516.796875 0.203125)" xlink:href="#ArialMT-110"/>
      <use transform="translate(572.412109 0.203125)" xlink:href="#ArialMT-116"/>
      <use transform="translate(600.195312 0.203125)" xlink:href="#ArialMT-44"/>
      <use transform="translate(627.978516 0.203125)" xlink:href="#ArialMT-32"/>
      <use transform="translate(655.761719 0.203125)" xlink:href="#ArialMT-32"/>
      <use transform="translate(683.544922 0.203125)" xlink:href="#ArialMT-73"/>
      <use transform="translate(713.070469 -29.665625)scale(0.7)" xlink:href="#ArialMT-68"/>
      <use transform="translate(768.600352 0.203125)" xlink:href="#ArialMT-32"/>
      <use transform="translate(796.383555 0.203125)" xlink:href="#ArialMT-32"/>
      <use transform="translate(824.166758 0.203125)" xlink:href="#ArialMT-91"/>
      <use transform="translate(851.949961 0.203125)" xlink:href="#ArialMT-956"/>
      <use transform="translate(909.567148 0.203125)" xlink:href="#ArialMT-65"/>
      <use transform="translate(976.266367 0.203125)" xlink:href="#ArialMT-47"/>
      <use transform="translate(1004.04957 0.203125)" xlink:href="#ArialMT-956"/>
      <use transform="translate(1061.666758 0.203125)" xlink:href="#ArialMT-109"/>
      <use transform="translate(1144.967539 0.203125)" xlink:href="#ArialMT-93"/>
     </g>
    </g>
   </g>
   <g id="line2d_12">
    <path clip-path="url(#pbc3a68d4de)" d="M 90.552338 184.898372 
L 95.384713 184.6642 
L 100.214056 183.864594 
L 105.046099 184.058289 
L 109.876576 183.652058 
L 114.70668 183.268665 
L 119.538824 183.274659 
L 124.368947 183.805438 
L 129.200133 184.125284 
L 134.031043 183.442107 
L 138.862565 182.322964 
L 143.693544 180.824119 
L 148.525809 179.385137 
L 153.355023 177.871741 
L 158.187345 175.975732 
L 163.020354 172.830221 
L 167.850437 169.937721 
L 172.683073 165.921938 
L 177.513593 161.670847 
L 182.345117 155.915941 
L 187.176676 150.630555 
L 192.007941 144.260484 
L 196.838386 138.295173 
L 201.670806 131.499295 
L 206.50227 124.363991 
L 211.334355 117.436764 
L 216.165929 111.535314 
L 220.996956 104.778825 
L 225.828002 98.473535 
L 230.658912 92.111524 
L 235.49178 85.932591 
L 240.321768 80.0553 
L 245.15277 74.615615 
L 249.984058 69.212635 
L 254.814346 63.86008 
L 259.6465 58.823957 
L 264.475083 54.327565 
L 269.305541 49.545599 
L 274.13752 45.098924 
L 278.966753 41.133721 
L 283.799082 37.17 
L 283.799091 37.328817 
L 278.96678 42.221138 
L 274.137529 47.165635 
L 269.305532 52.25286 
L 264.475133 58.198763 
L 259.6465 63.933164 
L 254.814401 69.785506 
L 249.984081 75.717158 
L 245.152835 82.127313 
L 240.32181 88.714575 
L 235.491803 95.754258 
L 230.658944 102.537722 
L 225.828002 109.477757 
L 220.996977 117.096984 
L 216.165945 124.363055 
L 211.33436 132.061663 
L 206.502268 138.896185 
L 201.670826 145.531534 
L 196.8384 152.194217 
L 192.007951 158.358009 
L 187.174418 164.093011 
L 182.345156 169.225744 
L 177.513612 172.789235 
L 172.683141 176.553668 
L 167.850467 178.757876 
L 163.020315 180.46177 
L 158.187403 182.309287 
L 153.355042 183.125967 
L 148.525841 184.159522 
L 143.693586 185.249426 
L 138.862588 185.615885 
L 134.031061 186.404908 
L 129.20017 187.35615 
L 124.368993 188.016251 
L 119.538815 188.37 
L 114.706661 187.757916 
L 109.876558 187.870706 
L 105.046072 186.622312 
L 100.214075 187.013817 
L 95.384704 186.686231 
L 90.552365 186.489637 
" style="fill:none;stroke:#023eff;stroke-linecap:square;stroke-width:2;"/>
   </g>
   <g id="patch_3">
    <path d="M 80.89 195.93 
L 80.89 29.61 
" style="fill:none;stroke:#000000;stroke-linecap:square;stroke-linejoin:miter;stroke-width:0.8;"/>
   </g>
   <g id="patch_4">
    <path d="M 293.461429 195.93 
L 293.461429 29.61 
" style="fill:none;stroke:#000000;stroke-linecap:square;stroke-linejoin:miter;stroke-width:0.8;"/>
   </g>
   <g id="patch_5">
    <path d="M 80.89 195.93 
L 293.461429 195.93 
" style="fill:none;stroke:#000000;stroke-linecap:square;stroke-linejoin:miter;stroke-width:0.8;"/>
   </g>
   <g id="patch_6">
    <path d="M 80.89 29.61 
L 293.461429 29.61 
" style="fill:none;stroke:#000000;stroke-linecap:square;stroke-linejoin:miter;stroke-width:0.8;"/>
   </g>
   <g id="text_10">
    <!-- $V_{DS}$ = 1.0 V -->
    <defs>
     <path d="M 52.828125 42.09375 
L 5.5625 42.09375 
L 5.5625 50.296875 
L 52.828125 50.296875 
z
M 52.828125 20.359375 
L 5.5625 20.359375 
L 5.5625 28.5625 
L 52.828125 28.5625 
z
" id="ArialMT-61"/>
     <path d="M 9.078125 0 
L 9.078125 10.015625 
L 19.09375 10.015625 
L 19.09375 0 
z
" id="ArialMT-46"/>
    </defs>
    <g transform="translate(91.518571 54.558)scale(0.18 -0.18)">
     <use transform="translate(0 0.125)" xlink:href="#ArialMT-86"/>
     <use transform="translate(68.441563 -29.74375)scale(0.7)" xlink:href="#ArialMT-68"/>
     <use transform="translate(118.99332 -29.74375)scale(0.7)" xlink:href="#ArialMT-83"/>
     <use transform="translate(170.660898 0.125)" xlink:href="#ArialMT-32"/>
     <use transform="translate(198.444102 0.125)" xlink:href="#ArialMT-61"/>
     <use transform="translate(256.842539 0.125)" xlink:href="#ArialMT-32"/>
     <use transform="translate(284.625742 0.125)" xlink:href="#ArialMT-49"/>
     <use transform="translate(340.240977 0.125)" xlink:href="#ArialMT-46"/>
     <use transform="translate(368.02418 0.125)" xlink:href="#ArialMT-48"/>
     <use transform="translate(423.639414 0.125)" xlink:href="#ArialMT-32"/>
     <use transform="translate(451.422617 0.125)" xlink:href="#ArialMT-86"/>
    </g>
   </g>
   <g id="legend_1">
    <g id="line2d_13">
     <path d="M 183.345324 180.205043 
L 213.333324 180.205043 
" style="fill:none;stroke:#023eff;stroke-linecap:square;stroke-width:2;"/>
    </g>
    <g id="line2d_14"/>
    <g id="text_11">
     <!-- 100 nm -->
     <g transform="translate(225.328524 185.452943)scale(0.14994 -0.14994)">
      <use xlink:href="#ArialMT-49"/>
      <use x="55.615234" xlink:href="#ArialMT-48"/>
      <use x="111.230469" xlink:href="#ArialMT-48"/>
      <use x="166.845703" xlink:href="#ArialMT-32"/>
      <use x="194.628906" xlink:href="#ArialMT-110"/>
      <use x="250.244141" xlink:href="#ArialMT-109"/>
     </g>
    </g>
   </g>
  </g>
  <g id="axes_2">
   <g id="patch_7">
    <path d="M 421.004286 195.93 
L 633.575714 195.93 
L 633.575714 29.61 
L 421.004286 29.61 
z
" style="fill:none;"/>
   </g>
   <g id="matplotlib.axis_3">
    <g id="xtick_4">
     <g id="line2d_15">
      <g>
       <use style="stroke:#000000;stroke-width:0.8;" x="430.666623" xlink:href="#mbc21e8e84c" y="195.93"/>
      </g>
     </g>
     <g id="text_12">
      <!-- −5 -->
      <defs>
       <path d="M 4.15625 18.75 
L 13.375 19.53125 
Q 14.40625 12.796875 18.140625 9.390625 
Q 21.875 6 27.15625 6 
Q 33.5 6 37.890625 10.78125 
Q 42.28125 15.578125 42.28125 23.484375 
Q 42.28125 31 38.0625 35.34375 
Q 33.84375 39.703125 27 39.703125 
Q 22.75 39.703125 19.328125 37.765625 
Q 15.921875 35.84375 13.96875 32.765625 
L 5.71875 33.84375 
L 12.640625 70.609375 
L 48.25 70.609375 
L 48.25 62.203125 
L 19.671875 62.203125 
L 15.828125 42.96875 
Q 22.265625 47.46875 29.34375 47.46875 
Q 38.71875 47.46875 45.15625 40.96875 
Q 51.609375 34.46875 51.609375 24.265625 
Q 51.609375 14.546875 45.953125 7.46875 
Q 39.0625 -1.21875 27.15625 -1.21875 
Q 17.390625 -1.21875 11.203125 4.25 
Q 5.03125 9.71875 4.15625 18.75 
z
" id="ArialMT-53"/>
      </defs>
      <g transform="translate(422.115452 213.666719)scale(0.15 -0.15)">
       <use xlink:href="#ArialMT-8722"/>
       <use x="58.398438" xlink:href="#ArialMT-53"/>
      </g>
     </g>
    </g>
    <g id="xtick_5">
     <g id="line2d_16">
      <g>
       <use style="stroke:#000000;stroke-width:0.8;" x="527.29" xlink:href="#mbc21e8e84c" y="195.93"/>
      </g>
     </g>
     <g id="text_13">
      <!-- 0 -->
      <g transform="translate(523.119297 213.666719)scale(0.15 -0.15)">
       <use xlink:href="#ArialMT-48"/>
      </g>
     </g>
    </g>
    <g id="xtick_6">
     <g id="line2d_17">
      <g>
       <use style="stroke:#000000;stroke-width:0.8;" x="623.913377" xlink:href="#mbc21e8e84c" y="195.93"/>
      </g>
     </g>
     <g id="text_14">
      <!-- 5 -->
      <g transform="translate(619.742673 213.666719)scale(0.15 -0.15)">
       <use xlink:href="#ArialMT-53"/>
      </g>
     </g>
    </g>
    <g id="text_15">
     <!-- Drain Voltage,  $V_{DS}$  [V] -->
     <g transform="translate(433.87 233.607969)scale(0.18 -0.18)">
      <use transform="translate(0 0.421875)" xlink:href="#ArialMT-68"/>
      <use transform="translate(72.216797 0.421875)" xlink:href="#ArialMT-114"/>
      <use transform="translate(105.517578 0.421875)" xlink:href="#ArialMT-97"/>
      <use transform="translate(161.132812 0.421875)" xlink:href="#ArialMT-105"/>
      <use transform="translate(183.349609 0.421875)" xlink:href="#ArialMT-110"/>
      <use transform="translate(238.964844 0.421875)" xlink:href="#ArialMT-32"/>
      <use transform="translate(266.748047 0.421875)" xlink:href="#ArialMT-86"/>
      <use transform="translate(333.447266 0.421875)" xlink:href="#ArialMT-111"/>
      <use transform="translate(389.0625 0.421875)" xlink:href="#ArialMT-108"/>
      <use transform="translate(411.279297 0.421875)" xlink:href="#ArialMT-116"/>
      <use transform="translate(439.0625 0.421875)" xlink:href="#ArialMT-97"/>
      <use transform="translate(494.677734 0.421875)" xlink:href="#ArialMT-103"/>
      <use transform="translate(550.292969 0.421875)" xlink:href="#ArialMT-101"/>
      <use transform="translate(605.908203 0.421875)" xlink:href="#ArialMT-44"/>
      <use transform="translate(633.691406 0.421875)" xlink:href="#ArialMT-32"/>
      <use transform="translate(661.474609 0.421875)" xlink:href="#ArialMT-32"/>
      <use transform="translate(689.257812 0.421875)" xlink:href="#ArialMT-86"/>
      <use transform="translate(757.699375 -29.446875)scale(0.7)" xlink:href="#ArialMT-68"/>
      <use transform="translate(808.251133 -29.446875)scale(0.7)" xlink:href="#ArialMT-83"/>
      <use transform="translate(859.918711 0.421875)" xlink:href="#ArialMT-32"/>
      <use transform="translate(887.701914 0.421875)" xlink:href="#ArialMT-32"/>
      <use transform="translate(915.485117 0.421875)" xlink:href="#ArialMT-91"/>
      <use transform="translate(943.26832 0.421875)" xlink:href="#ArialMT-86"/>
      <use transform="translate(1009.967539 0.421875)" xlink:href="#ArialMT-93"/>
     </g>
    </g>
   </g>
   <g id="matplotlib.axis_4">
    <g id="ytick_9">
     <g id="line2d_18">
      <g>
       <use style="stroke:#000000;stroke-width:0.8;" x="421.004286" xlink:href="#me5c778137a" y="185.167687"/>
      </g>
     </g>
     <g id="text_16">
      <!-- −800 -->
      <defs>
       <path d="M 17.671875 38.8125 
Q 12.203125 40.828125 9.5625 44.53125 
Q 6.9375 48.25 6.9375 53.421875 
Q 6.9375 61.234375 12.546875 66.546875 
Q 18.171875 71.875 27.484375 71.875 
Q 36.859375 71.875 42.578125 66.421875 
Q 48.296875 60.984375 48.296875 53.171875 
Q 48.296875 48.1875 45.671875 44.5 
Q 43.0625 40.828125 37.75 38.8125 
Q 44.34375 36.671875 47.78125 31.875 
Q 51.21875 27.09375 51.21875 20.453125 
Q 51.21875 11.28125 44.71875 5.03125 
Q 38.234375 -1.21875 27.640625 -1.21875 
Q 17.046875 -1.21875 10.546875 5.046875 
Q 4.046875 11.328125 4.046875 20.703125 
Q 4.046875 27.6875 7.59375 32.390625 
Q 11.140625 37.109375 17.671875 38.8125 
z
M 15.921875 53.71875 
Q 15.921875 48.640625 19.1875 45.40625 
Q 22.46875 42.1875 27.6875 42.1875 
Q 32.765625 42.1875 36.015625 45.375 
Q 39.265625 48.578125 39.265625 53.21875 
Q 39.265625 58.0625 35.90625 61.359375 
Q 32.5625 64.65625 27.59375 64.65625 
Q 22.5625 64.65625 19.234375 61.421875 
Q 15.921875 58.203125 15.921875 53.71875 
z
M 13.09375 20.65625 
Q 13.09375 16.890625 14.875 13.375 
Q 16.65625 9.859375 20.171875 7.921875 
Q 23.6875 6 27.734375 6 
Q 34.03125 6 38.125 10.046875 
Q 42.234375 14.109375 42.234375 20.359375 
Q 42.234375 26.703125 38.015625 30.859375 
Q 33.796875 35.015625 27.4375 35.015625 
Q 21.234375 35.015625 17.15625 30.90625 
Q 13.09375 26.8125 13.09375 20.65625 
z
" id="ArialMT-56"/>
      </defs>
      <g transform="translate(380.219129 190.536047)scale(0.15 -0.15)">
       <use xlink:href="#ArialMT-8722"/>
       <use x="58.398438" xlink:href="#ArialMT-56"/>
       <use x="114.013672" xlink:href="#ArialMT-48"/>
       <use x="169.628906" xlink:href="#ArialMT-48"/>
      </g>
     </g>
    </g>
    <g id="ytick_10">
     <g id="line2d_19">
      <g>
       <use style="stroke:#000000;stroke-width:0.8;" x="421.004286" xlink:href="#me5c778137a" y="148.364372"/>
      </g>
     </g>
     <g id="text_17">
      <!-- −400 -->
      <g transform="translate(380.219129 153.732731)scale(0.15 -0.15)">
       <use xlink:href="#ArialMT-8722"/>
       <use x="58.398438" xlink:href="#ArialMT-52"/>
       <use x="114.013672" xlink:href="#ArialMT-48"/>
       <use x="169.628906" xlink:href="#ArialMT-48"/>
      </g>
     </g>
    </g>
    <g id="ytick_11">
     <g id="line2d_20">
      <g>
       <use style="stroke:#000000;stroke-width:0.8;" x="421.004286" xlink:href="#me5c778137a" y="111.561057"/>
      </g>
     </g>
     <g id="text_18">
      <!-- 0 -->
      <g transform="translate(405.662879 116.929416)scale(0.15 -0.15)">
       <use xlink:href="#ArialMT-48"/>
      </g>
     </g>
    </g>
    <g id="ytick_12">
     <g id="line2d_21">
      <g>
       <use style="stroke:#000000;stroke-width:0.8;" x="421.004286" xlink:href="#me5c778137a" y="74.757741"/>
      </g>
     </g>
     <g id="text_19">
      <!-- 400 -->
      <g transform="translate(388.980067 80.1261)scale(0.15 -0.15)">
       <use xlink:href="#ArialMT-52"/>
       <use x="55.615234" xlink:href="#ArialMT-48"/>
       <use x="111.230469" xlink:href="#ArialMT-48"/>
      </g>
     </g>
    </g>
    <g id="ytick_13">
     <g id="line2d_22">
      <g>
       <use style="stroke:#000000;stroke-width:0.8;" x="421.004286" xlink:href="#me5c778137a" y="37.954426"/>
      </g>
     </g>
     <g id="text_20">
      <!-- 800 -->
      <g transform="translate(388.980067 43.322785)scale(0.15 -0.15)">
       <use xlink:href="#ArialMT-56"/>
       <use x="55.615234" xlink:href="#ArialMT-48"/>
       <use x="111.230469" xlink:href="#ArialMT-48"/>
      </g>
     </g>
    </g>
    <g id="text_21">
     <!-- Drain Current,  $I_D$  [$\mu A$/$\mu m$] -->
     <g transform="translate(370.819129 218.34)rotate(-90)scale(0.18 -0.18)">
      <use transform="translate(0 0.203125)" xlink:href="#ArialMT-68"/>
      <use transform="translate(72.216797 0.203125)" xlink:href="#ArialMT-114"/>
      <use transform="translate(105.517578 0.203125)" xlink:href="#ArialMT-97"/>
      <use transform="translate(161.132812 0.203125)" xlink:href="#ArialMT-105"/>
      <use transform="translate(183.349609 0.203125)" xlink:href="#ArialMT-110"/>
      <use transform="translate(238.964844 0.203125)" xlink:href="#ArialMT-32"/>
      <use transform="translate(266.748047 0.203125)" xlink:href="#ArialMT-67"/>
      <use transform="translate(338.964844 0.203125)" xlink:href="#ArialMT-117"/>
      <use transform="translate(394.580078 0.203125)" xlink:href="#ArialMT-114"/>
      <use transform="translate(427.880859 0.203125)" xlink:href="#ArialMT-114"/>
      <use transform="translate(461.181641 0.203125)" xlink:href="#ArialMT-101"/>
      <use transform="translate(516.796875 0.203125)" xlink:href="#ArialMT-110"/>
      <use transform="translate(572.412109 0.203125)" xlink:href="#ArialMT-116"/>
      <use transform="translate(600.195312 0.203125)" xlink:href="#ArialMT-44"/>
      <use transform="translate(627.978516 0.203125)" xlink:href="#ArialMT-32"/>
      <use transform="translate(655.761719 0.203125)" xlink:href="#ArialMT-32"/>
      <use transform="translate(683.544922 0.203125)" xlink:href="#ArialMT-73"/>
      <use transform="translate(713.070469 -29.665625)scale(0.7)" xlink:href="#ArialMT-68"/>
      <use transform="translate(768.600352 0.203125)" xlink:href="#ArialMT-32"/>
      <use transform="translate(796.383555 0.203125)" xlink:href="#ArialMT-32"/>
      <use transform="translate(824.166758 0.203125)" xlink:href="#ArialMT-91"/>
      <use transform="translate(851.949961 0.203125)" xlink:href="#ArialMT-956"/>
      <use transform="translate(909.567148 0.203125)" xlink:href="#ArialMT-65"/>
      <use transform="translate(976.266367 0.203125)" xlink:href="#ArialMT-47"/>
      <use transform="translate(1004.04957 0.203125)" xlink:href="#ArialMT-956"/>
      <use transform="translate(1061.666758 0.203125)" xlink:href="#ArialMT-109"/>
      <use transform="translate(1144.967539 0.203125)" xlink:href="#ArialMT-93"/>
     </g>
    </g>
   </g>
   <g id="line2d_23">
    <path clip-path="url(#p75bbc36a79)" d="M 430.666623 188.37 
L 432.599091 183.344215 
L 438.396494 178.434079 
L 440.328961 176.103499 
L 442.261429 174.82986 
L 444.193896 173.005736 
L 446.126364 170.661654 
L 448.058831 170.121634 
L 449.991299 168.561836 
L 451.923766 166.745852 
L 453.856234 165.195522 
L 455.788701 163.380675 
L 457.721169 161.835282 
L 461.586104 158.458483 
L 465.451039 155.320352 
L 482.843247 141.366239 
L 502.167922 125.539084 
L 507.965325 121.030618 
L 511.83026 118.26097 
L 515.695195 115.852687 
L 519.56013 113.895656 
L 521.492597 113.135141 
L 523.425065 112.500314 
L 527.29 111.569543 
L 531.154935 110.637934 
L 535.01987 109.303304 
L 538.884805 107.541387 
L 542.74974 105.431056 
L 546.614675 103.027267 
L 550.47961 100.434786 
L 562.074416 91.754651 
L 583.331558 74.52777 
L 591.061429 68.60801 
L 594.926364 65.447029 
L 598.791299 62.233806 
L 602.656234 58.879264 
L 604.588701 56.487121 
L 608.453636 50.22343 
L 610.386104 50.172375 
L 614.251039 47.895308 
L 616.183506 45.081568 
L 618.115974 43.30715 
L 620.048442 42.69093 
L 621.980909 40.180456 
L 623.913377 37.17 
L 623.913377 39.844296 
L 620.048442 41.832858 
L 616.183506 45.296193 
L 614.251039 45.11646 
L 612.318571 46.140234 
L 610.386104 47.649481 
L 608.453636 49.315781 
L 606.521169 50.393422 
L 604.588701 52.061805 
L 600.723766 55.179431 
L 592.993896 61.846243 
L 573.669221 77.420519 
L 558.209481 90.807134 
L 548.547143 99.264305 
L 542.74974 103.927523 
L 538.884805 106.62087 
L 535.01987 108.814267 
L 533.087403 109.709358 
L 531.154935 110.445119 
L 527.29 111.570082 
L 523.425065 112.666648 
L 521.492597 113.392756 
L 519.56013 114.246079 
L 515.695195 116.335125 
L 511.83026 118.88 
L 507.965325 121.695133 
L 502.167922 126.317839 
L 475.113377 149.222502 
L 467.383506 155.465751 
L 453.856234 167.244634 
L 451.923766 168.601087 
L 449.991299 170.387379 
L 444.193896 176.304387 
L 442.261429 179.469148 
L 440.328961 181.623802 
L 436.464026 183.503062 
L 432.599091 188.064335 
L 430.666623 185.940395 
L 430.666623 185.940395 
" style="fill:none;stroke:#023eff;stroke-linecap:square;stroke-width:2;"/>
   </g>
   <g id="line2d_24">
    <path clip-path="url(#p75bbc36a79)" d="M 421.004286 111.561057 
L 633.575714 111.561057 
" style="fill:none;stroke:#808080;stroke-dasharray:0.6,0.99;stroke-dashoffset:0;stroke-width:0.6;"/>
   </g>
   <g id="line2d_25">
    <path clip-path="url(#p75bbc36a79)" d="M 527.29 195.93 
L 527.29 29.61 
" style="fill:none;stroke:#808080;stroke-dasharray:0.6,0.99;stroke-dashoffset:0;stroke-width:0.6;"/>
   </g>
   <g id="patch_8">
    <path d="M 421.004286 195.93 
L 421.004286 29.61 
" style="fill:none;stroke:#000000;stroke-linecap:square;stroke-linejoin:miter;stroke-width:0.8;"/>
   </g>
   <g id="patch_9">
    <path d="M 633.575714 195.93 
L 633.575714 29.61 
" style="fill:none;stroke:#000000;stroke-linecap:square;stroke-linejoin:miter;stroke-width:0.8;"/>
   </g>
   <g id="patch_10">
    <path d="M 421.004286 195.93 
L 633.575714 195.93 
" style="fill:none;stroke:#000000;stroke-linecap:square;stroke-linejoin:miter;stroke-width:0.8;"/>
   </g>
   <g id="patch_11">
    <path d="M 421.004286 29.61 
L 633.575714 29.61 
" style="fill:none;stroke:#000000;stroke-linecap:square;stroke-linejoin:miter;stroke-width:0.8;"/>
   </g>
   <g id="text_22">
    <!-- $V_{GS}$ = 20 V -->
    <g transform="translate(427.381429 54.558)scale(0.18 -0.18)">
     <use transform="translate(0 0.125)" xlink:href="#ArialMT-86"/>
     <use transform="translate(68.441563 -29.74375)scale(0.7)" xlink:href="#ArialMT-71"/>
     <use transform="translate(122.889805 -29.74375)scale(0.7)" xlink:href="#ArialMT-83"/>
     <use transform="translate(174.557383 0.125)" xlink:href="#ArialMT-32"/>
     <use transform="translate(202.340586 0.125)" xlink:href="#ArialMT-61"/>
     <use transform="translate(260.739023 0.125)" xlink:href="#ArialMT-32"/>
     <use transform="translate(288.522227 0.125)" xlink:href="#ArialMT-50"/>
     <use transform="translate(344.137461 0.125)" xlink:href="#ArialMT-48"/>
     <use transform="translate(399.752695 0.125)" xlink:href="#ArialMT-32"/>
     <use transform="translate(427.535898 0.125)" xlink:href="#ArialMT-86"/>
    </g>
   </g>
   <g id="text_23">
    <!-- $I_{D,max}$ = 835 $\mu A / \mu m$ -->
    <defs>
     <path d="M 0.734375 0 
L 19.671875 26.953125 
L 2.15625 51.859375 
L 13.140625 51.859375 
L 21.09375 39.703125 
Q 23.34375 36.234375 24.703125 33.890625 
Q 26.859375 37.109375 28.65625 39.59375 
L 37.40625 51.859375 
L 47.90625 51.859375 
L 29.984375 27.4375 
L 49.265625 0 
L 38.484375 0 
L 27.828125 16.109375 
L 25 20.453125 
L 11.375 0 
z
" id="ArialMT-120"/>
    </defs>
    <g transform="translate(427.381429 75.348)scale(0.18 -0.18)">
     <use transform="translate(0 0.203125)" xlink:href="#ArialMT-73"/>
     <use transform="translate(29.525547 -29.665625)scale(0.7)" xlink:href="#ArialMT-68"/>
     <use transform="translate(80.077305 -29.665625)scale(0.7)" xlink:href="#ArialMT-44"/>
     <use transform="translate(111.187656 -29.665625)scale(0.7)" xlink:href="#ArialMT-109"/>
     <use transform="translate(169.498203 -29.665625)scale(0.7)" xlink:href="#ArialMT-97"/>
     <use transform="translate(208.428867 -29.665625)scale(0.7)" xlink:href="#ArialMT-120"/>
     <use transform="translate(248.406992 0.203125)" xlink:href="#ArialMT-32"/>
     <use transform="translate(276.190195 0.203125)" xlink:href="#ArialMT-61"/>
     <use transform="translate(334.588633 0.203125)" xlink:href="#ArialMT-32"/>
     <use transform="translate(362.371836 0.203125)" xlink:href="#ArialMT-56"/>
     <use transform="translate(417.98707 0.203125)" xlink:href="#ArialMT-51"/>
     <use transform="translate(473.602305 0.203125)" xlink:href="#ArialMT-53"/>
     <use transform="translate(529.217539 0.203125)" xlink:href="#ArialMT-32"/>
     <use transform="translate(557.000742 0.203125)" xlink:href="#ArialMT-956"/>
     <use transform="translate(614.61793 0.203125)" xlink:href="#ArialMT-65"/>
     <use transform="translate(681.317148 0.203125)" xlink:href="#ArialMT-47"/>
     <use transform="translate(709.100352 0.203125)" xlink:href="#ArialMT-956"/>
     <use transform="translate(766.717539 0.203125)" xlink:href="#ArialMT-109"/>
    </g>
   </g>
   <g id="legend_2">
    <g id="line2d_26">
     <path d="M 523.45961 180.205043 
L 553.44761 180.205043 
" style="fill:none;stroke:#023eff;stroke-linecap:square;stroke-width:2;"/>
    </g>
    <g id="line2d_27"/>
    <g id="text_24">
     <!-- 100 nm -->
     <g transform="translate(565.44281 185.452943)scale(0.14994 -0.14994)">
      <use xlink:href="#ArialMT-49"/>
      <use x="55.615234" xlink:href="#ArialMT-48"/>
      <use x="111.230469" xlink:href="#ArialMT-48"/>
      <use x="166.845703" xlink:href="#ArialMT-32"/>
      <use x="194.628906" xlink:href="#ArialMT-110"/>
      <use x="250.244141" xlink:href="#ArialMT-109"/>
     </g>
    </g>
   </g>
  </g>
  <g id="axes_3">
   <g id="patch_12">
    <path d="M 761.118571 195.93 
L 973.69 195.93 
L 973.69 29.61 
L 761.118571 29.61 
z
" style="fill:none;"/>
   </g>
   <g id="matplotlib.axis_5">
    <g id="xtick_7">
     <g id="line2d_28">
      <g>
       <use style="stroke:#000000;stroke-width:0.8;" x="770.780909" xlink:href="#mbc21e8e84c" y="195.93"/>
      </g>
     </g>
     <g id="text_25">
      <!-- −5 -->
      <g transform="translate(762.229737 213.666719)scale(0.15 -0.15)">
       <use xlink:href="#ArialMT-8722"/>
       <use x="58.398438" xlink:href="#ArialMT-53"/>
      </g>
     </g>
    </g>
    <g id="xtick_8">
     <g id="line2d_29">
      <g>
       <use style="stroke:#000000;stroke-width:0.8;" x="867.404286" xlink:href="#mbc21e8e84c" y="195.93"/>
      </g>
     </g>
     <g id="text_26">
      <!-- 0 -->
      <g transform="translate(863.233583 213.666719)scale(0.15 -0.15)">
       <use xlink:href="#ArialMT-48"/>
      </g>
     </g>
    </g>
    <g id="xtick_9">
     <g id="line2d_30">
      <g>
       <use style="stroke:#000000;stroke-width:0.8;" x="964.027662" xlink:href="#mbc21e8e84c" y="195.93"/>
      </g>
     </g>
     <g id="text_27">
      <!-- 5 -->
      <g transform="translate(959.856959 213.666719)scale(0.15 -0.15)">
       <use xlink:href="#ArialMT-53"/>
      </g>
     </g>
    </g>
    <g id="text_28">
     <!-- Drain Voltage,  $V_{DS}$  [V] -->
     <g transform="translate(773.984286 233.607969)scale(0.18 -0.18)">
      <use transform="translate(0 0.421875)" xlink:href="#ArialMT-68"/>
      <use transform="translate(72.216797 0.421875)" xlink:href="#ArialMT-114"/>
      <use transform="translate(105.517578 0.421875)" xlink:href="#ArialMT-97"/>
      <use transform="translate(161.132812 0.421875)" xlink:href="#ArialMT-105"/>
      <use transform="translate(183.349609 0.421875)" xlink:href="#ArialMT-110"/>
      <use transform="translate(238.964844 0.421875)" xlink:href="#ArialMT-32"/>
      <use transform="translate(266.748047 0.421875)" xlink:href="#ArialMT-86"/>
      <use transform="translate(333.447266 0.421875)" xlink:href="#ArialMT-111"/>
      <use transform="translate(389.0625 0.421875)" xlink:href="#ArialMT-108"/>
      <use transform="translate(411.279297 0.421875)" xlink:href="#ArialMT-116"/>
      <use transform="translate(439.0625 0.421875)" xlink:href="#ArialMT-97"/>
      <use transform="translate(494.677734 0.421875)" xlink:href="#ArialMT-103"/>
      <use transform="translate(550.292969 0.421875)" xlink:href="#ArialMT-101"/>
      <use transform="translate(605.908203 0.421875)" xlink:href="#ArialMT-44"/>
      <use transform="translate(633.691406 0.421875)" xlink:href="#ArialMT-32"/>
      <use transform="translate(661.474609 0.421875)" xlink:href="#ArialMT-32"/>
      <use transform="translate(689.257812 0.421875)" xlink:href="#ArialMT-86"/>
      <use transform="translate(757.699375 -29.446875)scale(0.7)" xlink:href="#ArialMT-68"/>
      <use transform="translate(808.251133 -29.446875)scale(0.7)" xlink:href="#ArialMT-83"/>
      <use transform="translate(859.918711 0.421875)" xlink:href="#ArialMT-32"/>
      <use transform="translate(887.701914 0.421875)" xlink:href="#ArialMT-32"/>
      <use transform="translate(915.485117 0.421875)" xlink:href="#ArialMT-91"/>
      <use transform="translate(943.26832 0.421875)" xlink:href="#ArialMT-86"/>
      <use transform="translate(1009.967539 0.421875)" xlink:href="#ArialMT-93"/>
     </g>
    </g>
   </g>
   <g id="matplotlib.axis_6">
    <g id="ytick_14">
     <g id="line2d_31">
      <g>
       <use style="stroke:#000000;stroke-width:0.8;" x="761.118571" xlink:href="#me5c778137a" y="185.167687"/>
      </g>
     </g>
     <g id="text_29">
      <!-- −800 -->
      <g transform="translate(720.333415 190.536047)scale(0.15 -0.15)">
       <use xlink:href="#ArialMT-8722"/>
       <use x="58.398438" xlink:href="#ArialMT-56"/>
       <use x="114.013672" xlink:href="#ArialMT-48"/>
       <use x="169.628906" xlink:href="#ArialMT-48"/>
      </g>
     </g>
    </g>
    <g id="ytick_15">
     <g id="line2d_32">
      <g>
       <use style="stroke:#000000;stroke-width:0.8;" x="761.118571" xlink:href="#me5c778137a" y="148.364372"/>
      </g>
     </g>
     <g id="text_30">
      <!-- −400 -->
      <g transform="translate(720.333415 153.732731)scale(0.15 -0.15)">
       <use xlink:href="#ArialMT-8722"/>
       <use x="58.398438" xlink:href="#ArialMT-52"/>
       <use x="114.013672" xlink:href="#ArialMT-48"/>
       <use x="169.628906" xlink:href="#ArialMT-48"/>
      </g>
     </g>
    </g>
    <g id="ytick_16">
     <g id="line2d_33">
      <g>
       <use style="stroke:#000000;stroke-width:0.8;" x="761.118571" xlink:href="#me5c778137a" y="111.561057"/>
      </g>
     </g>
     <g id="text_31">
      <!-- 0 -->
      <g transform="translate(745.777165 116.929416)scale(0.15 -0.15)">
       <use xlink:href="#ArialMT-48"/>
      </g>
     </g>
    </g>
    <g id="ytick_17">
     <g id="line2d_34">
      <g>
       <use style="stroke:#000000;stroke-width:0.8;" x="761.118571" xlink:href="#me5c778137a" y="74.757741"/>
      </g>
     </g>
     <g id="text_32">
      <!-- 400 -->
      <g transform="translate(729.094353 80.1261)scale(0.15 -0.15)">
       <use xlink:href="#ArialMT-52"/>
       <use x="55.615234" xlink:href="#ArialMT-48"/>
       <use x="111.230469" xlink:href="#ArialMT-48"/>
      </g>
     </g>
    </g>
    <g id="ytick_18">
     <g id="line2d_35">
      <g>
       <use style="stroke:#000000;stroke-width:0.8;" x="761.118571" xlink:href="#me5c778137a" y="37.954426"/>
      </g>
     </g>
     <g id="text_33">
      <!-- 800 -->
      <g transform="translate(729.094353 43.322785)scale(0.15 -0.15)">
       <use xlink:href="#ArialMT-56"/>
       <use x="55.615234" xlink:href="#ArialMT-48"/>
       <use x="111.230469" xlink:href="#ArialMT-48"/>
      </g>
     </g>
    </g>
    <g id="text_34">
     <!-- Drain Current,  $I_D$  [$\mu A$/$\mu m$] -->
     <g transform="translate(710.933415 218.34)rotate(-90)scale(0.18 -0.18)">
      <use transform="translate(0 0.203125)" xlink:href="#ArialMT-68"/>
      <use transform="translate(72.216797 0.203125)" xlink:href="#ArialMT-114"/>
      <use transform="translate(105.517578 0.203125)" xlink:href="#ArialMT-97"/>
      <use transform="translate(161.132812 0.203125)" xlink:href="#ArialMT-105"/>
      <use transform="translate(183.349609 0.203125)" xlink:href="#ArialMT-110"/>
      <use transform="translate(238.964844 0.203125)" xlink:href="#ArialMT-32"/>
      <use transform="translate(266.748047 0.203125)" xlink:href="#ArialMT-67"/>
      <use transform="translate(338.964844 0.203125)" xlink:href="#ArialMT-117"/>
      <use transform="translate(394.580078 0.203125)" xlink:href="#ArialMT-114"/>
      <use transform="translate(427.880859 0.203125)" xlink:href="#ArialMT-114"/>
      <use transform="translate(461.181641 0.203125)" xlink:href="#ArialMT-101"/>
      <use transform="translate(516.796875 0.203125)" xlink:href="#ArialMT-110"/>
      <use transform="translate(572.412109 0.203125)" xlink:href="#ArialMT-116"/>
      <use transform="translate(600.195312 0.203125)" xlink:href="#ArialMT-44"/>
      <use transform="translate(627.978516 0.203125)" xlink:href="#ArialMT-32"/>
      <use transform="translate(655.761719 0.203125)" xlink:href="#ArialMT-32"/>
      <use transform="translate(683.544922 0.203125)" xlink:href="#ArialMT-73"/>
      <use transform="translate(713.070469 -29.665625)scale(0.7)" xlink:href="#ArialMT-68"/>
      <use transform="translate(768.600352 0.203125)" xlink:href="#ArialMT-32"/>
      <use transform="translate(796.383555 0.203125)" xlink:href="#ArialMT-32"/>
      <use transform="translate(824.166758 0.203125)" xlink:href="#ArialMT-91"/>
      <use transform="translate(851.949961 0.203125)" xlink:href="#ArialMT-956"/>
      <use transform="translate(909.567148 0.203125)" xlink:href="#ArialMT-65"/>
      <use transform="translate(976.266367 0.203125)" xlink:href="#ArialMT-47"/>
      <use transform="translate(1004.04957 0.203125)" xlink:href="#ArialMT-956"/>
      <use transform="translate(1061.666758 0.203125)" xlink:href="#ArialMT-109"/>
      <use transform="translate(1144.967539 0.203125)" xlink:href="#ArialMT-93"/>
     </g>
    </g>
   </g>
   <g id="line2d_36">
    <path clip-path="url(#p12e93eb6d4)" d="M 770.780909 163.206168 
L 772.713377 161.818187 
L 774.645844 160.641415 
L 776.578312 159.963537 
L 780.443247 156.783512 
L 782.375714 156.38571 
L 793.970519 147.890195 
L 795.902987 146.590501 
L 799.767922 143.780701 
L 809.43026 137.473219 
L 813.295195 135.015752 
L 819.092597 131.392764 
L 828.754935 125.605546 
L 834.552338 122.397058 
L 840.34974 119.477235 
L 844.214675 117.670359 
L 848.07961 116.05498 
L 851.944545 114.645056 
L 855.809481 113.480279 
L 859.674416 112.576253 
L 863.539351 111.949766 
L 873.201688 110.873743 
L 877.066623 110.142555 
L 880.931558 109.189012 
L 886.728961 107.438236 
L 892.526364 105.367786 
L 896.391299 103.808778 
L 904.121169 100.393438 
L 911.851039 96.627253 
L 917.648442 93.612633 
L 921.513377 91.577167 
L 929.243247 87.221267 
L 931.175714 86.203502 
L 938.905584 81.416587 
L 946.635455 75.779184 
L 948.567922 73.465535 
L 950.50039 71.948096 
L 952.432857 69.457291 
L 954.365325 67.374647 
L 956.297792 66.986271 
L 958.23026 64.589439 
L 960.162727 62.378069 
L 962.095195 60.859749 
L 964.027662 58.45403 
L 964.027662 60.464721 
L 962.095195 60.8093 
L 960.162727 62.200537 
L 958.23026 62.554188 
L 954.365325 65.259525 
L 952.432857 66.435869 
L 950.50039 67.900253 
L 936.973117 77.073881 
L 929.243247 81.638078 
L 925.378312 83.908668 
L 898.323766 99.594064 
L 890.593896 103.822194 
L 886.728961 105.713142 
L 882.864026 107.428714 
L 878.999091 108.899489 
L 875.134156 110.080629 
L 871.269221 110.972504 
L 867.404286 111.565718 
L 863.539351 112.136036 
L 859.674416 112.966141 
L 855.809481 114.099211 
L 851.944545 115.526026 
L 848.07961 117.199972 
L 842.282208 120.124371 
L 832.61987 125.610995 
L 822.957532 131.624484 
L 813.295195 137.792407 
L 805.565325 142.8281 
L 803.632857 143.97792 
L 795.902987 149.227764 
L 786.240649 156.166664 
L 784.308182 159.240656 
L 782.375714 160.458693 
L 780.443247 162.212648 
L 776.578312 166.653902 
L 774.645844 169.415966 
L 772.713377 168.948065 
L 770.780909 168.058909 
L 770.780909 168.058909 
" style="fill:none;stroke:#023eff;stroke-linecap:square;stroke-width:2;"/>
   </g>
   <g id="line2d_37">
    <path clip-path="url(#p12e93eb6d4)" d="M 770.780909 179.089924 
L 772.713377 176.075832 
L 774.645844 174.731113 
L 778.510779 171.002414 
L 782.375714 167.823579 
L 788.173117 162.802587 
L 801.70039 152.337389 
L 807.497792 148.043175 
L 840.34974 124.061144 
L 846.147143 120.254015 
L 850.012078 117.89923 
L 853.877013 115.836186 
L 857.741948 114.110065 
L 861.606883 112.807755 
L 865.471818 111.90324 
L 871.269221 110.81346 
L 875.134156 109.719424 
L 878.999091 108.284119 
L 882.864026 106.55492 
L 886.728961 104.557919 
L 890.593896 102.393844 
L 896.391299 98.814227 
L 906.053636 92.316838 
L 929.243247 76.151247 
L 936.973117 71.058959 
L 938.905584 69.721281 
L 940.838052 68.219381 
L 942.770519 66.970199 
L 948.567922 62.458173 
L 950.50039 60.698643 
L 952.432857 56.918059 
L 954.365325 54.5244 
L 956.297792 51.742933 
L 958.23026 50.512701 
L 960.162727 49.094338 
L 962.095195 46.534378 
L 964.027662 43.698166 
L 964.027662 44.43879 
L 962.095195 46.638587 
L 960.162727 47.689894 
L 958.23026 48.143984 
L 956.297792 50.11695 
L 952.432857 52.93032 
L 950.50039 54.05245 
L 948.567922 55.444067 
L 942.770519 59.926913 
L 913.783506 81.704257 
L 902.188701 90.918573 
L 894.458831 97.048208 
L 886.728961 102.716964 
L 882.864026 105.229166 
L 878.999091 107.433482 
L 875.134156 109.25724 
L 871.269221 110.62167 
L 867.404286 111.569877 
L 863.539351 112.493331 
L 859.674416 113.811757 
L 855.809481 115.575927 
L 851.944545 117.727409 
L 848.07961 120.221598 
L 840.34974 125.798409 
L 834.552338 130.274787 
L 793.970519 162.607922 
L 792.038052 164.282518 
L 790.105584 165.778553 
L 786.240649 169.020992 
L 784.308182 171.010694 
L 782.375714 172.839648 
L 780.443247 174.997013 
L 778.510779 176.804577 
L 774.645844 180.996652 
L 772.713377 181.051654 
L 770.780909 181.758324 
L 770.780909 181.758324 
" style="fill:none;stroke:#ff7c00;stroke-linecap:square;stroke-width:2;"/>
   </g>
   <g id="line2d_38">
    <path clip-path="url(#p12e93eb6d4)" d="M 770.780909 188.37 
L 772.713377 183.344215 
L 778.510779 178.434079 
L 780.443247 176.103499 
L 782.375714 174.82986 
L 784.308182 173.005736 
L 786.240649 170.661654 
L 788.173117 170.121634 
L 790.105584 168.561836 
L 792.038052 166.745852 
L 793.970519 165.195522 
L 795.902987 163.380675 
L 797.835455 161.835282 
L 801.70039 158.458483 
L 805.565325 155.320352 
L 822.957532 141.366239 
L 842.282208 125.539084 
L 848.07961 121.030618 
L 851.944545 118.26097 
L 855.809481 115.852687 
L 859.674416 113.895656 
L 861.606883 113.135141 
L 863.539351 112.500314 
L 867.404286 111.569543 
L 871.269221 110.637934 
L 875.134156 109.303304 
L 878.999091 107.541387 
L 882.864026 105.431056 
L 886.728961 103.027267 
L 890.593896 100.434786 
L 902.188701 91.754651 
L 923.445844 74.52777 
L 931.175714 68.60801 
L 935.040649 65.447029 
L 938.905584 62.233806 
L 942.770519 58.879264 
L 944.702987 56.487121 
L 948.567922 50.22343 
L 950.50039 50.172375 
L 954.365325 47.895308 
L 956.297792 45.081568 
L 958.23026 43.30715 
L 960.162727 42.69093 
L 962.095195 40.180456 
L 964.027662 37.17 
L 964.027662 39.844296 
L 960.162727 41.832858 
L 956.297792 45.296193 
L 954.365325 45.11646 
L 952.432857 46.140234 
L 950.50039 47.649481 
L 948.567922 49.315781 
L 946.635455 50.393422 
L 944.702987 52.061805 
L 940.838052 55.179431 
L 933.108182 61.846243 
L 913.783506 77.420519 
L 898.323766 90.807134 
L 888.661429 99.264305 
L 882.864026 103.927523 
L 878.999091 106.62087 
L 875.134156 108.814267 
L 873.201688 109.709358 
L 871.269221 110.445119 
L 867.404286 111.570082 
L 863.539351 112.666648 
L 861.606883 113.392756 
L 859.674416 114.246079 
L 855.809481 116.335125 
L 851.944545 118.88 
L 848.07961 121.695133 
L 842.282208 126.317839 
L 815.227662 149.222502 
L 807.497792 155.465751 
L 793.970519 167.244634 
L 792.038052 168.601087 
L 790.105584 170.387379 
L 784.308182 176.304387 
L 782.375714 179.469148 
L 780.443247 181.623802 
L 776.578312 183.503062 
L 772.713377 188.064335 
L 770.780909 185.940395 
L 770.780909 185.940395 
" style="fill:none;stroke:#1ac938;stroke-linecap:square;stroke-width:2;"/>
   </g>
   <g id="line2d_39">
    <path clip-path="url(#p12e93eb6d4)" d="M 761.118571 111.561057 
L 973.69 111.561057 
" style="fill:none;stroke:#808080;stroke-dasharray:0.6,0.99;stroke-dashoffset:0;stroke-width:0.6;"/>
   </g>
   <g id="line2d_40">
    <path clip-path="url(#p12e93eb6d4)" d="M 867.404286 195.93 
L 867.404286 29.61 
" style="fill:none;stroke:#808080;stroke-dasharray:0.6,0.99;stroke-dashoffset:0;stroke-width:0.6;"/>
   </g>
   <g id="patch_13">
    <path d="M 761.118571 195.93 
L 761.118571 29.61 
" style="fill:none;stroke:#000000;stroke-linecap:square;stroke-linejoin:miter;stroke-width:0.8;"/>
   </g>
   <g id="patch_14">
    <path d="M 973.69 195.93 
L 973.69 29.61 
" style="fill:none;stroke:#000000;stroke-linecap:square;stroke-linejoin:miter;stroke-width:0.8;"/>
   </g>
   <g id="patch_15">
    <path d="M 761.118571 195.93 
L 973.69 195.93 
" style="fill:none;stroke:#000000;stroke-linecap:square;stroke-linejoin:miter;stroke-width:0.8;"/>
   </g>
   <g id="patch_16">
    <path d="M 761.118571 29.61 
L 973.69 29.61 
" style="fill:none;stroke:#000000;stroke-linecap:square;stroke-linejoin:miter;stroke-width:0.8;"/>
   </g>
   <g id="text_35">
    <!-- $L_{ch}$ = 100 nm -->
    <defs>
     <path d="M 7.328125 0 
L 7.328125 71.578125 
L 16.796875 71.578125 
L 16.796875 8.453125 
L 52.046875 8.453125 
L 52.046875 0 
z
" id="ArialMT-76"/>
     <path d="M 40.4375 19 
L 49.078125 17.875 
Q 47.65625 8.9375 41.8125 3.875 
Q 35.984375 -1.171875 27.484375 -1.171875 
Q 16.84375 -1.171875 10.375 5.78125 
Q 3.90625 12.75 3.90625 25.734375 
Q 3.90625 34.125 6.6875 40.421875 
Q 9.46875 46.734375 15.15625 49.875 
Q 20.84375 53.03125 27.546875 53.03125 
Q 35.984375 53.03125 41.359375 48.75 
Q 46.734375 44.484375 48.25 36.625 
L 39.703125 35.296875 
Q 38.484375 40.53125 35.375 43.15625 
Q 32.28125 45.796875 27.875 45.796875 
Q 21.234375 45.796875 17.078125 41.03125 
Q 12.9375 36.28125 12.9375 25.984375 
Q 12.9375 15.53125 16.9375 10.796875 
Q 20.953125 6.0625 27.390625 6.0625 
Q 32.5625 6.0625 36.03125 9.234375 
Q 39.5 12.40625 40.4375 19 
z
" id="ArialMT-99"/>
     <path d="M 6.59375 0 
L 6.59375 71.578125 
L 15.375 71.578125 
L 15.375 45.90625 
Q 21.53125 53.03125 30.90625 53.03125 
Q 36.671875 53.03125 40.921875 50.75 
Q 45.171875 48.484375 47 44.484375 
Q 48.828125 40.484375 48.828125 32.859375 
L 48.828125 0 
L 40.046875 0 
L 40.046875 32.859375 
Q 40.046875 39.453125 37.1875 42.453125 
Q 34.328125 45.453125 29.109375 45.453125 
Q 25.203125 45.453125 21.75 43.421875 
Q 18.3125 41.40625 16.84375 37.9375 
Q 15.375 34.46875 15.375 28.375 
L 15.375 0 
z
" id="ArialMT-104"/>
    </defs>
    <g transform="translate(771.747143 54.558)scale(0.18 -0.18)">
     <use transform="translate(0 0.125)" xlink:href="#ArialMT-76"/>
     <use transform="translate(57.357578 -29.74375)scale(0.7)" xlink:href="#ArialMT-99"/>
     <use transform="translate(92.357578 -29.74375)scale(0.7)" xlink:href="#ArialMT-104"/>
     <use transform="translate(136.266367 0.125)" xlink:href="#ArialMT-32"/>
     <use transform="translate(164.04957 0.125)" xlink:href="#ArialMT-61"/>
     <use transform="translate(222.448008 0.125)" xlink:href="#ArialMT-32"/>
     <use transform="translate(250.231211 0.125)" xlink:href="#ArialMT-49"/>
     <use transform="translate(305.846445 0.125)" xlink:href="#ArialMT-48"/>
     <use transform="translate(361.46168 0.125)" xlink:href="#ArialMT-48"/>
     <use transform="translate(417.076914 0.125)" xlink:href="#ArialMT-32"/>
     <use transform="translate(444.860117 0.125)" xlink:href="#ArialMT-110"/>
     <use transform="translate(500.475352 0.125)" xlink:href="#ArialMT-109"/>
    </g>
   </g>
   <g id="legend_3">
    <g id="line2d_41">
     <path d="M 870.234512 129.470079 
L 900.222512 129.470079 
" style="fill:none;stroke:#023eff;stroke-linecap:square;stroke-width:2;"/>
    </g>
    <g id="line2d_42"/>
    <g id="text_36">
     <!-- 0.0 V -->
     <g transform="translate(912.217712 134.717979)scale(0.14994 -0.14994)">
      <use xlink:href="#ArialMT-48"/>
      <use x="55.615234" xlink:href="#ArialMT-46"/>
      <use x="83.398438" xlink:href="#ArialMT-48"/>
      <use x="139.013672" xlink:href="#ArialMT-32"/>
      <use x="166.796875" xlink:href="#ArialMT-86"/>
     </g>
    </g>
    <g id="line2d_43">
     <path d="M 870.234512 150.679561 
L 900.222512 150.679561 
" style="fill:none;stroke:#ff7c00;stroke-linecap:square;stroke-width:2;"/>
    </g>
    <g id="line2d_44"/>
    <g id="text_37">
     <!-- 10.0 V -->
     <g transform="translate(912.217712 155.927461)scale(0.14994 -0.14994)">
      <use xlink:href="#ArialMT-49"/>
      <use x="55.615234" xlink:href="#ArialMT-48"/>
      <use x="111.230469" xlink:href="#ArialMT-46"/>
      <use x="139.013672" xlink:href="#ArialMT-48"/>
      <use x="194.628906" xlink:href="#ArialMT-32"/>
      <use x="222.412109" xlink:href="#ArialMT-86"/>
     </g>
    </g>
    <g id="line2d_45">
     <path d="M 870.234512 171.889043 
L 900.222512 171.889043 
" style="fill:none;stroke:#1ac938;stroke-linecap:square;stroke-width:2;"/>
    </g>
    <g id="line2d_46"/>
    <g id="text_38">
     <!-- 20.0 V -->
     <g transform="translate(912.217712 177.136943)scale(0.14994 -0.14994)">
      <use xlink:href="#ArialMT-50"/>
      <use x="55.615234" xlink:href="#ArialMT-48"/>
      <use x="111.230469" xlink:href="#ArialMT-46"/>
      <use x="139.013672" xlink:href="#ArialMT-48"/>
      <use x="194.628906" xlink:href="#ArialMT-32"/>
      <use x="222.412109" xlink:href="#ArialMT-86"/>
     </g>
    </g>
   </g>
  </g>
  <g id="text_39">
   <!-- 6-3 -->
   <defs>
    <path d="M 3.171875 21.484375 
L 3.171875 30.328125 
L 30.171875 30.328125 
L 30.171875 21.484375 
z
" id="ArialMT-45"/>
   </defs>
   <g transform="translate(502.773906 18.030937)scale(0.14 -0.14)">
    <use xlink:href="#ArialMT-54"/>
    <use x="55.615234" xlink:href="#ArialMT-45"/>
    <use x="88.916016" xlink:href="#ArialMT-51"/>
   </g>
  </g>
 </g>
 <defs>
  <clipPath id="pbc3a68d4de">
   <rect height="166.32" width="212.571429" x="80.89" y="29.61"/>
  </clipPath>
  <clipPath id="p75bbc36a79">
   <rect height="166.32" width="212.571429" x="421.004286" y="29.61"/>
  </clipPath>
  <clipPath id="p12e93eb6d4">
   <rect height="166.32" width="212.571429" x="761.118571" y="29.61"/>
  </clipPath>
 </defs>
</svg>
